<svg width="48" height="48" viewBox="0 0 48 48" fill="none" xmlns="http://www.w3.org/2000/svg">
<path d="M9.19149 16.2595C9.19149 15.5726 9.19242 15.129 9.22 14.7914C9.24644 14.4677 9.29134 14.3477 9.32135 14.2888C9.43559 14.0646 9.61786 13.8824 9.84205 13.7681C9.90097 13.7381 10.021 13.6932 10.3447 13.6668C10.6822 13.6392 11.1258 13.6383 11.8128 13.6383H21.1064V39.851H11.8128C11.1258 39.851 10.6822 39.8501 10.3447 39.8225C10.021 39.7961 9.90097 39.7512 9.84205 39.7212C9.61786 39.6069 9.43559 39.4247 9.32135 39.2005C9.29134 39.1416 9.24644 39.0215 9.22 38.6979C9.19242 38.3603 9.19149 37.9167 9.19149 37.2297V16.2595Z" fill="#12AD75" stroke="#171718" stroke-width="2.38298"/>
<path d="M13.1064 13.468H30.0596C30.7437 13.468 31.1954 13.4688 31.5415 13.4971C31.8758 13.5244 32.0207 13.5722 32.1076 13.6165C32.3638 13.747 32.5721 13.9553 32.7026 14.2115C32.7469 14.2985 32.7947 14.4434 32.822 14.7776C32.8503 15.1237 32.8511 15.5754 32.8511 16.2595V37.2298C32.8511 37.9139 32.8503 38.3656 32.822 38.7117C32.7947 39.0459 32.7469 39.1908 32.7026 39.2777C32.5721 39.534 32.3638 39.7423 32.1076 39.8728C32.0207 39.9171 31.8758 39.9649 31.5415 39.9922C31.1954 40.0204 30.7437 40.0212 30.0596 40.0212H21.3447C19.7072 40.0212 18.5406 40.0204 17.6268 39.9458C16.7249 39.8721 16.1597 39.7316 15.7086 39.5018L15.245 40.4117L15.7086 39.5018C14.8119 39.0449 14.0828 38.3158 13.6258 37.419C13.396 36.968 13.2555 36.4027 13.1818 35.5008C13.1072 34.587 13.1064 33.4204 13.1064 31.7829V13.468Z" fill="#FFFAED" stroke="#171718" stroke-width="2.04255"/>
<rect x="18.2128" y="19.5957" width="9.2164" height="12.5957" fill="black"/>
<rect x="20.0561" y="21.439" width="2.15049" height="3.68656" fill="#E31E18"/>
<rect x="23.4352" y="21.439" width="2.15049" height="3.68656" fill="#FFFAED"/>
<rect x="23.4352" y="26.6616" width="2.15049" height="3.68656" fill="#EEB900"/>
<rect x="20.0559" y="26.6616" width="2.15049" height="3.68656" fill="#FFFAED"/>
<circle cx="32.3402" cy="25.5533" r="7.31915" fill="#FFFAED"/>
<mask id="path-9-outside-1_1_23" maskUnits="userSpaceOnUse" x="26.087" y="19.6097" width="12" height="11" fill="black">
<rect fill="white" x="26.087" y="19.6097" width="12" height="11"/>
<path fill-rule="evenodd" clip-rule="evenodd" d="M34.418 28.8656C34.4812 28.9753 34.4982 29.1055 34.4654 29.2277C34.4325 29.3499 34.3525 29.4541 34.2429 29.5173C31.9595 30.8332 29.0413 30.0489 27.7253 27.7655C26.4093 25.4821 27.1937 22.5639 29.4771 21.2479C31.7605 19.9319 34.6787 20.7163 35.9947 22.9997C36.546 23.9529 36.7494 25.0679 36.5699 26.1544L37.0534 26.2843C37.1445 26.3088 37.2263 26.3598 37.2885 26.4308C37.3506 26.5018 37.3903 26.5897 37.4026 26.6833C37.4148 26.7768 37.3991 26.8719 37.3573 26.9565C37.3155 27.0411 37.2495 27.1115 37.1678 27.1586L35.9983 27.8326L35.9971 27.8333C35.9428 27.8645 35.8829 27.8848 35.8208 27.8929C35.7586 27.9009 35.6955 27.8966 35.635 27.8803C35.5746 27.8639 35.5179 27.8357 35.4684 27.7973C35.4188 27.759 35.3773 27.7113 35.3463 27.6568L34.6722 26.4878C34.625 26.406 34.6032 26.3121 34.6095 26.2179C34.6158 26.1237 34.6499 26.0334 34.7074 25.9586C34.765 25.8838 34.8435 25.8277 34.9329 25.7975C35.0224 25.7673 35.1188 25.7643 35.2099 25.7888L35.6422 25.905C35.7602 25.0504 35.5852 24.181 35.1458 23.4385C34.7064 22.6961 34.0285 22.1243 33.2226 21.8165C32.4166 21.5086 31.5302 21.4828 30.7077 21.7433C29.8852 22.0037 29.1752 22.5351 28.6934 23.2508C28.2115 23.9664 27.9863 24.8242 28.0544 25.6842C28.1225 26.5443 28.4799 27.3559 29.0683 27.9868C29.6568 28.6178 30.4415 29.0308 31.2948 29.1586C32.148 29.2864 33.0193 29.1214 33.7668 28.6906C33.8764 28.6275 34.0065 28.6106 34.1286 28.6434C34.2507 28.6762 34.3548 28.7561 34.418 28.8656Z"/>
</mask>
<path fill-rule="evenodd" clip-rule="evenodd" d="M34.418 28.8656C34.4812 28.9753 34.4982 29.1055 34.4654 29.2277C34.4325 29.3499 34.3525 29.4541 34.2429 29.5173C31.9595 30.8332 29.0413 30.0489 27.7253 27.7655C26.4093 25.4821 27.1937 22.5639 29.4771 21.2479C31.7605 19.9319 34.6787 20.7163 35.9947 22.9997C36.546 23.9529 36.7494 25.0679 36.5699 26.1544L37.0534 26.2843C37.1445 26.3088 37.2263 26.3598 37.2885 26.4308C37.3506 26.5018 37.3903 26.5897 37.4026 26.6833C37.4148 26.7768 37.3991 26.8719 37.3573 26.9565C37.3155 27.0411 37.2495 27.1115 37.1678 27.1586L35.9983 27.8326L35.9971 27.8333C35.9428 27.8645 35.8829 27.8848 35.8208 27.8929C35.7586 27.9009 35.6955 27.8966 35.635 27.8803C35.5746 27.8639 35.5179 27.8357 35.4684 27.7973C35.4188 27.759 35.3773 27.7113 35.3463 27.6568L34.6722 26.4878C34.625 26.406 34.6032 26.3121 34.6095 26.2179C34.6158 26.1237 34.6499 26.0334 34.7074 25.9586C34.765 25.8838 34.8435 25.8277 34.9329 25.7975C35.0224 25.7673 35.1188 25.7643 35.2099 25.7888L35.6422 25.905C35.7602 25.0504 35.5852 24.181 35.1458 23.4385C34.7064 22.6961 34.0285 22.1243 33.2226 21.8165C32.4166 21.5086 31.5302 21.4828 30.7077 21.7433C29.8852 22.0037 29.1752 22.5351 28.6934 23.2508C28.2115 23.9664 27.9863 24.8242 28.0544 25.6842C28.1225 26.5443 28.4799 27.3559 29.0683 27.9868C29.6568 28.6178 30.4415 29.0308 31.2948 29.1586C32.148 29.2864 33.0193 29.1214 33.7668 28.6906C33.8764 28.6275 34.0065 28.6106 34.1286 28.6434C34.2507 28.6762 34.3548 28.7561 34.418 28.8656Z" fill="#171718"/>
<path d="M34.418 28.8656L34.7646 28.6659L34.7644 28.6656L34.418 28.8656ZM34.4654 29.2277L34.8517 29.3315L34.4654 29.2277ZM34.2429 29.5173L34.4426 29.8638L34.4426 29.8638L34.2429 29.5173ZM35.9947 22.9997L35.6481 23.1994L35.6484 23.2L35.9947 22.9997ZM36.5699 26.1544L36.1753 26.0892L36.1162 26.4466L36.4661 26.5407L36.5699 26.1544ZM37.0534 26.2843L37.1573 25.8981L37.1572 25.898L37.0534 26.2843ZM37.1678 27.1586L37.3675 27.5052L37.3675 27.5051L37.1678 27.1586ZM35.9983 27.8326L36.198 28.1792L36.198 28.1791L35.9983 27.8326ZM35.9971 27.8333L35.7974 27.4867L35.7974 27.4867L35.9971 27.8333ZM35.3463 27.6568L35.6937 27.4586L35.6928 27.457L35.3463 27.6568ZM34.6722 26.4878L34.3256 26.6875L34.3256 26.6876L34.6722 26.4878ZM35.2099 25.7888L35.1058 26.175L35.1061 26.1751L35.2099 25.7888ZM35.6422 25.905L35.5384 26.2913L35.9764 26.409L36.0384 25.9597L35.6422 25.905ZM33.7668 28.6906L33.5674 28.3438L33.5671 28.344L33.7668 28.6906ZM34.0714 29.0653C34.0816 29.083 34.0844 29.1041 34.0791 29.1239L34.8517 29.3315C34.912 29.1069 34.8807 28.8675 34.7646 28.6659L34.0714 29.0653ZM34.0791 29.1239C34.0738 29.1437 34.0608 29.1605 34.0431 29.1707L34.4426 29.8638C34.6442 29.7476 34.7913 29.5562 34.8517 29.3315L34.0791 29.1239ZM34.0431 29.1707C31.9511 30.3764 29.2775 29.6577 28.0719 27.5657L27.3787 27.9652C28.805 30.44 31.9678 31.2901 34.4426 29.8638L34.0431 29.1707ZM28.0719 27.5657C26.8662 25.4737 27.5848 22.8001 29.6768 21.5945L29.2774 20.9013C26.8026 22.3276 25.9525 25.4904 27.3787 27.9652L28.0719 27.5657ZM29.6768 21.5945C31.7688 20.3888 34.4424 21.1074 35.6481 23.1994L36.3412 22.8C34.915 20.3252 31.7522 19.4751 29.2774 20.9013L29.6768 21.5945ZM35.6484 23.2C36.1534 24.073 36.3396 25.0942 36.1753 26.0892L36.9646 26.2196C37.1591 25.0417 36.9387 23.8328 36.3409 22.7994L35.6484 23.2ZM36.4661 26.5407L36.9495 26.6706L37.1572 25.898L36.6737 25.7681L36.4661 26.5407ZM36.9495 26.6706C36.9642 26.6746 36.9774 26.6828 36.9875 26.6943L37.5895 26.1674C37.4752 26.0368 37.3248 25.9431 37.1573 25.8981L36.9495 26.6706ZM36.9875 26.6943C36.9976 26.7058 37.004 26.72 37.006 26.7351L37.7992 26.6314C37.7767 26.4594 37.7037 26.2979 37.5895 26.1674L36.9875 26.6943ZM37.006 26.7351C37.008 26.7503 37.0054 26.7657 36.9986 26.7794L37.7159 27.1337C37.7927 26.9782 37.8217 26.8034 37.7992 26.6314L37.006 26.7351ZM36.9986 26.7794C36.9919 26.7931 36.9812 26.8044 36.968 26.8121L37.3675 27.5051C37.5178 27.4185 37.639 27.2892 37.7159 27.1337L36.9986 26.7794ZM36.968 26.812L35.7985 27.486L36.198 28.1791L37.3675 27.5052L36.968 26.812ZM35.7986 27.486L35.7974 27.4867L36.1968 28.1798L36.198 28.1792L35.7986 27.486ZM35.7974 27.4867C35.7887 27.4917 35.7792 27.4949 35.7693 27.4962L35.8722 28.2895C35.9866 28.2747 36.0969 28.2374 36.1968 28.1798L35.7974 27.4867ZM35.7693 27.4962C35.7594 27.4975 35.7493 27.4968 35.7397 27.4942L35.5304 28.2663C35.6417 28.2965 35.7579 28.3044 35.8722 28.2895L35.7693 27.4962ZM35.7397 27.4942C35.7301 27.4916 35.721 27.4871 35.7131 27.481L35.2236 28.1137C35.3148 28.1843 35.4191 28.2361 35.5304 28.2663L35.7397 27.4942ZM35.7131 27.481C35.7052 27.4749 35.6986 27.4673 35.6937 27.4586L34.9989 27.8551C35.056 27.9553 35.1324 28.0431 35.2236 28.1137L35.7131 27.481ZM35.6928 27.457L35.0187 26.288L34.3256 26.6876L34.9998 27.8567L35.6928 27.457ZM35.0188 26.2881C35.0111 26.2749 35.0076 26.2597 35.0086 26.2445L34.2104 26.1913C34.1989 26.3644 34.2389 26.5371 34.3256 26.6875L35.0188 26.2881ZM35.0086 26.2445C35.0096 26.2292 35.0152 26.2146 35.0245 26.2025L34.3904 25.7147C34.2846 25.8523 34.2219 26.0181 34.2104 26.1913L35.0086 26.2445ZM35.0245 26.2025C35.0338 26.1904 35.0465 26.1813 35.061 26.1764L34.8049 25.4185C34.6405 25.4741 34.4962 25.5772 34.3904 25.7147L35.0245 26.2025ZM35.061 26.1764C35.0754 26.1715 35.091 26.1711 35.1058 26.175L35.314 25.4026C35.1465 25.3574 34.9693 25.363 34.8049 25.4185L35.061 26.1764ZM35.1061 26.1751L35.5384 26.2913L35.746 25.5187L35.3137 25.4025L35.1061 26.1751ZM36.0384 25.9597C36.1688 25.0155 35.9755 24.0551 35.4901 23.2348L34.8016 23.6422C35.195 24.3069 35.3516 25.0852 35.246 25.8503L36.0384 25.9597ZM35.4901 23.2348C35.0046 22.4145 34.2557 21.7829 33.3653 21.4428L33.0798 22.1901C33.8013 22.4657 34.4082 22.9776 34.8016 23.6422L35.4901 23.2348ZM33.3653 21.4428C32.4749 21.1027 31.4956 21.0742 30.5869 21.3619L30.8284 22.1246C31.5648 21.8914 32.3583 21.9145 33.0798 22.1901L33.3653 21.4428ZM30.5869 21.3619C29.6783 21.6497 28.8939 22.2367 28.3616 23.0274L29.0252 23.4742C29.4565 22.8335 30.0921 22.3578 30.8284 22.1246L30.5869 21.3619ZM28.3616 23.0274C27.8293 23.818 27.5804 24.7656 27.6557 25.7158L28.4532 25.6527C28.3922 24.8827 28.5938 24.1148 29.0252 23.4742L28.3616 23.0274ZM27.6557 25.7158C27.7309 26.666 28.1257 27.5626 28.7758 28.2597L29.3608 27.714C28.8341 27.1492 28.5141 26.4226 28.4532 25.6527L27.6557 25.7158ZM28.7758 28.2597C29.4259 28.9567 30.2929 29.413 31.2355 29.5542L31.354 28.763C30.5902 28.6486 29.8876 28.2788 29.3608 27.714L28.7758 28.2597ZM31.2355 29.5542C32.1781 29.6954 33.1408 29.5131 33.9666 29.0371L33.5671 28.344C32.8979 28.7297 32.1178 28.8774 31.354 28.763L31.2355 29.5542ZM33.9662 29.0373C33.984 29.0271 34.005 29.0244 34.0248 29.0297L34.2324 28.2571C34.008 28.1968 33.7688 28.228 33.5674 28.3438L33.9662 29.0373ZM34.0248 29.0297C34.0445 29.035 34.0614 29.0479 34.0716 29.0656L34.7644 28.6656C34.6482 28.4643 34.4569 28.3174 34.2324 28.2571L34.0248 29.0297Z" fill="#171718" mask="url(#path-9-outside-1_1_23)"/>
<path d="M25.5273 35.9501C25.5818 34.7649 25.6164 34.4486 25.7666 34.1758C25.9067 33.9214 26.1713 33.6687 26.4319 33.5404C26.7102 33.4034 27.0445 33.3829 28.2769 33.3829H36.1872C36.8686 33.3829 37.3284 33.3836 37.6831 33.4126C38.0278 33.4407 38.1976 33.4914 38.3125 33.5499C38.6007 33.6968 38.8351 33.9311 38.982 34.2194C39.0405 34.3343 39.0911 34.5041 39.1193 34.8488C39.1483 35.2035 39.1489 35.6633 39.1489 36.3446V37.0044C39.1489 37.6228 39.1483 38.036 39.1222 38.3572C39.0971 38.6661 39.0522 38.8247 38.997 38.9392L39.6958 39.276L38.997 38.9392C38.8672 39.2084 38.6408 39.4521 38.3818 39.6013C38.2694 39.6661 38.1169 39.7217 37.8211 39.7683C37.5116 39.8171 37.1124 39.8472 36.5115 39.8914C34.0808 40.0704 30.8295 40.2491 28.2729 40.1738C26.9818 40.1357 25.9328 40.034 25.2646 39.8596C25.12 39.8219 25.0117 39.7852 24.9325 39.7536C25.3689 38.408 25.4706 37.1817 25.5273 35.9501Z" fill="#FFFAED" stroke="#171718" stroke-width="1.70213"/>
<path d="M20.8894 12.4402C20.8894 12.8211 20.8677 13.202 20.8241 13.5829C20.7842 13.9601 20.7099 14.3211 20.6011 14.6657C20.4959 15.0103 20.3508 15.3331 20.1658 15.6342C19.9844 15.9317 19.7522 16.1892 19.4693 16.4069C19.19 16.6245 18.8526 16.7968 18.4572 16.9238C18.0654 17.0471 17.6047 17.1088 17.0751 17.1088C16.999 17.1088 16.9155 17.107 16.8248 17.1033C16.7341 17.0997 16.6416 17.0943 16.5473 17.087C16.4566 17.0834 16.3678 17.0761 16.2807 17.0653C16.1937 17.058 16.1175 17.0471 16.0522 17.0326V15.6832C16.1864 15.7195 16.3297 15.7485 16.482 15.7702C16.638 15.7884 16.7958 15.7974 16.9554 15.7974C17.4451 15.7974 17.8478 15.7376 18.1634 15.6179C18.479 15.4946 18.7293 15.3241 18.9143 15.1064C19.0993 14.8851 19.2299 14.6221 19.306 14.3174C19.3858 14.0127 19.4348 13.6772 19.453 13.3108H19.3822C19.3097 13.4414 19.2226 13.5629 19.121 13.6754C19.0195 13.7878 18.8998 13.8858 18.7619 13.9692C18.6241 14.0526 18.4681 14.1179 18.294 14.1651C18.1199 14.2122 17.9258 14.2358 17.7118 14.2358C17.3671 14.2358 17.057 14.1796 16.7813 14.0671C16.5056 13.9547 16.2716 13.7914 16.0794 13.5774C15.8908 13.3634 15.7457 13.1004 15.6441 12.7884C15.5425 12.4765 15.4917 12.1192 15.4917 11.7165C15.4917 11.2849 15.5516 10.8985 15.6713 10.5575C15.7946 10.2166 15.9687 9.92817 16.1937 9.69238C16.4186 9.45297 16.6906 9.26978 17.0098 9.14282C17.3327 9.01586 17.6936 8.95238 18.0926 8.95238C18.4844 8.95238 18.8508 9.02311 19.1918 9.16458C19.5328 9.30243 19.8284 9.51464 20.0787 9.80121C20.329 10.0878 20.5267 10.4505 20.6718 10.8895C20.8169 11.3284 20.8894 11.8453 20.8894 12.4402ZM18.1253 10.3018C17.9766 10.3018 17.8405 10.329 17.7172 10.3834C17.5939 10.4378 17.4869 10.5231 17.3962 10.6392C17.3091 10.7516 17.2402 10.8967 17.1894 11.0745C17.1422 11.2486 17.1187 11.4553 17.1187 11.6948C17.1187 12.0793 17.2003 12.384 17.3635 12.6089C17.5268 12.8338 17.7734 12.9462 18.1035 12.9462C18.2704 12.9462 18.4227 12.9136 18.5606 12.8483C18.6984 12.783 18.8163 12.6978 18.9143 12.5926C19.0122 12.4874 19.0866 12.3695 19.1374 12.2389C19.1918 12.1083 19.219 11.9759 19.219 11.8417C19.219 11.6567 19.1954 11.4735 19.1482 11.2921C19.1047 11.1071 19.0358 10.9421 18.9415 10.797C18.8508 10.6482 18.7365 10.5285 18.5987 10.4378C18.4645 10.3471 18.3067 10.3018 18.1253 10.3018Z" fill="#171718"/>
<path d="M28.7192 12.4402C28.7192 12.8211 28.6975 13.202 28.6539 13.5829C28.614 13.9601 28.5397 14.3211 28.4308 14.6657C28.3256 15.0103 28.1805 15.3331 27.9955 15.6342C27.8142 15.9317 27.582 16.1892 27.2991 16.4069C27.0197 16.6245 26.6824 16.7968 26.287 16.9238C25.8952 17.0471 25.4345 17.1088 24.9049 17.1088C24.8287 17.1088 24.7453 17.107 24.6546 17.1033C24.5639 17.0997 24.4714 17.0943 24.3771 17.087C24.2864 17.0834 24.1976 17.0761 24.1105 17.0653C24.0234 17.058 23.9473 17.0471 23.882 17.0326V15.6832C24.0162 15.7195 24.1595 15.7485 24.3118 15.7702C24.4678 15.7884 24.6256 15.7974 24.7852 15.7974C25.2749 15.7974 25.6776 15.7376 25.9932 15.6179C26.3088 15.4946 26.5591 15.3241 26.7441 15.1064C26.9291 14.8851 27.0596 14.6221 27.1358 14.3174C27.2156 14.0127 27.2646 13.6772 27.2827 13.3108H27.212C27.1395 13.4414 27.0524 13.5629 26.9508 13.6754C26.8493 13.7878 26.7295 13.8858 26.5917 13.9692C26.4539 14.0526 26.2979 14.1179 26.1238 14.1651C25.9496 14.2122 25.7556 14.2358 25.5415 14.2358C25.1969 14.2358 24.8868 14.1796 24.6111 14.0671C24.3354 13.9547 24.1014 13.7914 23.9092 13.5774C23.7205 13.3634 23.5754 13.1004 23.4739 12.7884C23.3723 12.4765 23.3215 12.1192 23.3215 11.7165C23.3215 11.2849 23.3814 10.8985 23.5011 10.5575C23.6244 10.2166 23.7985 9.92817 24.0234 9.69238C24.2483 9.45297 24.5204 9.26978 24.8396 9.14282C25.1625 9.01586 25.5234 8.95238 25.9224 8.95238C26.3142 8.95238 26.6806 9.02311 27.0216 9.16458C27.3625 9.30243 27.6582 9.51464 27.9085 9.80121C28.1588 10.0878 28.3565 10.4505 28.5016 10.8895C28.6467 11.3284 28.7192 11.8453 28.7192 12.4402ZM25.9551 10.3018C25.8064 10.3018 25.6703 10.329 25.547 10.3834C25.4237 10.4378 25.3166 10.5231 25.226 10.6392C25.1389 10.7516 25.07 10.8967 25.0192 11.0745C24.972 11.2486 24.9485 11.4553 24.9485 11.6948C24.9485 12.0793 25.0301 12.384 25.1933 12.6089C25.3565 12.8338 25.6032 12.9462 25.9333 12.9462C26.1002 12.9462 26.2525 12.9136 26.3904 12.8483C26.5282 12.783 26.6461 12.6978 26.7441 12.5926C26.842 12.4874 26.9164 12.3695 26.9671 12.2389C27.0216 12.1083 27.0488 11.9759 27.0488 11.8417C27.0488 11.6567 27.0252 11.4735 26.978 11.2921C26.9345 11.1071 26.8656 10.9421 26.7713 10.797C26.6806 10.6482 26.5663 10.5285 26.4285 10.4378C26.2942 10.3471 26.1365 10.3018 25.9551 10.3018Z" fill="#171718"/>
</svg>
