<svg width="48" height="48" viewBox="0 0 48 48" fill="none" xmlns="http://www.w3.org/2000/svg">
<path d="M8.54195 18.0004L15.4775 15.4758L18.0004 8.54195C18.0582 8.38311 18.1635 8.2459 18.302 8.14895C18.4405 8.052 18.6054 8 18.7745 8C18.9435 8 19.1085 8.052 19.247 8.14895C19.3855 8.2459 19.4908 8.38311 19.5486 8.54195L22.0732 15.4775L29.0087 18.0004C29.1675 18.0582 29.3047 18.1635 29.4017 18.302C29.4986 18.4405 29.5506 18.6054 29.5506 18.7745C29.5506 18.9435 29.4986 19.1085 29.4017 19.247C29.3047 19.3855 29.1675 19.4908 29.0087 19.5486L22.0715 22.0732L19.5486 29.0087C19.4908 29.1675 19.3855 29.3047 19.247 29.4017C19.1085 29.4986 18.9435 29.5506 18.7745 29.5506C18.6054 29.5506 18.4405 29.4986 18.302 29.4017C18.1635 29.3047 18.0582 29.1675 18.0004 29.0087L15.4758 22.0715L8.54195 19.5486C8.38311 19.4908 8.2459 19.3855 8.14895 19.247C8.052 19.1085 8 18.9435 8 18.7745C8 18.6054 8.052 18.4405 8.14895 18.302C8.2459 18.1635 8.38311 18.0582 8.54195 18.0004Z" stroke="#1332DD" stroke-width="3.39612" stroke-linecap="round" stroke-linejoin="round"/>
<path d="M25.6393 32.4159L30.1933 30.7583L31.8499 26.2054C31.8879 26.1011 31.957 26.011 32.048 25.9473C32.1389 25.8837 32.2472 25.8495 32.3582 25.8495C32.4692 25.8495 32.5775 25.8837 32.6684 25.9473C32.7594 26.011 32.8285 26.1011 32.8665 26.2054L34.5242 30.7593L39.0781 32.4159C39.1824 32.4539 39.2725 32.523 39.3362 32.614C39.3998 32.7049 39.434 32.8132 39.434 32.9242C39.434 33.0352 39.3998 33.1435 39.3362 33.2345C39.2725 33.3254 39.1824 33.3945 39.0781 33.4325L34.5231 35.0902L32.8665 39.6442C32.8285 39.7485 32.7594 39.8385 32.6684 39.9022C32.5775 39.9659 32.4692 40 32.3582 40C32.2472 40 32.1389 39.9659 32.048 39.9022C31.957 39.8385 31.8879 39.7485 31.8499 39.6442L30.1922 35.0891L25.6393 33.4325C25.535 33.3945 25.445 33.3254 25.3813 33.2345C25.3176 33.1435 25.2835 33.0352 25.2835 32.9242C25.2835 32.8132 25.3176 32.7049 25.3813 32.614C25.445 32.523 25.535 32.4539 25.6393 32.4159Z" stroke="#1332DD" stroke-width="2.22994" stroke-linecap="round" stroke-linejoin="round"/>
</svg>
