<svg width="48" height="48" viewBox="0 0 48 48" fill="none" xmlns="http://www.w3.org/2000/svg">
<path d="M14.5574 30.7376C18.1789 30.7376 21.1148 27.8018 21.1148 24.1803C21.1148 20.5587 18.1789 17.6229 14.5574 17.6229C10.9358 17.6229 8 20.5587 8 24.1803C8 27.8018 10.9358 30.7376 14.5574 30.7376Z" fill="#FECF0C" stroke="#171718" stroke-width="1.7" stroke-miterlimit="10"/>
<path d="M21.377 24.4426L19.8033 28.6393V29.4262L22.4262 30.2131L25.3115 30.4753L29.2459 29.6885L31.6066 28.377V22.6065V19.7212L27.1475 17.8852L23.4754 16.0491L20.0656 16.3114L18.7541 16.836L18.2295 18.1475L20.5 20.5L21.5 22.5L21.377 24.4426Z" fill="#804B26"/>
<path d="M18.754 24.7049L26.0983 24.9671C26.5355 25.142 27.4623 25.5442 27.6721 25.754C27.9344 26.0163 27.6721 27.3278 27.4098 28.1147C27.1475 28.9016 26.0983 30.213 25.5738 30.213C25.0493 30.213 20.5902 29.6885 19.2787 29.1639C17.9672 28.6393 17.4425 27.8524 16.918 26.5409C16.4983 25.4917 17.9671 24.8797 18.754 24.7049Z" fill="#804B26"/>
<path d="M31.8689 28.4557C30.2531 29.678 27.0897 30.5541 25.0648 30.5278C23.0871 30.5068 21.1619 30.0714 19.2838 29.4786C18.6176 29.2688 17.9566 28.9645 17.4792 28.4557C16.7396 27.6688 16.1992 25.3396 17.2379 24.5737C17.5789 24.3219 18.0353 24.3324 18.4602 24.3482C20.8261 24.4531 23.192 24.5632 25.5579 24.6682" stroke="#171718" stroke-width="1.4" stroke-miterlimit="10"/>
<path d="M31.5961 19.695C30.101 19.4589 28.7318 18.735 27.4151 17.9848C26.0984 17.2347 24.7869 16.4425 23.3233 16.0438C22.2426 15.7501 21.0203 15.6766 19.9449 16.0124C18.9797 16.3114 17.0002 17.9999 18 18.4999C18.2885 18.9143 19.0426 19.1966 19.4466 19.5009C20.9102 20.592 21.8072 22.4019 21.7705 24.2274" stroke="#171718" stroke-width="1.4" stroke-miterlimit="10"/>
<rect x="31.7" y="15.7" width="6.6" height="16.6" rx="1.3" stroke="#171718" stroke-width="1.4"/>
<circle cx="35.1" cy="28.1" r="1.1" fill="#171718"/>
</svg>
