<svg width="48" height="48" viewBox="0 0 48 48" fill="none" xmlns="http://www.w3.org/2000/svg">
<path fill-rule="evenodd" clip-rule="evenodd" d="M38.294 18.102L30.5134 8.91627C29.715 7.97366 29.3158 7.50236 28.7739 7.25118C28.2319 7 27.6143 7 26.379 7H24.3563H20.543C19.201 7 18.53 7 17.9542 7.29077C17.3783 7.58153 16.9799 8.12145 16.1831 9.2013L9.89983 17.717C9.69606 18.0719 9.47123 18.4273 9.24969 18.7774C8.26355 20.336 7.34287 21.7911 8.63729 22.6461C8.76317 22.7293 8.82611 22.7708 9.20747 22.8854C9.58882 23 9.81374 23 10.2636 23H24.3563H33.5921H37.6157C37.9749 23 38.1544 23 38.4403 22.9375C38.7262 22.875 38.7958 22.8431 38.9351 22.7791C41.1033 21.7837 39.4801 19.3054 38.294 18.102ZM12.1678 19.2062C11.9522 19.5734 11.7145 19.9489 11.5118 20.2692C11.5072 20.2765 11.5027 20.2837 11.4981 20.2909H24.3563H33.5921H36.6268C36.5381 20.1866 36.4492 20.0897 36.3646 20.0038L36.2928 19.931L36.2268 19.853L28.4462 10.6673C28.0187 10.1625 27.8021 9.91015 27.6329 9.74113C27.6298 9.73807 27.6268 9.7351 27.6239 9.73223C27.6198 9.73187 27.6156 9.73151 27.6113 9.73115C27.373 9.71128 27.0404 9.70912 26.379 9.70912H24.3563H20.543C19.8249 9.70912 19.4616 9.71159 19.202 9.73475C19.1974 9.73516 19.193 9.73556 19.1887 9.73597C19.1859 9.73918 19.1829 9.74249 19.1799 9.74591C19.0071 9.94109 18.7894 10.2319 18.3631 10.8098L12.1678 19.2062ZM37.3001 21.3749C37.2999 21.3748 37.2989 21.3711 37.2977 21.3639C37.2996 21.3714 37.3002 21.3749 37.3001 21.3749ZM10.6921 21.7231C10.6901 21.732 10.6887 21.7366 10.6885 21.7367C10.6883 21.7368 10.6893 21.7323 10.6921 21.7231Z" fill="#171718"/>
<path d="M18.8081 9.71762C18.8638 9.64526 18.8917 9.60908 18.9271 9.58348C18.9546 9.56352 18.9854 9.54838 19.018 9.53871C19.0599 9.52631 19.1056 9.52631 19.1969 9.52631H28.2889C28.3788 9.52631 28.4237 9.52631 28.465 9.53835C28.4972 9.54774 28.5276 9.56245 28.5549 9.58186C28.59 9.60676 28.6179 9.64197 28.6736 9.71241L36.5634 19.6785C36.7715 19.9413 36.8756 20.0727 36.8716 20.1835C36.8685 20.2679 36.8302 20.347 36.766 20.4018C36.6816 20.4737 36.514 20.4737 36.1788 20.4737H24.1662H11.5233C11.193 20.4737 11.0279 20.4737 10.9437 20.4026C10.8797 20.3485 10.8411 20.2701 10.8373 20.1863C10.8323 20.0763 10.9331 19.9454 11.1346 19.6837L18.8081 9.71762Z" fill="#00AF6D"/>
<circle cx="23.8596" cy="14.7193" r="3.00752" fill="white" stroke="#171718" stroke-width="1.80451"/>
<path fill-rule="evenodd" clip-rule="evenodd" d="M13.6168 28.993V22.4433L13.614 22.4386H15.3005L15.3173 28.2538L13.6168 28.993ZM16.9813 22.4433H18.9484V28.993L17.2592 28.3006C16.841 28.993 16.9327 28.034 16.9813 26.49C17.0076 25.6571 17.0295 22.9056 16.9813 22.4433ZM20.6321 22.4433H22.3158V31.3322L21.3757 31.7018C21.1793 31.6409 20.6321 30.7567 20.6321 30.6304V22.4433Z" fill="#171718"/>
<path fill-rule="evenodd" clip-rule="evenodd" d="M24.5642 28.5957V22.443L24.5614 22.4386H26.2479L26.2647 27.9014L24.5642 28.5957ZM27.9287 22.443H29.8958V28.5957L28.2065 27.9453C27.7884 28.5957 27.88 27.6949 27.9287 26.2445C27.955 25.462 27.9769 22.8773 27.9287 22.443ZM31.5795 22.443H33.2631V30.7932L32.3231 31.1404C32.1267 31.0832 31.5795 30.2526 31.5795 30.1339V22.443Z" fill="#171718"/>
<circle cx="29.193" cy="33.7115" r="6.59649" fill="#DEFEF4" stroke="#171718" stroke-width="1.68421"/>
<circle cx="18.807" cy="33.7115" r="6.59649" fill="#DEFEF4" stroke="#171718" stroke-width="1.68421"/>
<path d="M19.3827 31.3252L19.3827 31.3253C19.2481 31.4599 19.1725 31.6424 19.1725 31.8327C19.1725 32.0177 19.2439 32.1953 19.3715 32.3287L19.9207 33.0577H15.5247C15.3344 33.0577 15.1518 33.1333 15.0172 33.2679C14.8826 33.4025 14.807 33.585 14.807 33.7754C14.807 33.9657 14.8826 34.1483 15.0172 34.2829C15.1518 34.4175 15.3344 34.4931 15.5247 34.4931H19.833L19.2345 35.0888L19.2345 35.0888L19.2316 35.0918C19.1009 35.2271 19.0286 35.4084 19.0302 35.5966C19.0318 35.7848 19.1073 35.9648 19.2404 36.0978C19.3734 36.2309 19.5535 36.3064 19.7416 36.308C19.9298 36.3097 20.1111 36.2373 20.2465 36.1066L20.2471 36.1059L22.1163 34.2847L22.1163 34.2847L22.1182 34.2828C22.2528 34.1482 22.3284 33.9657 22.3284 33.7754C22.3284 33.5874 22.2546 33.407 22.1231 33.2729L20.4063 31.3345L20.4066 31.3343L20.3975 31.3252C20.2629 31.1907 20.0804 31.1151 19.8901 31.1151C19.6998 31.1151 19.5173 31.1907 19.3827 31.3252Z" fill="#03C17B" stroke="#03C17B" stroke-width="0.421053"/>
<path d="M32.223 29.9221L31.2935 34.5011H32.4969L31.7206 35.9499C31.2623 35.9323 30.7904 35.9707 30.3338 35.9499C30.1131 35.94 29.7296 35.9208 29.5709 35.7541C29.4859 35.6648 29.4666 35.5372 29.4538 35.4206L29.1178 35.7108C27.7936 36.5331 26.48 35.7206 26.5276 34.1774C26.5567 33.2315 26.9937 32.2407 27.8459 31.7777C28.4085 31.4721 29.0482 31.4058 29.6789 31.3899L29.3959 32.78C29.3713 32.8155 29.2356 32.7935 29.1818 32.8008C28.6731 32.8705 28.4151 33.4428 28.3875 33.9044C28.3394 34.712 29.2985 34.734 29.4979 34.0365C29.8581 32.6934 30.0886 31.3148 30.3872 29.9555L30.4125 29.9221H32.2226H32.223Z" fill="#171718"/>
</svg>
