<svg width="48" height="48" viewBox="0 0 48 48" fill="none" xmlns="http://www.w3.org/2000/svg">
<g clip-path="url(#clip0_23_4)">
<path d="M28.6027 12.758L21.589 10.4201L17.9361 11.8813L14.137 16.411L12.0913 24.3014L14.5753 35.1142L20.4201 37.4521L26.7032 36.5753L31.6712 32.1918L33.1324 22.2557L28.6027 12.758Z" fill="#FF88A4"/>
<path d="M22.1574 39.2566C19.8478 39.2566 17.7947 38.6578 15.9983 37.4602C14.2019 36.2341 12.7904 34.4947 11.7639 32.2421C10.7374 29.9609 10.2241 27.2235 10.2241 24.0299C10.2241 20.8363 10.7374 18.1131 11.7639 15.8605C12.7904 13.5793 14.2019 11.84 15.9983 10.6424C17.7947 9.41623 19.8478 8.80317 22.1574 8.80317C24.4671 8.80317 26.5202 9.41623 28.3166 10.6424C30.113 11.84 31.5244 13.5793 32.551 15.8605C33.606 18.1131 34.1335 20.8363 34.1335 24.0299C34.1335 27.2235 33.606 29.9609 32.551 32.2421C31.5244 34.4947 30.113 36.2341 28.3166 37.4602C26.5202 38.6578 24.4671 39.2566 22.1574 39.2566ZM22.1574 36.4337C23.9253 36.4337 25.4651 35.9632 26.7768 35.0222C28.0884 34.0527 29.115 32.6555 29.8563 30.8306C30.5977 28.9772 30.9684 26.7103 30.9684 24.0299C30.9684 21.3495 30.5977 19.0969 29.8563 17.272C29.115 15.4185 28.0884 14.0213 26.7768 13.0803C25.4651 12.1108 23.9253 11.6261 22.1574 11.6261C20.4466 11.6261 18.921 12.1108 17.5809 13.0803C16.2407 14.0213 15.1999 15.4185 14.4585 17.272C13.7172 19.0969 13.3465 21.3495 13.3465 24.0299C13.3465 26.7103 13.7172 28.9772 14.4585 30.8306C15.1999 32.6555 16.2407 34.0527 17.5809 35.0222C18.921 35.9632 20.4466 36.4337 22.1574 36.4337Z" fill="#171718"/>
<path d="M25.8265 24.5936C25.8265 26.5932 25.3288 28.3474 24.5857 29.5634C23.8303 30.7995 22.9437 31.3151 22.1735 31.3151C21.4033 31.3151 20.5167 30.7995 19.7613 29.5634C19.0182 28.3474 18.5205 26.5932 18.5205 24.5936C18.5205 22.594 19.0182 20.8398 19.7613 19.6238C20.5167 18.3877 21.4033 17.8721 22.1735 17.8721C22.9437 17.8721 23.8303 18.3877 24.5857 19.6238C25.3288 20.8398 25.8265 22.594 25.8265 24.5936Z" fill="#FCF0F4" stroke="#171718" stroke-width="2.3379"/>
<path d="M38.1005 16.2008V20.7305H35.1781V16.2008L34.3014 16.2008V14.009H35.3242V12.2556C35.9087 9.68388 38.4901 9.52802 39.7078 9.77155V11.8172C38.0712 11.8172 38.1005 12.1735 38.1005 12.5478V14.009H40V16.2008H38.1005Z" fill="black"/>
<path d="M35.032 20.7305H35.1781M35.1781 20.7305H38.1005V16.2008H40V14.009H38.1005V12.5478C38.1005 12.1735 38.0712 11.8172 39.7078 11.8172C39.7078 10.2976 39.7078 9.82026 39.7078 9.77155C38.4901 9.52802 35.9087 9.68388 35.3242 12.2556C35.3242 13.1907 35.3242 13.8142 35.3242 14.009H34.3014V16.2008L35.1781 16.2008V20.7305Z" stroke="black" stroke-width="0.292237"/>
</g>
<defs>
<clipPath id="clip0_23_4">
<rect width="48" height="48" fill="white"/>
</clipPath>
</defs>
</svg>
