<svg width="48" height="48" viewBox="0 0 48 48" fill="none" xmlns="http://www.w3.org/2000/svg">
<path d="M23.3886 37.3173L22.7647 36.6933L22.1408 37.3173L20.8235 38.6345L19.5063 37.3173L18.8824 36.6933L18.2584 37.3173L16.9412 38.6345L15.6239 37.3173L15 36.6933L14.3761 37.3173L13.0588 38.6345L11.7416 37.3173L11.0872 36.6629L10.4648 37.3476L10.2061 37.6321L9.88265 12.7232C9.91056 12.2386 10.0927 11.5047 10.5277 10.9115C10.941 10.3479 11.597 9.88235 12.7059 9.88235H30.5714C30.9834 10.0188 31.5574 10.2851 32.0287 10.6632C32.5501 11.0816 32.8235 11.5312 32.8235 12V24.7059H28.4118H27.5294V25.5882V37.9139L26.6556 37.2418L26.0704 36.7916L25.5241 37.2883L24.3903 38.319L23.3886 37.3173Z" fill="#EDF0F7" stroke="#171718" stroke-width="1.76471"/>
<path d="M19.6615 32.1118L19.7129 32.1179H19.7646H24.8822H32.6469H33.5293V31.2355V13.0591C33.5293 11.7517 32.9178 10.8822 32.1112 10.3939C31.3777 9.94992 30.5401 9.85033 29.9728 9.88259H16.7646H15.8822V10.7649V27.1767C15.8822 28.8764 16.4636 30.09 17.2635 30.8955C18.0404 31.6779 18.98 32.0317 19.6615 32.1118Z" fill="#BDC7FF" stroke="#171718" stroke-width="1.76471"/>
<path d="M37.0647 25.9463H28.5941C26.6176 25.9463 26.2411 30.0639 26.3 32.1228H28.2411H36.3588C37.1235 31.8875 39.0002 31.3767 39.0002 29.1178C39.0002 26.859 37.5941 25.8875 37.0647 25.9463Z" fill="#EDF0F7" stroke="#171718" stroke-width="1.76471" stroke-linejoin="round"/>
<rect x="18.1763" y="12.8826" width="8.47059" height="2.11765" rx="1.05882" fill="#171718"/>
<rect x="18.1763" y="17.1179" width="13.0588" height="2.11765" rx="1.05882" fill="#171718"/>
<rect x="18.1763" y="21.0002" width="8.82353" height="2.11765" rx="1.05882" fill="#171718"/>
<rect x="18.1763" y="25.2356" width="6.70588" height="2.11765" rx="1.05882" fill="#171718"/>
<rect x="28.4119" y="21.0002" width="2.47059" height="2.11765" rx="1.05882" fill="#171718"/>
<rect x="28.4119" y="12.8826" width="2.47059" height="2.11765" rx="1.05882" fill="#171718"/>
</svg>
