<svg width="48" height="48" viewBox="0 0 48 48" fill="none" xmlns="http://www.w3.org/2000/svg">
<mask id="path-1-inside-1_23_2" fill="white">
<path d="M28.9804 8.72253C28.6517 8.46508 28.4874 8.33636 28.3098 8.29806C28.1535 8.26436 27.9906 8.27889 27.8428 8.33975C27.6748 8.40888 27.5359 8.56467 27.258 8.87626L12.02 25.9634C11.4249 26.6308 11.1273 26.9644 11.1164 27.2479C11.1069 27.4942 11.2129 27.7308 11.403 27.8876C11.6219 28.0682 12.069 28.0682 12.9631 28.0682H23.144C23.7148 28.0682 24.0002 28.0682 24.1917 28.1871C24.3593 28.2913 24.4819 28.4545 24.5353 28.6445C24.5962 28.8615 24.5167 29.1356 24.3577 29.6838L21.9493 37.987C21.8634 38.2832 21.8204 38.4313 21.831 38.5732C21.8403 38.6986 21.8795 38.82 21.9452 38.9272C22.0195 39.0486 22.1409 39.1437 22.3836 39.3338L22.4734 39.4041C22.8348 39.6872 23.0155 39.8288 23.207 39.8638C23.3755 39.8946 23.5494 39.8699 23.7025 39.7932C23.8767 39.7061 24.0107 39.5198 24.2787 39.1471L36.3858 22.3084C36.8505 21.662 37.0829 21.3388 37.0735 21.0693C37.0653 20.8346 36.9531 20.6157 36.7673 20.472C36.5539 20.307 36.1559 20.307 35.3598 20.307H26.7989C26.1427 20.307 25.8146 20.307 25.6128 20.1688C25.4365 20.048 25.3167 19.861 25.2807 19.6503C25.2395 19.4092 25.3766 19.1112 25.651 18.5151L29.4281 10.3076C29.5773 9.9835 29.6519 9.82146 29.6567 9.66091C29.6609 9.51927 29.627 9.3791 29.5585 9.25508C29.4807 9.11451 29.3403 9.00451 29.0595 8.78451L28.9804 8.72253Z"/>
</mask>
<path d="M28.9804 8.72253C28.6517 8.46508 28.4874 8.33636 28.3098 8.29806C28.1535 8.26436 27.9906 8.27889 27.8428 8.33975C27.6748 8.40888 27.5359 8.56467 27.258 8.87626L12.02 25.9634C11.4249 26.6308 11.1273 26.9644 11.1164 27.2479C11.1069 27.4942 11.2129 27.7308 11.403 27.8876C11.6219 28.0682 12.069 28.0682 12.9631 28.0682H23.144C23.7148 28.0682 24.0002 28.0682 24.1917 28.1871C24.3593 28.2913 24.4819 28.4545 24.5353 28.6445C24.5962 28.8615 24.5167 29.1356 24.3577 29.6838L21.9493 37.987C21.8634 38.2832 21.8204 38.4313 21.831 38.5732C21.8403 38.6986 21.8795 38.82 21.9452 38.9272C22.0195 39.0486 22.1409 39.1437 22.3836 39.3338L22.4734 39.4041C22.8348 39.6872 23.0155 39.8288 23.207 39.8638C23.3755 39.8946 23.5494 39.8699 23.7025 39.7932C23.8767 39.7061 24.0107 39.5198 24.2787 39.1471L36.3858 22.3084C36.8505 21.662 37.0829 21.3388 37.0735 21.0693C37.0653 20.8346 36.9531 20.6157 36.7673 20.472C36.5539 20.307 36.1559 20.307 35.3598 20.307H26.7989C26.1427 20.307 25.8146 20.307 25.6128 20.1688C25.4365 20.048 25.3167 19.861 25.2807 19.6503C25.2395 19.4092 25.3766 19.1112 25.651 18.5151L29.4281 10.3076C29.5773 9.9835 29.6519 9.82146 29.6567 9.66091C29.6609 9.51927 29.627 9.3791 29.5585 9.25508C29.4807 9.11451 29.3403 9.00451 29.0595 8.78451L28.9804 8.72253Z" fill="#F4A502"/>
<path d="M29.4281 10.3076L27.6345 9.48212L29.4281 10.3076ZM29.6567 9.66091L27.6831 9.60162L29.6567 9.66091ZM29.0595 8.78451L27.8419 10.3388L29.0595 8.78451ZM29.5585 9.25508L27.8305 10.2104L29.5585 9.25508ZM26.7989 20.307V18.3326V20.307ZM25.6128 20.1688L26.7287 18.5399L25.6128 20.1688ZM25.2807 19.6503L23.3344 19.983L25.2807 19.6503ZM36.3858 22.3084L37.9889 23.461L36.3858 22.3084ZM37.0735 21.0693L35.1002 21.1381L37.0735 21.0693ZM35.3598 20.307V22.2815V20.307ZM36.7673 20.472L37.9752 18.9101L36.7673 20.472ZM22.4734 39.4041L23.691 37.8498L22.4734 39.4041ZM23.207 39.8638L23.5623 37.9216L23.207 39.8638ZM24.2787 39.1471L22.6756 37.9944L24.2787 39.1471ZM23.7025 39.7932L24.5859 41.5591L23.7025 39.7932ZM21.9493 37.987L23.8456 38.5371L21.9493 37.987ZM21.831 38.5732L19.862 38.7197L21.831 38.5732ZM22.3836 39.3338L21.166 40.8882L22.3836 39.3338ZM21.9452 38.9272L20.2616 39.9588L21.9452 38.9272ZM23.144 28.0682V30.0426V28.0682ZM24.1917 28.1871L25.2337 26.51L24.1917 28.1871ZM24.3577 29.6838L22.4614 29.1338L24.3577 29.6838ZM24.5353 28.6445L26.4363 28.111L24.5353 28.6445ZM11.1164 27.2479L9.1434 27.1719L11.1164 27.2479ZM12.9631 28.0682L12.9631 26.0937L12.9631 28.0682ZM11.403 27.8876L10.1467 29.4108L11.403 27.8876ZM27.258 8.87626L28.7316 10.1904L27.258 8.87626ZM27.8428 8.33975L27.0913 6.51388L27.8428 8.33975ZM28.9804 8.72253L30.198 7.1682L28.9804 8.72253ZM28.3098 8.29806L28.726 6.36797L28.3098 8.29806ZM25.7844 7.56212L10.5464 24.6493L13.4936 27.2776L28.7316 10.1904L25.7844 7.56212ZM12.9631 30.0426H23.144V26.0937H12.9631L12.9631 30.0426ZM22.4614 29.1338L20.053 37.437L23.8456 38.5371L26.254 30.2339L22.4614 29.1338ZM21.166 40.8882L21.2558 40.9585L23.691 37.8498L23.6012 37.7795L21.166 40.8882ZM25.8818 40.2997L37.9889 23.461L34.7827 21.1557L22.6756 37.9944L25.8818 40.2997ZM35.3598 18.3326H26.7989V22.2815H35.3598V18.3326ZM27.4446 19.3405L31.2218 11.133L27.6345 9.48212L23.8573 17.6896L27.4446 19.3405ZM30.2771 7.23018L30.198 7.1682L27.7628 10.2769L27.8419 10.3388L30.2771 7.23018ZM31.2218 11.133C31.2845 10.9968 31.3765 10.7998 31.4454 10.6159C31.5231 10.4086 31.6188 10.1007 31.6303 9.7202L27.6831 9.60162C27.6863 9.4948 27.7011 9.40395 27.7172 9.33521C27.7321 9.27131 27.7468 9.23226 27.7477 9.22995C27.7481 9.22873 27.7421 9.24474 27.721 9.29243C27.6997 9.3403 27.6735 9.39743 27.6345 9.48212L31.2218 11.133ZM27.8419 10.3388C27.9153 10.3963 27.9647 10.4351 28.0055 10.468C28.0461 10.5008 28.0588 10.5122 28.0579 10.5114C28.056 10.5097 28.0251 10.4817 27.9826 10.4317C27.9369 10.3779 27.8822 10.3039 27.8305 10.2104L31.2864 8.29982C31.1023 7.96668 30.8763 7.7366 30.7124 7.58781C30.567 7.45576 30.3951 7.32266 30.2771 7.23018L27.8419 10.3388ZM31.6303 9.7202C31.6452 9.22447 31.5264 8.73386 31.2864 8.29982L27.8305 10.2104C27.7276 10.0243 27.6767 9.81407 27.6831 9.60162L31.6303 9.7202ZM26.7989 18.3326C26.6298 18.3326 26.5047 18.3325 26.3989 18.3307C26.2922 18.3289 26.2389 18.3256 26.2149 18.3235C26.1896 18.3211 26.2374 18.3233 26.3236 18.3474C26.4187 18.3741 26.5671 18.4292 26.7287 18.5399L24.4969 21.7977C25.0162 22.1534 25.5551 22.2286 25.8559 22.256C26.1562 22.2834 26.509 22.2815 26.7989 22.2815V18.3326ZM23.8573 17.6896C23.7362 17.9529 23.5869 18.2726 23.4862 18.5569C23.3854 18.8416 23.2284 19.3625 23.3344 19.983L27.2269 19.3176C27.2599 19.5106 27.2479 19.6685 27.2324 19.7661C27.2183 19.8544 27.2002 19.8988 27.2087 19.8748C27.2167 19.8522 27.2361 19.8024 27.2791 19.7047C27.3217 19.6078 27.3739 19.4941 27.4446 19.3405L23.8573 17.6896ZM26.7287 18.5399C26.9931 18.7211 27.1729 19.0016 27.2269 19.3176L23.3344 19.983C23.4605 20.7203 23.8799 21.375 24.4969 21.7977L26.7287 18.5399ZM37.9889 23.461C38.1983 23.1698 38.4371 22.8411 38.6088 22.5495C38.7672 22.2805 39.0719 21.7219 39.0468 21.0004L35.1002 21.1381C35.092 20.9009 35.1407 20.7212 35.1741 20.6268C35.2043 20.5414 35.2289 20.5068 35.2061 20.5456C35.185 20.5814 35.1446 20.6446 35.0683 20.7546C34.9928 20.8635 34.9018 20.9901 34.7827 21.1557L37.9889 23.461ZM35.3598 22.2815C35.5638 22.2815 35.7198 22.2815 35.8522 22.2838C35.9861 22.286 36.061 22.2901 36.1024 22.2939C36.1472 22.298 36.1048 22.2978 36.0178 22.2725C35.9216 22.2445 35.7472 22.1791 35.5595 22.034L37.9752 18.9101C37.404 18.4684 36.7727 18.3898 36.4618 18.3614C36.1248 18.3306 35.7186 18.3326 35.3598 18.3326V22.2815ZM39.0468 21.0004C39.0181 20.179 38.6254 19.4129 37.9752 18.9101L35.5595 22.034C35.2808 21.8185 35.1125 21.4902 35.1002 21.1381L39.0468 21.0004ZM21.2558 40.9585C21.4103 41.0795 21.6204 41.2461 21.8191 41.3767C22.0364 41.5197 22.3856 41.7208 22.8518 41.806L23.5623 37.9216C23.6973 37.9463 23.8061 37.986 23.8827 38.021C23.9192 38.0377 23.9465 38.0524 23.9634 38.062C23.972 38.0669 23.9784 38.0708 23.9825 38.0733C23.9846 38.0746 23.9861 38.0756 23.9871 38.0762C23.9881 38.0769 23.9887 38.0772 23.9887 38.0772C23.9887 38.0772 23.9882 38.0769 23.9873 38.0763C23.9863 38.0756 23.9849 38.0747 23.9831 38.0734C23.9793 38.0708 23.974 38.067 23.9668 38.0619C23.9522 38.0514 23.9326 38.0369 23.9062 38.0169C23.8506 37.9747 23.785 37.9234 23.691 37.8498L21.2558 40.9585ZM22.6756 37.9944C22.6059 38.0913 22.5572 38.1589 22.5156 38.215C22.4958 38.2415 22.481 38.2609 22.4699 38.2751C22.4645 38.282 22.4604 38.2871 22.4575 38.2907C22.4561 38.2924 22.455 38.2937 22.4543 38.2946C22.4536 38.2955 22.4532 38.2959 22.4532 38.2959C22.4532 38.2959 22.4536 38.2954 22.4544 38.2945C22.4552 38.2936 22.4564 38.2922 22.458 38.2904C22.4613 38.2869 22.4664 38.2813 22.4732 38.2743C22.4868 38.2602 22.5089 38.2385 22.5393 38.2123C22.6031 38.1574 22.6965 38.0888 22.8192 38.0274L24.5859 41.5591C25.0097 41.3471 25.2888 41.0565 25.4576 40.8586C25.612 40.6776 25.7672 40.459 25.8818 40.2997L22.6756 37.9944ZM22.8518 41.806C23.4413 41.9139 24.0499 41.8272 24.5859 41.5591L22.8192 38.0274C23.0489 37.9125 23.3097 37.8754 23.5623 37.9216L22.8518 41.806ZM20.053 37.437C20.0109 37.582 19.8187 38.1376 19.862 38.7197L23.8 38.4267C23.8069 38.519 23.8037 38.5992 23.7974 38.6617C23.7915 38.7201 23.7834 38.7572 23.7825 38.7615C23.7818 38.7645 23.7846 38.7516 23.7963 38.709C23.8082 38.6661 23.8231 38.6146 23.8456 38.5371L20.053 37.437ZM23.6012 37.7795C23.5377 37.7297 23.4955 37.6966 23.4608 37.6687C23.4264 37.641 23.4166 37.6322 23.4189 37.6342C23.4221 37.6371 23.4504 37.6625 23.4893 37.7065C23.531 37.7535 23.5804 37.8168 23.6287 37.8957L20.2616 39.9588C20.5666 40.4565 21.0472 40.795 21.166 40.8882L23.6012 37.7795ZM19.862 38.7197C19.8946 39.1587 20.0316 39.5834 20.2616 39.9588L23.6287 37.8957C23.7273 38.0565 23.786 38.2386 23.8 38.4267L19.862 38.7197ZM23.144 30.0426C23.2916 30.0426 23.3983 30.0427 23.4883 30.0442C23.5787 30.0457 23.62 30.0484 23.6346 30.0497C23.6497 30.051 23.6008 30.0481 23.5178 30.0259C23.4266 30.0015 23.2944 29.9541 23.1497 29.8642L25.2337 26.51C24.7529 26.2113 24.2731 26.142 23.9856 26.1164C23.7106 26.0918 23.3927 26.0937 23.144 26.0937V30.0426ZM26.254 30.2339C26.3232 29.995 26.4136 29.6902 26.4666 29.4193C26.5221 29.136 26.5892 28.6559 26.4363 28.111L22.6343 29.1781C22.5882 29.014 22.5796 28.8738 22.5816 28.7795C22.5834 28.6935 22.5942 28.6458 22.5912 28.6606C22.5884 28.6751 22.5795 28.7154 22.5557 28.8027C22.5321 28.8895 22.5025 28.992 22.4614 29.1338L26.254 30.2339ZM23.1497 29.8642C22.8982 29.7079 22.7143 29.4632 22.6343 29.1781L26.4363 28.111C26.2496 27.4458 25.8205 26.8746 25.2337 26.51L23.1497 29.8642ZM10.5464 24.6493C10.275 24.9536 9.97952 25.2821 9.76372 25.5728C9.57724 25.824 9.17342 26.3934 9.1434 27.1719L13.0894 27.324C13.0791 27.59 13.0038 27.7807 12.9621 27.8684C12.9242 27.9483 12.8989 27.9745 12.9345 27.9265C12.9673 27.8824 13.0244 27.8114 13.1244 27.6955C13.2233 27.5808 13.3416 27.448 13.4936 27.2776L10.5464 24.6493ZM12.9631 26.0937C12.7347 26.0937 12.5569 26.0936 12.4055 26.0911C12.2524 26.0886 12.1614 26.084 12.1067 26.0791C12.0472 26.0737 12.0835 26.0723 12.1685 26.0972C12.2616 26.1244 12.4541 26.1951 12.6594 26.3645L10.1467 29.4108C10.7476 29.9065 11.4414 29.9841 11.753 30.0121C12.1136 30.0445 12.5553 30.0426 12.9631 30.0426L12.9631 26.0937ZM9.1434 27.1719C9.11017 28.0338 9.48122 28.8619 10.1467 29.4108L12.6594 26.3645C12.9446 26.5997 13.1036 26.9546 13.0894 27.324L9.1434 27.1719ZM28.7316 10.1904C28.804 10.1092 28.8539 10.0534 28.8962 10.0073C28.9163 9.98552 28.9309 9.96996 28.9417 9.9588C28.9525 9.94763 28.957 9.94335 28.9564 9.94385C28.9559 9.94438 28.9479 9.95204 28.9334 9.9643C28.9188 9.9767 28.8958 9.99525 28.8651 10.0171C28.8007 10.063 28.7097 10.1181 28.5942 10.1656L27.0913 6.51388C26.6871 6.68022 26.4044 6.92034 26.2267 7.09032C26.0664 7.24366 25.9023 7.42984 25.7844 7.56212L28.7316 10.1904ZM30.198 7.1682C30.0584 7.0589 29.864 6.90473 29.6791 6.78219C29.4741 6.64637 29.1533 6.46011 28.726 6.36797L27.8936 10.2282C27.7715 10.2018 27.6722 10.1637 27.6007 10.13C27.5666 10.1139 27.5407 10.0997 27.5241 10.0901C27.5077 10.0806 27.4985 10.0745 27.4978 10.074C27.4972 10.0736 27.5024 10.077 27.515 10.0861C27.5276 10.0952 27.5447 10.1079 27.5683 10.1258C27.6182 10.1636 27.6771 10.2098 27.7628 10.2769L30.198 7.1682ZM28.5942 10.1656C28.3724 10.2569 28.1281 10.2787 27.8936 10.2282L28.726 6.36797C28.1789 6.24999 27.6089 6.30087 27.0913 6.51388L28.5942 10.1656Z" fill="#171718" mask="url(#path-1-inside-1_23_2)"/>
</svg>
