<svg width="48" height="48" viewBox="0 0 48 48" fill="none" xmlns="http://www.w3.org/2000/svg">
<path d="M12.2198 16.552H35.7802V37.6509C35.7802 38.622 34.993 39.4092 34.022 39.4092H13.978C13.007 39.4092 12.2198 38.622 12.2198 37.6509V16.552Z" fill="#FF2740" stroke="#171718" stroke-width="2.10989"/>
<rect x="28.707" y="9.48078" width="5.9471" height="7.88488" rx="1.05495" transform="rotate(37.9955 28.707 9.48078)" fill="#02AB34" stroke="#171718" stroke-width="2.10989"/>
<rect x="14.738" y="13.2318" width="5.9471" height="7.88488" rx="1.05495" transform="rotate(-33.7544 14.738 13.2318)" fill="#02AB34" stroke="#171718" stroke-width="2.10989"/>
<rect x="9.05495" y="16.552" width="29.8901" height="7.73626" rx="1.05495" fill="#FF2740" stroke="#171718" stroke-width="2.10989"/>
<rect x="23.2967" y="17.0795" width="5.62637" height="22.1538" fill="#02AB34" stroke="#171718" stroke-width="1.75824"/>
<line x1="14.1538" y1="16.552" x2="14.1538" y2="24.2883" stroke="#171718" stroke-width="1.75824"/>
<rect x="10.1099" y="17.607" width="3.16484" height="5.62637" fill="#C40813"/>
<path d="M12.9074 25.3373L16 25.3373V38.3744H13.4074C13.1312 38.3744 12.9074 38.1506 12.9074 37.8744L12.9074 25.3373Z" fill="#C40813"/>
<line x1="16.2637" y1="24.9916" x2="16.2637" y2="39.0575" stroke="#171718" stroke-width="1.75824"/>
</svg>
