<svg width="98" height="98" viewBox="0 0 98 98" fill="none" xmlns="http://www.w3.org/2000/svg">
<path d="M48.58 97.16C75.41 97.16 97.16 75.41 97.16 48.58C97.16 21.75 75.41 0 48.58 0C21.75 0 0 21.75 0 48.58C0 75.41 21.75 97.16 48.58 97.16Z" fill="#0BF9E1"/>
<path d="M77.0798 21.2003C77.0798 18.2503 76.8198 15.3602 76.3098 12.5502C76.2098 11.9702 76.0898 11.4003 75.9698 10.8303C75.9498 10.7303 75.9298 10.6402 75.9098 10.5402C75.7798 9.98022 75.6498 9.42024 75.5098 8.87024C75.4898 8.80024 75.4698 8.73023 75.4498 8.67023C75.3898 8.44023 75.3198 8.21023 75.2598 7.99023C67.5998 2.95023 58.4398 0.0102539 48.5898 0.0102539C35.5998 0.0102539 23.7998 5.11023 15.0798 13.4202C14.6998 13.7902 14.3198 14.1602 13.9498 14.5402C13.8598 14.6302 13.7798 14.7102 13.6898 14.8002C13.3198 15.1802 12.9598 15.5702 12.5998 15.9602C12.5798 15.9802 12.5697 16.0003 12.5497 16.0203C12.2097 16.4003 11.8698 16.7902 11.5398 17.1802C11.4698 17.2602 11.3998 17.3502 11.3298 17.4302C10.9798 17.8402 10.6498 18.2602 10.3098 18.6802C10.2898 18.7102 10.2597 18.7403 10.2397 18.7703C9.91975 19.1803 9.60975 19.5903 9.30975 20.0103C9.25975 20.0803 9.20979 20.1502 9.15979 20.2202C8.83979 20.6702 8.51978 21.1203 8.20978 21.5803C8.18978 21.6103 8.16978 21.6402 8.14978 21.6702C7.84978 22.1202 7.55979 22.5702 7.27979 23.0302C7.24978 23.0802 7.21976 23.1202 7.18976 23.1702C6.88976 23.6602 6.59976 24.1503 6.31976 24.6403C6.30976 24.6603 6.29979 24.6802 6.27979 24.7102C5.99978 25.2102 5.71978 25.7202 5.45978 26.2302C5.45978 26.2302 5.45977 26.2503 5.44977 26.2603C5.17977 26.7903 4.90979 27.3202 4.65979 27.8502C4.65979 27.8602 4.64977 27.8803 4.63977 27.8903C4.12977 28.9703 3.65974 30.0702 3.22974 31.1902C3.22974 31.1902 3.22974 31.1903 3.22974 31.2003C1.14974 36.6003 0.00976562 42.4702 0.00976562 48.6102C0.00976562 53.1902 0.639773 57.6203 1.82977 61.8203C9.48977 66.8603 18.6598 69.8002 28.5098 69.8002C55.3398 69.8002 77.0898 48.0502 77.0898 21.2202L77.0798 21.2003Z" fill="#0BF9E1"/>
<path d="M96.39 39.93C96.29 39.36 96.1699 38.79 96.0499 38.22C96.0299 38.12 96.0099 38.03 95.9899 37.93C95.8599 37.37 95.73 36.81 95.59 36.26C95.57 36.19 95.55 36.12 95.53 36.05C95.39 35.52 95.24 35 95.08 34.48C95.06 34.42 95.05 34.37 95.03 34.31C94.86 33.76 94.6799 33.21 94.4899 32.67C94.4599 32.59 94.43 32.5 94.4 32.42C94.01 31.32 93.5799 30.23 93.1199 29.17C93.0899 29.1 93.06 29.04 93.03 28.97C92.79 28.43 92.55 27.9 92.29 27.37C92.29 27.36 92.28 27.35 92.27 27.34C92.01 26.8 91.74 26.28 91.46 25.75C91.45 25.72 91.4299 25.7 91.4199 25.67C91.1399 25.14 90.85 24.62 90.54 24.11C90.52 24.08 90.4999 24.05 90.4899 24.02C89.8799 22.98 89.2299 21.97 88.5499 20.98C88.5299 20.96 88.5199 20.93 88.4999 20.91C86.7399 18.38 84.7499 16.03 82.5599 13.88C90.9899 25.2 98.42 57.75 70.9 77.58C47.35 94.56 17.72 82.69 10.7 79.01C19.6 90.09 33.26 97.18 48.58 97.18C75.41 97.18 97.16 75.43 97.16 48.6C97.16 45.65 96.9 42.76 96.39 39.95V39.93Z" fill="#0BF9E1"/>
<path d="M81.4501 13.72C81.1401 13.47 80.7801 13.51 80.4601 13.76C80.3501 13.85 80.2401 13.94 80.1201 14.03C80.0501 14.08 79.9701 14.15 79.8801 14.11C79.5101 13.94 79.0701 13.98 78.7101 13.8C78.0201 13.47 77.2701 13.36 76.5401 13.18C76.1901 13.1 75.8501 12.98 75.5201 12.84C75.1701 12.69 74.8401 12.46 74.4401 12.41C73.8801 12.34 73.3201 12.28 72.9001 12.3C72.4301 12.3 72.1101 12.3 71.7901 12.3C71.6601 12.3 71.5101 12.28 71.4101 12.38C71.0801 12.73 70.6401 12.66 70.2401 12.74C70.1301 12.76 70.0101 12.74 69.9101 12.82C69.3201 13.29 68.7101 13.72 68.2301 14.3C68.1801 14.37 68.1101 14.42 68.0401 14.48C67.6801 14.79 67.3101 15.1 67.0401 15.5C66.9301 15.66 66.7901 15.78 66.6301 15.89C66.3101 16.11 65.9801 16.33 65.6101 16.46C65.2901 16.57 65.0701 16.85 64.7601 16.96C64.0501 17.22 64.0801 17.2 64.1201 18.06C64.1301 18.26 64.2201 18.45 64.2701 18.65C64.3001 18.78 64.3501 18.9 64.3701 19.03C64.4401 19.4 64.6701 19.62 65.0401 19.64C65.3401 19.66 65.6201 19.59 65.8601 19.4C65.9601 19.32 66.0601 19.23 66.1701 19.16C66.3101 19.06 66.4401 19.05 66.6001 19.16C66.9901 19.45 67.2401 19.86 67.5401 20.23C67.6701 20.39 67.6201 20.56 67.4401 20.67C67.3201 20.75 67.1901 20.82 67.0801 20.91C66.9901 20.98 66.9901 21.09 67.0201 21.19C67.0501 21.3 67.1401 21.37 67.2501 21.35C67.6401 21.27 68.0701 21.28 68.4201 21.04C68.5901 20.92 68.7601 20.82 68.9801 20.83C69.2001 20.84 69.2901 20.7 69.3401 20.53C69.4201 20.25 69.5201 19.98 69.5101 19.68C69.5101 19.47 69.5801 19.32 69.8001 19.26C69.9001 19.23 69.9901 19.18 70.0701 19.12C70.5201 18.8 70.5401 18.49 70.1501 18.12C70.1001 18.07 70.0401 18.02 69.9901 17.98C69.5501 17.61 69.6001 17.11 70.1001 16.83C70.2301 16.76 70.3601 16.69 70.4801 16.62C70.8401 16.42 71.1601 16.19 71.3301 15.78C71.4301 15.53 71.6601 15.37 71.9401 15.36C72.1301 15.36 72.3201 15.36 72.5101 15.37C72.5901 15.37 72.6601 15.39 72.7001 15.46C72.7501 15.57 72.6601 15.61 72.5901 15.67C72.3001 15.91 72.0501 16.19 71.7101 16.37C71.3801 16.54 71.1301 16.79 71.2001 17.24C71.2901 17.87 71.5201 18.38 72.2001 18.55C72.2301 18.55 72.2601 18.56 72.2801 18.57C72.5401 18.68 72.6901 18.9 72.6701 19.14C72.6401 19.46 72.5201 19.64 72.2001 19.68C71.7801 19.73 71.5901 19.97 71.5201 20.35C71.5001 20.45 71.4801 20.55 71.4601 20.65C71.3301 21.21 71.0101 21.51 70.5001 21.45C70.3601 21.43 70.2101 21.48 70.0701 21.49C69.5701 21.53 69.1301 21.78 68.6601 21.91C68.5301 21.95 68.4201 22 68.3101 21.86C68.0301 21.48 67.6901 21.48 67.3201 21.7C67.1801 21.78 67.0401 21.81 66.8701 21.73C66.4901 21.54 66.3801 21.38 66.5201 20.97C66.6101 20.69 66.6001 20.43 66.5701 20.16C66.5501 20.01 66.4601 19.89 66.2801 19.9C66.0001 19.92 65.6501 20.23 65.5501 20.51C65.4301 20.85 65.4201 21.18 65.4601 21.53C65.4901 21.77 65.4001 21.92 65.1801 22.01C64.9701 22.1 64.7601 22.22 64.5501 22.3C64.2101 22.42 63.9101 22.62 63.7201 22.91C63.4701 23.3 63.0701 23.47 62.7101 23.7C62.5301 23.81 62.3701 23.9 62.2901 24.11C62.1701 24.44 61.7901 24.43 61.5601 24.61C61.4301 24.71 61.2901 24.61 61.1501 24.57C60.9501 24.51 60.7201 24.48 60.6001 24.69C60.4201 25.01 60.1501 25.07 59.8301 25.06C59.6301 25.06 59.4201 25.08 59.2301 25.15C59.1501 25.18 59.0701 25.22 59.0601 25.32C59.0601 25.48 59.3001 25.81 59.4701 25.82C60.0601 25.86 60.3501 26.28 60.6501 26.69C60.8401 26.95 60.9001 27.24 60.7701 27.55C60.7101 27.7 60.6801 27.85 60.6601 28.01C60.6101 28.39 60.5301 28.45 60.1601 28.44C60.0601 28.44 59.9601 28.44 59.8601 28.43C59.0901 28.31 58.3101 28.33 57.5301 28.27C57.4401 28.27 57.3501 28.27 57.2801 28.32C56.9901 28.52 56.5801 28.63 56.7601 29.15C56.8301 29.34 56.6601 29.58 56.7201 29.79C56.8001 30.05 56.7201 30.27 56.6501 30.51C56.5801 30.72 56.4501 30.9 56.3601 31.09C56.3101 31.19 56.2201 31.32 56.3101 31.41C56.5501 31.65 56.5001 31.94 56.5101 32.23C56.5101 32.45 56.6301 32.54 56.8401 32.54C56.9101 32.54 56.9901 32.55 57.0601 32.54C57.4301 32.48 57.7301 32.59 58.0201 32.83C58.2401 33.02 58.5501 33.12 58.8301 32.99C59.0601 32.88 59.2701 32.84 59.5001 32.87C60.1001 32.94 60.4901 32.56 60.8501 32.21C61.0301 32.04 61.1101 31.74 61.2801 31.53C61.3201 31.49 61.3101 31.38 61.2801 31.32C61.1701 31.12 61.2801 30.99 61.3901 30.85C61.5001 30.7 61.6301 30.55 61.7201 30.39C61.8301 30.2 61.9601 30.1 62.1901 30.06C62.5001 30.01 62.7201 29.77 62.9401 29.57C63.1001 29.43 63.0301 29.22 63.0501 29.03C63.0701 28.69 63.3001 28.49 63.6601 28.52C63.8701 28.54 64.0801 28.61 64.3001 28.65C64.4401 28.68 64.6001 28.77 64.7201 28.69C65.0101 28.5 65.3301 28.38 65.6201 28.2C65.9701 27.97 66.0101 27.95 66.3201 28.2C66.4301 28.29 66.5201 28.41 66.5801 28.54C66.6801 28.79 66.8601 28.97 67.0601 29.15C67.4801 29.53 67.9301 29.86 68.4601 30.08C68.8501 30.24 69.1101 30.56 69.3701 30.87C69.6001 31.14 69.4201 31.53 69.0701 31.63C68.7101 31.74 68.3501 31.71 67.9901 31.7C67.8701 31.7 67.7401 31.72 67.7001 31.85C67.6601 31.99 67.7601 32.06 67.8601 32.12C68.1701 32.3 68.5101 32.43 68.8201 32.62C69.0201 32.74 69.2101 32.63 69.2101 32.39C69.2101 32.1 69.3401 31.97 69.5901 31.9C69.9001 31.81 69.9601 31.52 70.0801 31.28C70.1801 31.1 70.1201 30.96 70.0401 30.79C69.9501 30.61 70.0601 30.49 70.2601 30.5C70.4001 30.5 70.4901 30.62 70.6101 30.67C70.7601 30.74 70.8601 30.67 70.8701 30.5C70.8701 30.31 70.7501 30.21 70.6201 30.12C70.3101 29.9 69.9901 29.71 69.6801 29.49C69.5401 29.39 69.4001 29.31 69.2301 29.26C68.9301 29.17 68.6201 29.01 68.4901 28.7C68.3901 28.46 68.2501 28.28 68.0501 28.13C67.9801 28.08 67.9201 28.01 67.8701 27.94C67.7701 27.77 67.7901 27.48 67.9201 27.37C68.0601 27.24 68.2501 27.18 68.4001 27.31C68.6701 27.54 69.0101 27.7 69.2101 28.03C69.3501 28.26 69.5801 28.4 69.8401 28.46C70.0201 28.5 70.1601 28.58 70.2801 28.72C70.3701 28.82 70.4701 28.89 70.5901 28.96C71.0801 29.21 71.2801 29.63 71.2901 30.17C71.2901 30.3 71.2601 30.44 71.3601 30.55C71.6901 30.94 71.8301 31.45 72.2201 31.8C72.3501 31.91 72.4101 32.08 72.4101 32.23C72.4101 32.66 72.7101 32.75 73.0301 32.82C73.2901 32.88 73.3601 32.83 73.4501 32.59C73.6501 32.05 73.8601 31.51 73.5901 30.93C73.5801 30.9 73.5801 30.87 73.5701 30.84C73.5401 30.58 73.7901 30.18 73.9901 30.16C74.3701 30.11 74.7401 30.38 74.7701 30.73C74.7801 30.9 74.7901 31.08 74.7801 31.25C74.7601 31.61 74.8801 31.94 75.0701 32.23C75.2401 32.48 75.4501 32.7 75.8101 32.68C76.0901 32.67 76.3501 32.79 76.6001 32.91C76.8101 33.01 76.9801 33.05 77.1601 32.88C77.2801 32.76 77.4101 32.78 77.5601 32.82C77.7701 32.88 77.9701 32.93 78.1701 33.03C78.4501 33.17 78.7501 33.19 79.0301 32.99C79.1201 32.93 79.2301 32.87 79.3401 32.84C79.6301 32.77 79.9501 32.94 79.9801 33.21C80.0101 33.54 80.0801 33.89 79.9601 34.2C79.8401 34.5 79.7401 34.79 79.6801 35.11C79.6301 35.36 79.5601 35.62 79.4501 35.85C79.3101 36.15 79.3001 36.42 79.3801 36.73C79.4901 37.11 79.6701 37.45 79.8201 37.81C80.0701 38.42 80.3901 38.98 80.8001 39.49C80.9801 39.72 81.1301 39.97 81.2201 40.24C81.2701 40.4 81.3701 40.52 81.5001 40.61C81.7701 40.8 81.9301 41.07 82.0901 41.35C82.2501 41.64 82.2801 41.96 82.3401 42.27C82.4301 42.68 82.5901 43.04 82.9901 43.24C83.1001 43.3 83.2101 43.39 83.2801 43.5C83.6701 44.06 84.0201 44.65 84.2401 45.27C84.4801 45.96 84.8501 46.58 85.0901 47.25C85.1801 47.49 85.3801 47.68 85.6301 47.79C85.8601 47.9 86.0101 47.74 86.1801 47.64C86.2201 47.62 86.2601 47.62 86.3001 47.6C87.0801 47.31 87.8701 47.03 88.6001 46.61C88.7401 46.53 88.9001 46.51 89.0601 46.48C89.3801 46.41 89.6601 46.27 89.8201 45.96C89.9201 45.77 90.0801 45.63 90.2501 45.54C90.7401 45.29 91.2301 45.07 91.6801 44.75C92.2001 44.39 92.7301 44.09 92.8701 43.4C92.9001 43.26 92.9901 43.14 93.0701 43.02C93.2901 42.69 93.5001 42.37 93.6101 41.98C93.6501 41.83 93.6801 41.7 93.5701 41.57C93.4101 41.37 93.2501 41.16 93.0801 40.96C92.9601 40.81 92.8001 40.69 92.5901 40.72C92.3301 40.76 92.1801 40.62 92.0601 40.43C92.0001 40.33 91.9201 40.25 91.8501 40.15C91.4901 39.62 91.1001 39.59 90.7301 40.09C90.6101 40.25 90.4801 40.38 90.2901 40.43C89.9501 40.52 89.6001 40.49 89.2501 40.45C89.1301 40.44 89.0401 40.36 89.0701 40.21C89.2401 39.51 88.8501 39.13 88.3001 38.84C87.7301 38.54 87.3201 38.08 87.1001 37.48C86.9701 37.13 87.2601 36.82 87.6301 36.87C88.1401 36.94 88.3401 37.32 88.4901 37.74C88.5601 37.93 88.6001 38.17 88.7901 38.25C89.3101 38.47 89.7101 38.89 90.2801 39.03C90.5801 39.11 90.8301 39.17 91.1101 39.05C91.2201 39 91.3301 38.97 91.4301 38.92C91.6501 38.8 91.7201 38.83 91.8401 39.06C91.8701 39.12 91.9001 39.19 91.9201 39.26C92.0001 39.53 92.1701 39.66 92.4501 39.71C92.8201 39.77 93.1901 39.87 93.5601 39.93C94.3301 40.07 95.1101 40.14 95.8901 39.96C96.0501 39.92 96.2201 39.9 96.3901 39.89C94.5701 29.76 89.6101 20.73 82.5601 13.83C82.5001 13.84 82.4501 13.86 82.3901 13.87C82.0401 13.95 81.7501 13.91 81.4601 13.68L81.4501 13.72Z" fill="#00DB52" stroke="black" stroke-width="0.25" stroke-miterlimit="10"/>
<path d="M89.0204 48.2301C88.6704 48.4501 88.2704 48.4301 87.8904 48.5201C87.2804 48.6801 86.6904 48.9301 86.0604 49.0301C85.5904 49.1101 85.0704 48.8201 85.0504 48.3801C85.0404 48.0201 84.8604 47.7901 84.6404 47.5501C84.4304 47.3101 84.1904 47.0901 84.0104 46.8301C83.8604 46.6201 83.7104 46.4801 83.4504 46.3901C82.9304 46.2201 82.6204 45.8601 82.5904 45.2701C82.5704 44.9201 82.4203 44.6001 82.1703 44.3301C81.7603 43.8801 81.4804 43.3901 81.4304 42.7601C81.3904 42.3401 81.2404 41.9101 80.9304 41.5801C80.5804 41.1901 80.2804 40.7701 80.1104 40.2701C80.0404 40.0801 79.9304 39.9001 79.8704 39.7101C79.6904 39.2001 79.2304 38.8101 79.2904 38.1701C79.3304 37.8101 79.1104 37.4201 79.0404 37.0401C78.9304 36.4501 78.4904 36.1701 78.0304 35.9201C77.6604 35.7101 77.2903 35.8301 76.9803 36.0701C76.7703 36.2301 76.5704 36.2601 76.3404 36.1301C76.1704 36.0401 75.9804 36.0201 75.8004 35.9801C75.2404 35.8501 74.6604 35.7801 74.1304 35.5301C73.8904 35.4101 73.6304 35.3601 73.4004 35.1801C73.1704 35.0001 72.8604 34.9801 72.5604 35.0501C72.4504 35.0701 72.3404 35.1301 72.2204 35.1301C71.9404 35.1501 71.8104 35.3801 71.6504 35.5601C71.5104 35.7201 71.5904 35.8801 71.6504 36.0501C71.7404 36.3201 71.6004 36.5001 71.3104 36.5201C71.1404 36.5301 71.0004 36.4601 70.8804 36.3501C70.6104 36.1101 70.2904 35.9901 69.9304 35.9801C69.6504 35.9801 69.4504 35.8701 69.3704 35.5901C69.2604 35.2001 68.9604 35.0901 68.6104 35.0401C68.4504 35.0201 68.2904 35.0201 68.1304 35.0401C67.7404 35.0901 67.4204 34.9301 67.1104 34.7401C66.7804 34.5401 66.7104 34.2101 66.8904 33.8601C66.9604 33.7301 67.0104 33.6001 66.9904 33.4401C66.9704 33.2101 66.9704 32.9801 67.0104 32.7501C67.0604 32.5101 66.9104 32.3001 66.6804 32.2601C66.4504 32.2201 66.2004 32.1801 65.9904 32.2901C65.8104 32.3801 65.6304 32.3601 65.4504 32.3701C65.0404 32.3801 64.6104 32.2601 64.2204 32.5301C64.1304 32.6001 64.0304 32.5701 63.9304 32.5301C63.6804 32.4101 63.4303 32.4501 63.1703 32.4901C62.6903 32.5801 62.2204 32.7301 61.7104 32.7001C61.4604 32.6901 61.2304 32.8201 61.0704 33.0201C60.9904 33.1101 60.9104 33.1701 60.8004 33.2201C60.2904 33.4401 59.7404 33.5001 59.2004 33.5601C58.9304 33.5901 58.6703 33.5901 58.4203 33.3801C58.2203 33.2101 57.9404 33.3201 57.7904 33.5501C57.7004 33.7001 57.5804 33.8401 57.5304 34.0001C57.4304 34.2801 57.2304 34.4301 56.9704 34.5701C56.3604 34.9101 55.9004 35.4001 55.7104 36.0901C55.6004 36.5101 55.4104 36.8801 55.1404 37.2001C54.8404 37.5601 54.5804 37.9801 54.0704 38.1101C53.9004 38.1501 53.7904 38.2801 53.7104 38.4601C53.6204 38.6701 53.5104 38.9401 53.3404 39.0301C52.9804 39.2201 52.8704 39.5101 52.7904 39.8601C52.7604 39.9701 52.7104 40.0801 52.6504 40.1801C52.3704 40.6701 52.0304 41.1101 51.7904 41.6301C51.5404 42.1601 51.4404 42.6301 51.6604 43.2001C51.8804 43.7601 52.0704 44.3401 51.8404 44.9601C51.8104 45.0501 51.8004 45.1601 51.7904 45.2601C51.7604 45.4801 51.6604 45.6601 51.4904 45.8201C51.2404 46.0601 51.1204 46.3601 51.1204 46.7201C51.1204 47.3901 51.4004 47.9501 51.7604 48.4801C51.8704 48.6401 52.0704 48.6901 52.2104 48.8101C52.4604 49.0301 52.6204 49.3401 52.8704 49.5601C53.0404 49.7101 53.1604 49.8801 53.2204 50.1001C53.4604 50.9301 53.9704 51.5601 54.6904 52.0101C55.1104 52.2701 55.5104 52.5601 55.8804 52.8801C56.2604 53.2101 56.6604 53.3001 57.1104 53.0401C57.2204 52.9801 57.3504 52.9401 57.4704 52.9001C57.9404 52.7601 58.3904 52.6201 58.9004 52.7801C59.2204 52.8801 59.5704 53.0201 59.9504 52.8501C60.4104 52.6501 60.8904 52.4701 61.3404 52.2601C61.7904 52.0401 62.2404 51.9701 62.7204 51.9701C63.2904 51.9701 63.6104 52.2101 63.8004 52.7301C63.9704 53.2301 64.1004 53.3001 64.6404 53.2201C65.0404 53.1601 65.4104 53.1901 65.7704 53.3901C66.2204 53.6501 66.3004 53.8101 66.2104 54.3401C66.1604 54.6101 66.0104 54.8601 66.0304 55.1401C66.0504 55.5101 65.9804 55.8601 65.8304 56.2001C65.7704 56.3301 65.7204 56.4701 65.7904 56.6201C65.8904 56.8401 65.9504 57.0801 66.1204 57.2801C66.4304 57.6501 66.7104 58.0401 67.0104 58.4001C67.2704 58.7101 67.4604 59.0301 67.5104 59.4401C67.5404 59.7001 67.6504 59.9401 67.7904 60.1601C67.9504 60.4101 68.0504 60.6801 68.0304 60.9801C68.0004 61.5001 68.1304 61.9801 68.3404 62.4601C68.5804 63.0201 68.5404 63.5301 68.0804 63.9701C67.8804 64.1601 67.7804 64.3801 67.7404 64.6501C67.6704 65.0801 67.5104 65.4801 67.4004 65.9001C67.3004 66.3001 67.3004 66.7301 67.2704 67.1501C67.2704 67.3001 67.3404 67.4301 67.4304 67.5501C67.6304 67.8201 67.7404 68.1401 67.8804 68.4401C68.0604 68.8501 68.1804 69.2901 68.5004 69.6301C68.7904 69.9301 68.8504 70.2801 68.8204 70.6701C68.8004 70.9401 68.7604 71.2301 68.8504 71.4901C68.9504 71.7701 68.9804 72.0501 68.9904 72.3401C69.0104 72.8001 69.1003 73.2901 69.4203 73.5901C69.9803 74.1201 70.2504 74.7401 70.3904 75.4601C70.3904 75.4701 70.3904 75.4901 70.4004 75.5001C70.5504 75.7601 70.5904 76.0501 70.5504 76.4401C70.4504 76.7401 70.7004 77.0701 70.7604 77.4401C70.7604 77.4901 70.8004 77.5601 70.8404 77.5901C71.1304 77.7401 71.4104 77.9601 71.7704 77.9001C72.3204 77.8201 72.9004 77.8301 73.4304 77.6101C73.4904 77.5801 73.5704 77.5701 73.6404 77.5801C74.2004 77.6001 74.7204 77.4501 75.2504 77.2801C75.7804 77.1101 76.2004 76.8101 76.5504 76.3901C76.6804 76.2301 76.8104 76.0701 76.9704 75.9501C77.2404 75.7401 77.4204 75.4701 77.5804 75.1701C77.7304 74.8701 77.9204 74.5801 78.1804 74.3701C78.4804 74.1301 78.6304 73.8201 78.7504 73.4701C78.8004 73.3201 78.8704 73.1701 78.8904 73.0101C78.9604 72.4401 79.2904 72.0701 79.7904 71.8201C79.9804 71.7201 80.1604 71.5701 80.2404 71.3601C80.4504 70.7801 80.6104 70.2001 80.3704 69.5901C80.3304 69.4801 80.3004 69.3701 80.2804 69.2501C80.1904 68.7301 80.3504 68.3001 80.7804 67.9901C80.9604 67.8601 81.1003 67.7001 81.2303 67.5301C81.3603 67.3501 81.5203 67.2201 81.7303 67.1401C82.2303 66.9301 82.6804 66.6301 83.0304 66.2101C83.3604 65.8101 83.5604 65.3701 83.4904 64.8201C83.4404 64.4201 83.4504 64.0201 83.5304 63.6101C83.6104 63.1601 83.6204 62.7001 83.3104 62.2801C83.1004 62.0101 82.9404 61.6701 82.9504 61.3201C82.9704 60.7301 82.8904 60.1701 82.7604 59.6001C82.7104 59.3701 82.7304 59.1301 82.8804 58.9401C82.9804 58.8101 83.0404 58.6601 83.1004 58.5201C83.3404 57.9601 83.5804 57.4001 84.0904 57.0201C84.1804 56.9501 84.2504 56.8501 84.3104 56.7601C84.5804 56.4001 84.8204 56.0201 85.1104 55.6801C85.3703 55.3701 85.6204 55.0301 85.9904 54.8501C86.8804 54.4301 87.4404 53.6901 87.8704 52.8701C88.3604 51.9501 88.7604 50.9901 89.2004 50.0401C89.2404 49.9501 89.2404 49.8401 89.2704 49.7501C89.4004 49.3501 89.2404 48.9401 89.3304 48.5401C89.3704 48.3801 89.1304 48.1801 88.9904 48.2701L89.0204 48.2301Z" fill="#00DB52" stroke="black" stroke-width="0.25" stroke-miterlimit="10"/>
<path d="M1.69037 39.5501C1.66037 39.7801 1.76037 39.9401 1.94037 40.0601C2.30037 40.3001 2.54035 40.65 2.73035 41.03C2.85035 41.26 2.96035 41.49 3.11035 41.71C3.32035 42.02 3.33036 42.3601 3.18036 42.7001C2.95036 43.2201 3.1404 43.7301 3.6604 43.9901C3.7104 44.0201 3.78036 44.0301 3.81036 44.0801C4.04036 44.4301 4.38039 44.6 4.77039 44.71C4.83039 44.73 4.90037 44.79 4.94037 44.84C5.14037 45.07 5.3904 45.2001 5.6604 45.3201C6.2104 45.5501 6.76037 45.7701 7.32037 45.9801C7.57037 46.0801 7.83039 46.0901 8.09039 46.0001C8.23039 45.9501 8.37038 45.9301 8.51038 45.8801C8.71038 45.8101 8.88041 45.85 9.04041 45.96C9.17041 46.05 9.30039 46.14 9.40039 46.28C10.0504 47.22 11.0404 47.5601 12.1004 47.7401C12.3604 47.7901 12.5704 47.9301 12.7004 48.1401C12.8504 48.4001 13.0104 48.66 13.0504 48.9701C13.1104 49.43 13.3204 49.7701 13.7904 49.9401C14.0504 50.0301 14.3104 50.2001 14.4404 50.4901C14.5404 50.7201 14.7504 50.8401 14.9904 50.8601C15.2804 50.8901 15.5204 50.97 15.7104 51.21C15.8404 51.37 16.0304 51.3301 16.2004 51.2901C16.3504 51.2501 16.3804 51.1101 16.3704 50.9701C16.3704 50.8501 16.3804 50.7401 16.4604 50.6401C16.5504 50.5101 16.5804 50.3601 16.4904 50.2301C16.3904 50.1001 16.2104 50.1301 16.0804 50.1701C15.7204 50.2701 15.4304 50.1501 15.1604 49.9201C15.0704 49.8401 14.9904 49.7601 14.9004 49.6901C14.5304 49.4001 14.4404 48.98 14.5904 48.59C14.7904 48.06 14.7404 47.47 15.0204 46.96C15.1104 46.8 15.0504 46.59 15.0504 46.4C15.0504 46.31 14.9804 46.2501 14.9104 46.1901C14.4804 45.8401 13.9904 45.7201 13.4504 45.8101C13.2504 45.8501 13.0504 45.8101 12.8404 45.8101C12.6704 45.8101 12.5804 45.7201 12.5204 45.5701C12.4204 45.2601 12.4504 44.97 12.6404 44.71C12.8404 44.42 12.9804 44.1101 13.1104 43.7901C13.2604 43.4101 13.2104 42.9601 13.5304 42.6301C13.6704 42.4801 13.5304 42.2901 13.2904 42.2401C12.7104 42.1201 12.1804 42.2801 11.6404 42.4801C11.4704 42.5401 11.3904 42.66 11.3704 42.84C11.3404 43.15 11.2204 43.43 11.0904 43.71C10.9304 44.06 10.7604 44.1701 10.3704 44.1401C10.0604 44.1101 9.77039 44.1101 9.46039 44.1601C8.91039 44.2501 8.37035 43.8701 8.11035 43.3701C7.81035 42.8001 7.85035 42.2001 7.80035 41.6001C7.80035 41.5201 7.82038 41.43 7.83038 41.34C7.88038 40.81 8.09036 40.3301 8.31036 39.8601C8.42036 39.6201 8.51036 39.3801 8.49036 39.1101C8.47036 38.8201 8.58037 38.5601 8.82037 38.3901C9.10037 38.1901 9.36037 37.9601 9.69037 37.8301C10.0004 37.7001 10.3004 37.5701 10.5804 37.3801C10.8304 37.2101 11.0904 37.1901 11.4004 37.3001C11.9004 37.4701 12.4503 37.4701 12.9803 37.5501C13.1203 37.5701 13.1804 37.4801 13.2504 37.3801C13.3804 37.2001 13.5204 37.0401 13.7504 36.9801C14.0204 36.9201 14.2804 36.8501 14.5504 36.8001C14.8104 36.7601 15.0604 36.8001 15.1904 37.0501C15.3004 37.2601 15.4404 37.2901 15.6504 37.2601C16.1504 37.1901 16.4104 37.47 16.3504 37.97C16.3204 38.16 16.3304 38.34 16.3704 38.53C16.4704 38.99 16.6304 39.4201 16.9004 39.8101C17.0904 40.0901 17.2304 40.13 17.4704 39.9C17.7404 39.65 17.8704 39.3501 17.8904 38.9801C17.9204 38.5201 17.7803 38.0901 17.6703 37.6601C17.4604 36.7901 17.7104 36.0801 18.4104 35.5501C18.9904 35.1201 19.5904 34.72 20.2404 34.4C20.6104 34.22 20.9704 34.0701 21.2104 33.6701C21.3504 33.4201 21.5404 33.1901 21.6004 32.9101C21.7004 32.4801 21.9204 32.1301 22.1904 31.8101C22.5204 31.4201 22.8604 31.0501 23.2004 30.6801C23.5804 30.2701 24.0004 29.9801 24.5604 29.9101C24.8204 29.8801 25.0604 29.75 25.3004 29.65C25.4704 29.58 25.5604 29.46 25.5404 29.28C25.5104 29.03 25.6504 28.88 25.8104 28.72C26.0604 28.48 26.4104 28.4201 26.6604 28.2401C27.0104 27.9901 27.3404 28.0601 27.6904 28.0501C27.8704 28.0501 28.0004 28.1201 28.0804 28.3201C28.1804 28.5801 28.3804 28.6101 28.5904 28.4301C28.7204 28.3201 28.8404 28.1901 28.9604 28.0601C29.0504 27.9701 29.1504 27.8601 29.2904 27.8701C29.7204 27.9101 30.1004 27.6501 30.5204 27.6601C30.6204 27.6601 30.7204 27.6301 30.8204 27.6001C31.0404 27.5301 31.1004 27.2901 30.9304 27.1201C30.8604 27.0401 30.7704 27.0101 30.6604 27.0001C30.5004 26.9801 30.3504 26.9501 30.1904 26.9101C29.7404 26.8201 29.5603 26.53 29.6703 26.09C29.7203 25.89 29.8104 25.7001 29.9704 25.5701C30.2104 25.3701 30.3004 25.13 30.2204 24.84C30.1704 24.64 30.2803 24.5701 30.4203 24.5101C30.7503 24.3701 31.1004 24.35 31.4504 24.4C31.8704 24.46 32.2804 24.48 32.6904 24.34C32.9104 24.27 33.0803 24.48 32.9803 24.71C32.9003 24.88 32.7804 25.0301 32.6404 25.1601C32.4504 25.3201 32.3804 25.5301 32.3004 25.7501C32.2404 25.9301 32.2604 26.0201 32.4604 26.0601C32.7304 26.1101 33.0004 26.16 33.2804 26.09C33.5704 26.02 33.8604 26.0201 34.1204 26.1901C34.3704 26.3601 34.6604 26.3901 34.9404 26.4501C35.3404 26.5401 35.6303 26.1801 35.4803 25.7901C35.3903 25.5501 35.3603 25.3201 35.4803 25.0801C35.6603 24.7101 35.6604 24.7101 35.2904 24.5601C34.9804 24.4401 34.9204 24.29 34.9304 23.97C34.9504 23.53 35.2004 23.15 35.2504 22.72C35.2804 22.46 35.2704 22.2701 35.0504 22.1101C34.9504 22.0401 34.8604 21.9701 34.8704 21.8301C34.8904 21.5801 34.7204 21.5001 34.5304 21.4501C34.0404 21.3301 33.9204 20.97 33.9004 20.53C33.8904 20.27 33.9004 20.0101 33.9004 19.7501C33.8904 19.3001 33.7604 18.8901 33.4704 18.5501C33.2504 18.2801 33.1804 18.2701 32.9004 18.4801C32.5504 18.7401 32.1904 18.99 31.8204 19.21C31.5704 19.36 31.3004 19.3401 31.0904 19.1601C30.9104 19.0001 30.8904 18.83 31.0204 18.53C31.0504 18.46 31.0904 18.4001 31.1104 18.3301C31.2304 18.0601 31.2103 17.9501 30.9803 17.8201C30.7703 17.7101 30.6204 17.5401 30.4604 17.3701C30.3004 17.2101 30.1404 17.0201 29.9004 16.9901C29.4404 16.9301 28.9804 16.8901 28.5204 16.8901C28.3504 16.8901 28.1904 16.9401 28.0804 17.0501C27.7904 17.3301 27.6804 17.7201 27.4604 18.0501C27.5204 18.5701 27.2204 18.8201 26.7804 18.9801C26.7404 18.9901 26.7004 19.01 26.6604 19.03C26.4404 19.16 26.4104 19.2701 26.5704 19.4801C26.8304 19.8201 26.8304 19.9201 26.6004 20.2901C26.4404 20.5401 26.2303 20.7201 25.9803 20.8801C25.5903 21.1301 25.1404 21.2101 24.7404 21.4101C24.5504 21.5101 24.4204 21.6101 24.4304 21.8301C24.4504 22.1901 24.2004 22.48 24.2104 22.84C24.2104 22.98 24.0704 23.0901 23.9304 23.1601C23.8204 23.2201 23.7004 23.28 23.5804 23.34C23.2904 23.48 23.1304 23.4301 23.0004 23.1401C22.9004 22.9101 22.8704 22.6701 23.0304 22.4401C23.2104 22.1601 23.3104 21.8301 23.5404 21.5801C23.6504 21.4601 23.5904 21.3601 23.4604 21.3101C23.2304 21.2301 22.9904 21.1801 22.7404 21.1801C22.2204 21.1801 21.7603 20.92 21.4203 20.59C21.0903 20.28 20.7504 20.0901 20.3404 19.9901C20.1004 19.9301 20.0004 19.8001 19.9604 19.5801C19.9304 19.4101 19.9404 19.2301 19.8304 19.0801C19.6604 18.8501 19.7704 18.6701 19.9104 18.5001C20.0904 18.2801 20.3304 18.1501 20.5504 17.9801C21.1404 17.5201 21.7904 17.1701 22.5404 17.0701C22.9204 17.0201 23.2103 16.8201 23.4803 16.5701C23.6603 16.4001 23.8604 16.3301 24.1004 16.3101C24.4904 16.2801 24.8504 16.3701 25.1504 16.6401C25.3004 16.7701 25.4304 16.7601 25.5804 16.6801C25.8004 16.5701 26.0204 16.45 26.2404 16.34C26.3904 16.26 26.5404 16.2501 26.6904 16.3501C26.8204 16.4401 26.9704 16.5001 27.1404 16.5001C27.2704 16.5001 27.3703 16.4501 27.4203 16.3301C27.4703 16.2201 27.4204 16.1301 27.3304 16.0601C27.1704 15.9401 27.1004 15.77 27.0504 15.59C26.9604 15.24 27.0204 15.1301 27.3704 15.1001C27.6204 15.0901 27.8204 14.9901 28.0104 14.8501C28.3304 14.6101 28.7104 14.4501 28.8904 14.0501C28.9304 13.9501 29.0504 13.8801 29.1304 13.8001C29.2404 13.6901 29.3504 13.5801 29.4304 13.4301C29.5604 13.1601 29.8004 13.0701 30.0804 13.1101C30.3004 13.1401 30.5103 13.1401 30.7303 13.1301C31.0403 13.1301 31.3504 13.21 31.5304 13.47C31.6504 13.64 31.7903 13.7601 31.9803 13.8601C32.2603 14.0001 32.2804 14.1901 32.0404 14.4101C31.8604 14.5801 31.6604 14.7201 31.4304 14.8301C31.3004 14.8901 31.1504 14.9501 31.1104 15.1001C31.0404 15.3701 30.8204 15.4001 30.6004 15.4201C30.3504 15.4501 30.1104 15.4001 29.8704 15.3201C29.4904 15.2001 29.0904 15.4101 28.9704 15.7701C28.9204 15.9301 28.9604 16.0301 29.1304 16.0401C29.6004 16.0801 30.0804 16.2001 30.5604 16.0801C30.7504 16.0401 30.8704 16.1101 30.9704 16.2501C31.0404 16.3601 31.1104 16.4701 31.1504 16.6001C31.2304 16.8901 31.4304 17.0301 31.6904 17.1201C31.9804 17.2301 32.2604 17.3301 32.5404 17.4401C32.8004 17.5401 33.0204 17.53 33.2604 17.34C33.5204 17.14 33.7704 16.9201 34.0504 16.7401C34.4204 16.5101 34.4904 16.1501 34.2904 15.7601C34.2204 15.6301 34.1604 15.5001 34.1004 15.3701C34.0604 15.2701 34.0404 15.1701 34.1504 15.1001C34.2504 15.0401 34.3404 15.08 34.4304 15.15C34.6004 15.27 34.6804 15.4701 34.8304 15.6101C35.0604 15.8401 35.2604 15.85 35.5204 15.65C35.7104 15.5 35.9104 15.3401 36.1004 15.1901C36.3704 14.9701 36.4004 14.8401 36.2804 14.5101C36.2104 14.3301 36.1204 14.18 35.9304 14.09C35.5104 13.88 35.2304 13.5801 35.2904 13.0701C35.3204 12.8301 35.2004 12.6601 35.0204 12.5101C34.7304 12.2701 34.4004 12.1401 34.0404 12.0701C33.6304 11.9901 33.3504 11.7601 33.2204 11.3801C33.1404 11.1401 32.9804 11.0401 32.7504 10.9901C32.1604 10.8501 31.5603 10.8501 30.9803 10.9201C30.5703 10.9701 30.1804 11.0001 29.7704 11.0001C29.4904 11.0001 29.2204 10.9801 28.9404 11.0001C28.6704 11.0301 28.3804 11.03 28.1504 11.21C27.8704 11.42 27.5904 11.6301 27.3304 11.8501C26.9904 12.1401 26.9604 12.2701 27.1104 12.6801C27.1404 12.7801 27.2004 12.87 27.1504 12.97C27.0404 13.17 26.8704 13.3101 26.6404 13.3301C26.4204 13.3501 26.2004 13.3501 26.0704 13.1201C25.9304 12.8701 25.8304 12.6001 25.7904 12.3001C25.7604 12.0401 25.5604 11.8701 25.3604 11.9201C25.0104 12.0201 24.6504 12.1001 24.3604 12.3201C24.0404 12.5601 23.7004 12.7901 23.8604 13.3101C23.9504 13.6101 23.8604 13.6601 23.5904 13.8201C23.3804 13.9501 23.2004 13.88 23.0104 13.84C22.6904 13.77 22.3604 13.73 22.0704 13.84C21.8404 13.93 21.6304 13.96 21.4004 13.96C21.1404 13.96 20.8804 13.9701 20.6204 14.0201C20.2604 14.0801 19.9004 14.0601 19.6204 13.7501C19.4304 13.5501 19.1504 13.4901 18.8904 13.5401C18.4404 13.6301 17.9704 13.6701 17.5304 13.7901C16.8304 13.9801 16.1304 14.0901 15.5104 13.5701C15.3804 13.4601 15.2304 13.4301 15.0704 13.4301C8.18037 20.0001 3.22036 28.5601 1.12036 38.2001C1.37036 38.5501 1.42036 39.0101 1.68036 39.3601C1.72036 39.4101 1.71038 39.5001 1.70038 39.5701L1.69037 39.5501Z" fill="#00DB52" stroke="black" stroke-width="0.25" stroke-miterlimit="10"/>
<path d="M1.31006 41.17C1.38006 40.98 1.33007 40.8 1.20007 40.64C1.04007 40.44 0.950046 40.21 0.860046 39.96C0.830046 39.88 0.820049 39.81 0.800049 39.73C0.730049 40.13 0.660088 40.54 0.590088 40.94C0.690088 41.04 0.780056 41.15 0.870056 41.26C1.02006 41.43 1.23006 41.38 1.31006 41.17Z" fill="#00DB52" stroke="black" stroke-width="0.25" stroke-miterlimit="10"/>
<path d="M40.7198 58.97C40.3098 58.92 39.9897 58.71 39.7297 58.4C39.6297 58.28 39.5098 58.16 39.3898 58.07C39.0298 57.79 38.6697 57.52 38.1697 57.64C37.5197 57.75 36.9598 57.43 36.4498 57.13C35.5998 56.64 34.6797 56.33 33.7997 55.94C33.3997 55.76 33.1898 55.53 33.0898 55.15C33.0498 55.01 33.0598 54.86 32.9598 54.74C32.7098 54.46 32.6098 54.12 32.5298 53.76C32.4798 53.51 32.4197 53.23 32.1797 53.08C31.9397 52.93 31.7598 52.73 31.5698 52.53C31.4998 52.45 31.4298 52.38 31.3298 52.36C30.8498 52.25 30.4098 52.03 29.8898 52.08C29.2098 52.14 28.7298 51.78 28.3998 51.22C28.2098 50.89 27.9897 50.63 27.6097 50.52C27.3597 50.45 27.2397 50.25 27.1697 50.02C27.1197 49.86 27.2298 49.71 27.2598 49.56C27.2998 49.39 27.3598 49.2 27.1498 49.1C26.9498 49.01 26.7398 48.91 26.5198 48.97C26.2598 49.05 25.9997 49.04 25.7397 49.04C25.5497 49.04 25.3698 49.07 25.2098 49.2C24.9598 49.41 24.6598 49.42 24.3998 49.26C24.1798 49.12 23.9398 49.08 23.6998 49.06C23.4298 49.03 23.1997 48.93 22.9897 48.77C22.6897 48.54 22.3398 48.41 22.0098 48.24C21.7598 48.11 21.4497 48.11 21.1697 48.07C21.0597 48.05 20.9497 48.07 20.8597 48.17C20.5797 48.48 20.2097 48.6 19.7997 48.69C19.3197 48.8 18.8798 49.01 18.7498 49.58C18.6598 49.99 18.1198 50.27 17.6898 50.18C17.5298 50.15 17.3698 50.15 17.2098 50.16C17.1298 50.16 17.0597 50.19 17.0497 50.28C17.0397 50.46 16.9297 50.66 17.1697 50.78C17.2597 50.83 17.2898 50.9 17.2898 50.99C17.2898 51.16 17.3698 51.3 17.4598 51.43C17.7398 51.85 17.7897 52.32 17.7297 52.81C17.6797 53.22 17.6498 53.64 17.3998 54.01C17.2598 54.22 17.0498 54.35 16.8798 54.53C16.6798 54.75 16.5898 55.04 16.3498 55.21C15.9098 55.53 15.7697 56 15.6697 56.48C15.5997 56.78 15.5697 57.13 15.7397 57.42C15.9897 57.84 15.9098 58.19 15.5898 58.52C15.4598 58.65 15.3798 58.81 15.3998 58.99C15.4498 59.52 15.5498 60.02 16.0398 60.35C16.4598 60.63 16.6498 61.07 16.7798 61.54C16.8498 61.8 16.9498 62.03 17.1398 62.22C17.5098 62.59 17.7798 63.05 18.0198 63.51C18.2198 63.91 18.4498 64.29 18.6198 64.7C18.8098 65.18 19.2497 65.52 19.6097 65.89C19.6397 65.92 19.6897 65.92 19.7297 65.94C20.0397 66.07 20.3498 66.19 20.6498 66.33C21.2198 66.6 21.6897 67.01 22.1097 67.47C22.2097 67.58 22.2398 67.72 22.2798 67.86C22.4998 68.55 22.4698 69.27 22.4998 69.97C22.5498 70.98 22.5798 71.99 22.6898 73C22.7098 73.17 22.7097 73.35 22.6797 73.52C22.5797 73.97 22.6297 74.41 22.6697 74.86C22.7197 75.4 22.9498 75.89 23.0398 76.42C23.1298 76.97 23.1697 77.5 23.0497 78.06C22.9497 78.49 22.9398 78.95 22.8898 79.39C22.8798 79.49 22.8797 79.6 22.9297 79.69C23.2197 80.24 23.3197 80.83 23.4297 81.43C23.5097 81.85 23.6398 82.26 23.9398 82.6C24.4398 83.18 24.6398 83.89 24.7098 84.64C24.7298 84.86 24.7898 85.07 24.9098 85.25C25.0498 85.46 25.1098 85.69 25.1498 85.94C25.2098 86.38 25.2898 86.83 25.5798 87.2C25.6298 87.27 25.6498 87.36 25.6898 87.43C26.0398 88.01 26.2698 88.67 26.7698 89.15C27.0998 89.47 27.4398 89.74 27.9598 89.54C28.3398 89.39 28.8797 89.69 28.9897 90.1C29.0597 90.37 29.2198 90.44 29.4498 90.46C29.6398 90.48 29.8298 90.46 30.0098 90.53C30.3398 90.67 30.6898 90.65 31.0398 90.65C31.2098 90.65 31.3698 90.63 31.3998 90.43C31.4298 90.24 31.2698 90.15 31.1398 90.07C31.0898 90.04 31.0298 90.04 30.9698 90.04C30.7398 90.04 30.5398 89.96 30.3498 89.86C29.9598 89.64 29.5298 89.45 29.3498 89C29.2498 88.75 29.0998 88.56 28.8998 88.39C28.3798 87.92 28.4697 87.76 28.6697 87.34C28.6997 87.29 28.7297 87.23 28.7297 87.18C28.6897 86.86 28.9098 86.68 29.0998 86.48C29.4498 86.11 29.3698 85.74 28.9098 85.51C28.5098 85.31 28.3698 84.84 28.5998 84.46C28.7498 84.22 28.8698 83.98 28.7698 83.69C28.7198 83.53 28.7998 83.4 28.8898 83.29C29.0698 83.1 29.1498 82.88 29.1898 82.63C29.2298 82.38 29.3298 82.16 29.4698 81.96C29.6098 81.76 29.7198 81.54 29.7598 81.29C29.8098 80.97 30.0197 80.78 30.2997 80.66C30.4097 80.61 30.5198 80.59 30.6298 80.55C31.1398 80.36 31.5797 80.12 31.6097 79.48C31.6097 79.42 31.6398 79.37 31.6598 79.31C31.8298 78.85 31.9897 78.39 32.4197 78.08C32.6397 77.92 32.8398 77.71 32.9598 77.46C33.1298 77.09 33.2898 76.72 33.4498 76.34C33.5898 75.99 33.6698 75.61 34.0098 75.38C34.3498 75.15 34.2697 74.68 34.5497 74.41C34.6097 74.35 34.6697 74.28 34.7397 74.23C34.8997 74.1 34.9698 73.93 34.9698 73.73C34.9698 73.5 34.9698 73.27 34.9098 73.04C34.6398 72.13 34.7997 71.76 35.6097 71.27C35.7497 71.19 35.8897 71.13 36.0497 71.08C36.1897 71.04 36.3298 71 36.4498 70.91C36.7598 70.68 37.1098 70.58 37.4998 70.56C37.8398 70.55 38.2398 70.56 38.3898 70.1C38.3998 70.05 38.4698 70.02 38.5198 69.99C38.6898 69.89 38.7497 69.73 38.7297 69.55C38.7097 69.3 38.7897 69.1 38.9297 68.9C39.0997 68.65 39.2598 68.38 39.2498 68.06C39.2298 67.75 39.2498 67.46 39.4498 67.2C39.5198 67.1 39.4998 66.98 39.5098 66.86C39.5098 66.72 39.4898 66.56 39.5398 66.43C39.6398 66.12 39.5898 65.85 39.5098 65.54C39.3698 65.04 39.3398 64.52 39.6998 64.09C40.1898 63.5 40.4598 62.76 41.0198 62.22C41.0498 62.19 41.0798 62.16 41.0998 62.12C41.5698 61.32 41.7498 60.49 41.4498 59.58C41.3298 59.21 41.1197 58.98 40.7297 58.93L40.7198 58.97Z" fill="#00DB52" stroke="black" stroke-width="0.25" stroke-miterlimit="10"/>
<path d="M52.9496 13.13C53.6096 12.99 53.8296 12.64 53.6796 11.97C53.5796 11.56 53.6596 11.44 54.0496 11.29C54.7396 11.03 55.2896 10.62 55.5496 9.89998C55.5896 9.78998 55.5996 9.66999 55.6996 9.58999C55.8996 9.40999 55.9496 9.17 55.9296 8.92C55.9096 8.71 55.9896 8.52003 56.1696 8.45003C56.6396 8.27003 57.0696 7.97003 57.5696 7.88003C57.9696 7.81003 58.3696 7.76002 58.7396 7.56002C58.8196 7.52002 58.8896 7.47001 58.8696 7.36001C58.8496 7.27001 58.7797 7.25 58.7097 7.23C58.4397 7.15 58.1596 7.16001 57.8896 7.18001C57.3596 7.21001 56.8297 7.17999 56.3397 7.02999C55.7897 6.84999 55.2197 6.74004 54.6497 6.64004C53.7197 6.47004 52.7797 6.44002 51.8397 6.62002C51.4697 6.69002 51.1096 6.74003 50.7296 6.70003C50.1996 6.65003 49.6596 6.64 49.1296 6.73C48.2196 6.88 47.2996 7.01999 46.3696 7.02999C46.1196 7.02999 45.8796 7.12999 45.6396 7.08999C44.7096 6.90999 43.8096 7.31001 42.8796 7.24001C42.8296 7.24001 42.7597 7.25999 42.7097 7.27999C42.4097 7.39999 42.1097 7.48003 41.7897 7.51003C41.2597 7.57003 40.7697 7.83 40.2197 7.85C40.0897 7.85 39.9097 7.86999 39.8497 8.02999C39.7697 8.22999 39.5896 8.25002 39.4296 8.31002C38.9596 8.47002 38.4597 8.45003 37.9697 8.51003C37.6797 8.54003 37.3996 8.6 37.1196 8.67C36.9196 8.72 36.8696 8.83003 36.8596 9.01003C36.8596 9.31003 37.1096 9.67001 37.4396 9.80001C37.7296 9.91001 38.0397 9.95004 38.3397 9.89004C38.9697 9.76004 39.5796 9.88 40.1896 9.98C40.6896 10.07 41.0097 10.43 41.0397 10.94C41.0597 11.19 41.0096 11.43 40.8796 11.65C40.7296 11.9 40.7396 12.15 40.8796 12.39C41.0196 12.61 41.0997 12.86 41.2797 13.06C41.5097 13.33 41.4396 13.48 41.0696 13.54C40.2996 13.68 39.8897 14.14 39.8997 14.93C39.8497 15.26 40.0196 15.59 39.9896 15.94C39.9496 16.31 40.0296 16.66 40.1796 17C40.2796 17.21 40.3896 17.41 40.4996 17.62C40.6496 17.91 40.6996 17.94 41.0496 17.87C41.3696 17.8 41.6197 17.89 41.8297 18.12C42.3297 18.66 42.6196 18.47 42.9196 18.14C43.2096 17.84 43.5497 17.58 43.7197 17.18C43.7697 17.08 43.8496 16.98 43.9396 16.92C44.2596 16.72 44.4697 16.45 44.6497 16.12C44.8897 15.68 45.2397 15.41 45.7897 15.38C46.0997 15.36 46.4196 15.32 46.7296 15.26C47.4096 15.14 48.0297 14.88 48.5797 14.44C48.7897 14.27 49.0196 14.08 49.3096 14.07C49.8496 14.06 50.3596 13.88 50.8896 13.82C51.2796 13.77 51.6496 13.64 51.9996 13.47C52.2996 13.33 52.5996 13.19 52.9296 13.12L52.9496 13.13Z" fill="#00DB52" stroke="black" stroke-width="0.25" stroke-miterlimit="10"/>
<path d="M88.7201 64.53C88.6701 64.23 88.5401 63.95 88.4101 63.68C88.3101 63.48 88.1701 63.46 88.0501 63.64C87.8401 63.95 87.6201 64.26 87.4601 64.6C87.1501 65.28 86.7201 65.8 85.9401 65.95C85.7501 65.99 85.5201 66.02 85.4201 66.23C85.2701 66.56 85.0301 66.86 85.0901 67.24C85.1201 67.46 85.1001 67.68 85.1601 67.88C85.3201 68.42 85.0901 68.86 84.8101 69.26C84.6101 69.55 84.4901 69.8399 84.5401 70.1499C84.5201 70.5899 84.6201 70.97 84.7101 71.35C84.8201 71.8 85.3501 72.21 85.7301 72.13C86.0001 72.08 86.2501 71.96 86.5001 71.86C86.5801 71.83 86.6601 71.76 86.6901 71.69C86.8201 71.4 87.0001 71.13 87.0801 70.82C87.2501 70.13 87.5401 69.48 87.7801 68.81C87.9801 68.25 88.2601 67.72 88.3401 67.13C88.3901 66.79 88.4901 66.4899 88.6701 66.2099C88.9001 65.8599 88.9501 65.4899 88.8301 65.0899C88.7801 64.9099 88.7601 64.72 88.7301 64.54L88.7201 64.53Z" fill="#00DB52" stroke="black" stroke-width="0.25" stroke-miterlimit="10"/>
<path d="M59.2102 21.2202C59.3902 21.4202 59.6102 21.5402 59.8502 21.6602C60.0502 21.7702 60.1801 21.9603 60.1801 22.1803C60.1801 22.4103 59.9502 22.3903 59.7802 22.4203C59.5702 22.4603 59.4401 22.5702 59.4201 22.7902C59.4101 22.8902 59.3801 22.9902 59.3601 23.0902C59.3201 23.4202 59.1902 23.7303 59.1002 24.0503C59.0202 24.3503 59.1901 24.4902 59.4801 24.4002C59.5201 24.3902 59.5602 24.3702 59.6002 24.3502C60.0402 24.0402 60.5501 24.0403 61.0501 24.0103C61.3301 24.0003 61.5902 23.9002 61.8402 23.7902C61.9302 23.7502 62.0302 23.6903 62.0302 23.5703C62.0302 23.4003 62.1501 23.3202 62.2501 23.2202C62.5401 22.9202 62.5201 22.7102 62.1301 22.5902C61.8701 22.5102 61.7501 22.3503 61.7001 22.1203C61.6601 21.8903 61.5701 21.7102 61.3701 21.5902C61.3101 21.5502 61.2601 21.4903 61.2301 21.4303C61.0201 20.9903 60.7601 20.5903 60.8001 20.0503C60.8401 19.5903 60.4201 19.2302 59.8801 19.2202C59.5901 19.1602 59.3501 19.3002 59.1401 19.6002C58.9601 19.8702 58.8101 20.0902 58.8701 20.4602C58.9201 20.7602 59.0001 21.0003 59.2001 21.2303L59.2102 21.2202Z" fill="#00DB52" stroke="black" stroke-width="0.25" stroke-miterlimit="10"/>
<path d="M55.4299 14.78C55.2199 14.81 55 14.8 54.79 14.84C54.24 14.93 53.68 15.06 53.12 14.86C52.69 14.7 52.37 14.87 52.06 15.14C51.92 15.26 51.91 15.38 52.06 15.5C52.24 15.64 52.3399 15.81 52.4199 16.03C52.4899 16.24 52.63 16.39 52.89 16.41C53.26 16.44 53.6399 16.44 53.9899 16.59C54.0099 16.6 54.05 16.59 54.1 16.59C54.14 16.58 54.22 16.57 54.28 16.53C54.8 16.23 55.37 16.09 55.94 15.93C56.12 15.88 56.24 15.76 56.35 15.63C56.46 15.5 56.47 15.37 56.35 15.24C56.1 14.97 55.8399 14.73 55.4199 14.78H55.4299Z" fill="#00DB52" stroke="black" stroke-width="0.25" stroke-miterlimit="10"/>
<path d="M17.4201 42.26C17.6501 42.51 17.9401 42.67 18.2301 42.84C18.3501 42.91 18.4101 43.01 18.4401 43.15C18.5101 43.45 18.5801 43.52 18.8401 43.43C19.1101 43.35 19.3101 43.41 19.5301 43.55C19.7501 43.69 19.9801 43.65 20.1901 43.51C20.4401 43.35 20.4501 43.21 20.2101 43.05C20.0701 42.95 19.9001 42.89 19.7601 42.79C19.4701 42.6 19.1001 42.52 18.8701 42.26C18.4701 41.82 17.9601 41.6 17.4301 41.41C17.1001 41.29 16.7901 41.13 16.4001 41.18C16.1101 41.12 15.8301 41.29 15.5301 41.34C15.2401 41.39 15.0201 41.55 14.8301 41.74C14.7201 41.84 14.5401 41.97 14.6301 42.14C14.7401 42.34 14.9101 42.16 15.0501 42.14C15.3201 42.1 15.5501 41.89 15.8301 41.9C16.3201 41.92 16.7901 42.07 17.2701 42.17C17.3201 42.18 17.3801 42.22 17.4201 42.26Z" fill="#00DB52" stroke="black" stroke-width="0.25" stroke-miterlimit="10"/>
<path d="M58.9597 21.3201C58.6897 21.1301 58.0397 21.1701 57.7797 21.3801C57.5997 21.5201 57.4597 21.7001 57.2097 21.7501C56.9097 21.8001 56.8697 21.8501 56.9197 22.1601C56.9597 22.4201 56.9197 22.6501 56.7597 22.8601C56.6297 23.0301 56.6597 23.1702 56.7597 23.3302C56.8597 23.4802 56.9697 23.6102 57.1697 23.5802C57.3197 23.5802 57.4397 23.5301 57.5397 23.4601C57.7897 23.2801 58.0697 23.1601 58.3797 23.1501C58.5097 23.1501 58.5897 23.0801 58.6397 22.9601C58.7097 22.8001 58.7997 22.6501 58.7997 22.4701C58.7997 22.2801 58.8497 22.1601 59.0097 22.0301C59.2597 21.8301 59.2097 21.5202 58.9497 21.3302L58.9597 21.3201Z" fill="#00DB52" stroke="black" stroke-width="0.25" stroke-miterlimit="10"/>
<path d="M20.75 44.07C20.56 44.09 20.38 44.12 20.2 44.16C20.11 44.18 20.04 44.23 20.04 44.34C20.04 44.42 20.11 44.47 20.18 44.48C20.74 44.55 21.29 44.77 21.85 44.66C22.26 44.58 22.67 44.51 23.07 44.43C23.2 44.4 23.34 44.38 23.36 44.22C23.39 44.05 23.26 43.97 23.14 43.88C22.81 43.64 22.38 43.63 22.05 43.37C21.99 43.32 21.85 43.35 21.75 43.35C21.62 43.35 21.49 43.36 21.44 43.37C21.3 43.37 21.24 43.35 21.19 43.36C21.03 43.39 20.83 43.22 20.71 43.4C20.6 43.58 20.82 43.67 20.89 43.8C20.96 43.96 20.93 44.04 20.74 44.06L20.75 44.07Z" fill="#00DB52" stroke="black" stroke-width="0.25" stroke-miterlimit="10"/>
<path d="M47.0596 92.3099C54.4196 94.4099 62.7396 92.8299 68.8096 88.1699" stroke="black" stroke-width="0.25" stroke-miterlimit="10"/>
<path d="M2.61035 52.3398C3.56035 59.2898 6.59039 65.9398 11.2104 71.2198" stroke="black" stroke-width="0.25" stroke-miterlimit="10"/>
<path d="M59.7305 3.58003C61.8305 3.54003 63.9405 4.34999 65.4805 5.78999" stroke="black" stroke-width="0.25" stroke-miterlimit="10"/>
<path d="M62.9404 5.41992C63.5304 5.67992 64.0504 6.11992 64.3904 6.66992" stroke="black" stroke-width="0.25" stroke-miterlimit="10"/>
<path d="M64.8 6.08997C65.82 6.56997 66.6601 7.42 67.1401 8.44" stroke="black" stroke-width="0.25" stroke-miterlimit="10"/>
</svg>
