<svg width="48" height="48" viewBox="0 0 48 48" fill="none" xmlns="http://www.w3.org/2000/svg">
<rect x="8.95925" y="14.0418" width="25.726" height="18.9642" rx="3.74625" transform="rotate(-11.3949 8.95925 14.0418)" fill="#9BCEBD" stroke="#171718" stroke-width="1.62881"/>
<rect x="8.8898" y="13.9266" width="28.9928" height="14.3335" rx="2.76897" fill="#DCE0E1" stroke="#171718" stroke-width="1.62881"/>
<path d="M13.1621 24.0667V20.1838C13.1621 20.0066 13.1621 19.8227 13.1621 19.632C13.1689 19.4412 13.1723 19.2505 13.1723 19.0597C12.9611 19.2709 12.7295 19.4514 12.4775 19.6013C12.2254 19.7512 11.9597 19.8534 11.6804 19.9079L11.5272 18.4568C11.6907 18.4364 11.8678 18.3921 12.0585 18.324C12.2493 18.2491 12.4366 18.1571 12.6205 18.0481C12.8113 17.9391 12.9782 17.8233 13.1212 17.7007C13.2711 17.5713 13.3835 17.4452 13.4584 17.3226H14.8584V24.0667H13.1621ZM16.2271 24.0667V22.9427C16.7857 22.5817 17.2625 22.2445 17.6576 21.9311C18.0527 21.6177 18.3729 21.3214 18.6182 21.0421C18.8702 20.7628 19.0541 20.4971 19.1699 20.2451C19.2858 19.993 19.3437 19.7478 19.3437 19.5093C19.3437 19.2505 19.2721 19.0359 19.1291 18.8656C18.986 18.6885 18.7714 18.5999 18.4853 18.5999C18.1856 18.5999 17.9506 18.7191 17.7802 18.9575C17.6168 19.1892 17.5282 19.5298 17.5146 19.9794L16.0125 19.5196C16.0261 19.0086 16.1453 18.5829 16.3701 18.2423C16.6017 17.9016 16.9117 17.6462 17.3 17.4759C17.6883 17.3056 18.1209 17.2204 18.5977 17.2204C19.1836 17.2204 19.6604 17.3294 20.0283 17.5474C20.3962 17.7586 20.6652 18.0311 20.8355 18.3649C21.0059 18.6919 21.091 19.0325 21.091 19.3867C21.091 19.8227 20.982 20.2314 20.764 20.6129C20.5528 20.9876 20.2395 21.3521 19.8239 21.7063C19.4152 22.0537 18.9179 22.4045 18.332 22.7588V22.769C18.4478 22.7622 18.5841 22.7554 18.7408 22.7486C18.8975 22.7418 19.0575 22.7383 19.221 22.7383C19.3913 22.7315 19.5446 22.7281 19.6809 22.7281H21.1625V24.0667H16.2271ZM24.5958 24.1689C23.8941 24.1689 23.3082 24.0259 22.8382 23.7397C22.3681 23.4536 22.0412 23.0415 21.8572 22.5033L23.4717 21.8085C23.5058 22.1695 23.6148 22.4284 23.7987 22.5851C23.9895 22.7349 24.2313 22.8099 24.5242 22.8099C24.7831 22.8099 24.9875 22.7383 25.1373 22.5953C25.294 22.4454 25.3723 22.2445 25.3723 21.9924C25.3723 21.8153 25.3383 21.6756 25.2702 21.5735C25.202 21.4645 25.1033 21.3861 24.9738 21.3384C24.8512 21.2839 24.7013 21.2567 24.5242 21.2567C24.4357 21.2567 24.3539 21.2601 24.279 21.2669C24.2109 21.2669 24.1325 21.2737 24.044 21.2873V20.1429C24.0916 20.1497 24.1427 20.1565 24.1972 20.1633C24.2517 20.1633 24.313 20.1633 24.3812 20.1633C24.6809 20.1633 24.8989 20.0986 25.0351 19.9692C25.1714 19.8329 25.2395 19.6217 25.2395 19.3356C25.2395 19.0904 25.1714 18.903 25.0351 18.7736C24.9057 18.6442 24.7252 18.5795 24.4936 18.5795C24.2415 18.5795 24.0337 18.651 23.8702 18.7941C23.7136 18.9371 23.6114 19.1721 23.5637 19.4991L22.0207 18.9678C22.0957 18.5931 22.2523 18.2763 22.4908 18.0175C22.7292 17.7586 23.0323 17.561 23.4002 17.4248C23.7681 17.2885 24.17 17.2204 24.606 17.2204C25.1101 17.2204 25.5324 17.2988 25.873 17.4554C26.2205 17.6053 26.4827 17.8199 26.6599 18.0992C26.8438 18.3717 26.9358 18.6953 26.9358 19.0699C26.9358 19.3629 26.8881 19.6115 26.7927 19.8159C26.7041 20.0134 26.5917 20.1735 26.4555 20.2962C26.3193 20.412 26.183 20.5005 26.0468 20.5618C25.9105 20.6163 25.7981 20.6504 25.7096 20.664V20.6947C25.8186 20.6947 25.948 20.7185 26.0979 20.7662C26.2545 20.8139 26.4044 20.8922 26.5475 21.0012C26.6973 21.1034 26.82 21.2465 26.9153 21.4304C27.0175 21.6143 27.0686 21.8425 27.0686 22.115C27.0686 22.5374 26.9596 22.9018 26.7416 23.2084C26.5236 23.5149 26.2273 23.7534 25.8526 23.9237C25.4847 24.0872 25.0658 24.1689 24.5958 24.1689Z" fill="#171718"/>
<circle cx="33.4847" cy="21.2563" r="0.977284" fill="black"/>
<circle cx="30.2272" cy="21.2562" r="0.977284" fill="black"/>
<circle cx="30.5529" cy="31.3548" r="9.44708" fill="#DCE0E1"/>
<circle cx="30.5529" cy="31.3548" r="7.32963" stroke="#171718" stroke-width="1.62881"/>
<path d="M27.5737 33.6518C27.5742 33.8429 27.6504 34.026 27.7858 34.1608C27.9212 34.2957 28.1045 34.3714 28.2956 34.3711L32.1418 34.3653C32.3331 34.3649 32.5164 34.2886 32.6514 34.1531C32.7865 34.0176 32.8621 33.834 32.8618 33.6427C32.8614 33.4514 32.7851 33.2681 32.6496 33.133C32.5141 32.998 32.3305 32.9223 32.1392 32.9227L30.0341 32.9261L33.948 28.9982C34.083 28.8627 34.1586 28.6791 34.1583 28.4879C34.158 28.2967 34.0817 28.1134 33.9462 27.9784C33.8107 27.8434 33.6272 27.7678 33.4359 27.7681C33.2447 27.7685 33.0614 27.8448 32.9264 27.9802L29.0125 31.9082L29.0087 29.8034C29.0086 29.7087 28.9898 29.6149 28.9533 29.5275C28.9169 29.44 28.8637 29.3606 28.7966 29.2937C28.7295 29.2269 28.6499 29.1739 28.5623 29.1378C28.4747 29.1017 28.3809 29.0832 28.2862 29.0834C28.1914 29.0836 28.0977 29.1024 28.0102 29.1388C27.9228 29.1752 27.8434 29.2285 27.7765 29.2956C27.7096 29.3627 27.6566 29.4423 27.6206 29.5299C27.5845 29.6174 27.566 29.7113 27.5661 29.806L27.5737 33.6518Z" fill="#171718"/>
</svg>
