<svg width="48" height="48" viewBox="0 0 48 48" fill="none" xmlns="http://www.w3.org/2000/svg">
<rect x="9.35211" y="12.3521" width="29.2958" height="23.4366" rx="6.30986" fill="#FECE90" stroke="#171718" stroke-width="2.70423"/>
<g clip-path="url(#clip0_1_54)">
<path d="M28.9942 22.9186C29.1802 22.7327 29.4323 22.6283 29.6952 22.6283C29.9582 22.6283 30.2103 22.7327 30.3963 22.9186L33.7602 26.7167C33.9461 26.9026 34.0505 27.1548 34.0505 27.4177C34.0505 27.6806 33.9461 27.9328 33.7602 28.1187L30.106 31.6793C29.9189 31.8599 29.6685 31.9599 29.4085 31.9576C29.1485 31.9553 28.8998 31.8511 28.716 31.6672C28.5321 31.4834 28.4279 31.2347 28.4256 30.9747C28.4233 30.7147 28.5233 30.4642 28.7039 30.2772L30.5803 28.4093H21.1606C20.8976 28.4093 20.6454 28.3048 20.4595 28.1188C20.2735 27.9329 20.1691 27.6807 20.1691 27.4177C20.1691 27.1547 20.2735 26.9025 20.4595 26.7166C20.6454 26.5306 20.8976 26.4262 21.1606 26.4262H30.5803L28.9942 24.3207C28.8083 24.1347 28.7039 23.8826 28.7039 23.6196C28.7039 23.3567 28.8083 23.1046 28.9942 22.9186Z" fill="#171718"/>
</g>
<g clip-path="url(#clip1_1_54)">
<path d="M18.5551 16.6087C18.3691 16.4228 18.117 16.3184 17.854 16.3184C17.5911 16.3184 17.3389 16.4228 17.153 16.6087L13.789 20.4068C13.6032 20.5927 13.4987 20.8449 13.4987 21.1078C13.4987 21.3707 13.6032 21.6229 13.789 21.8088L17.4433 25.3694C17.6303 25.55 17.8808 25.6499 18.1408 25.6477C18.4008 25.6454 18.6494 25.5411 18.8333 25.3573C19.0171 25.1735 19.1214 24.9248 19.1237 24.6648C19.1259 24.4048 19.026 24.1543 18.8454 23.9673L16.9689 22.0994H26.3887C26.6516 22.0994 26.9038 21.9949 27.0898 21.8089C27.2757 21.623 27.3802 21.3708 27.3802 21.1078C27.3802 20.8448 27.2757 20.5926 27.0898 20.4067C26.9038 20.2207 26.6516 20.1163 26.3887 20.1163H16.9689L18.5551 18.0108C18.7409 17.8248 18.8454 17.5727 18.8454 17.3097C18.8454 17.0468 18.7409 16.7947 18.5551 16.6087Z" fill="#171718"/>
</g>
<defs>
<clipPath id="clip0_1_54">
<rect width="14.8732" height="14.8732" fill="white" transform="translate(19.7183 19.5633)"/>
</clipPath>
<clipPath id="clip1_1_54">
<rect width="14.8732" height="14.8732" fill="white" transform="matrix(-1 0 0 1 27.831 13.2534)"/>
</clipPath>
</defs>
</svg>
