<svg width="48" height="48" viewBox="0 0 48 48" fill="none" xmlns="http://www.w3.org/2000/svg">
<path d="M18.8551 34.7628H12.3086C12.0855 34.7626 11.8661 34.7055 11.6713 34.5968C11.4765 34.4881 11.3127 34.3314 11.1954 34.1416C11.0782 33.9518 11.0114 33.7352 11.0013 33.5124C10.9913 33.2895 11.0384 33.0678 11.1381 32.8682L13.6179 27.9059V24.2883C13.6179 21.5103 14.7215 18.8461 16.6858 16.8817C18.6502 14.9174 21.3144 13.8138 24.0924 13.8138C26.8704 13.8138 29.5346 14.9174 31.4989 16.8817C33.4633 18.8461 34.5668 21.5103 34.5668 24.2883V27.9072L37.0466 32.8682C37.1464 33.0678 37.1934 33.2895 37.1834 33.5124C37.1734 33.7352 37.1066 33.9518 36.9893 34.1416C36.872 34.3314 36.7082 34.4881 36.5134 34.5968C36.3186 34.7055 36.0992 34.7626 35.8761 34.7628H29.3296M18.8551 34.7628H29.3296M18.8551 34.7628C18.8551 36.1518 19.4069 37.4839 20.3891 38.466C21.3713 39.4482 22.7034 40 24.0924 40C25.4814 40 26.8135 39.4482 27.7956 38.466C28.7778 37.4839 29.3296 36.1518 29.3296 34.7628" stroke="#1332DD" stroke-width="3" stroke-linecap="round" stroke-linejoin="round"/>
<path d="M20.0981 14.9238C20.0981 11.0999 21.8865 7.99997 24.0926 7.99998C26.2987 7.99998 28.0871 11.0999 28.0871 14.9238" stroke="#1332DD" stroke-width="2"/>
</svg>
