<svg width="48" height="48" viewBox="0 0 48 48" fill="none" xmlns="http://www.w3.org/2000/svg">
<path d="M8.84211 12.2105C8.84211 10.3502 10.3502 8.84211 12.2105 8.84211H24H27.9703C29.1368 8.84211 30.2203 9.44567 30.8343 10.4375L35.0685 17.2773L38.6928 23.4387C38.9973 23.9564 39.1579 24.546 39.1579 25.1466V35.7895C39.1579 37.6498 37.6498 39.1579 35.7895 39.1579H12.2105C10.3502 39.1579 8.84211 37.6498 8.84211 35.7895V12.2105Z" fill="#02B675" stroke="#171718" stroke-width="1.68421"/>
<path d="M29.4737 10.9474C32 19.7895 28.4871 13.0526 27.7895 13.0526C27.0919 13.0526 26.9474 11.645 26.9474 10.9474C26.9474 10.2497 27.5129 9.6842 28.2105 9.6842C28.9081 9.6842 29.4737 10.2497 29.4737 10.9474Z" fill="#ACE2CB"/>
<path d="M14.8086 14.6415C14.5759 14.0866 14.9835 13.4737 15.5852 13.4737H28.2842C28.6407 13.4737 28.9586 13.6982 29.0778 14.0342L32.5142 23.7184C32.7087 24.2665 32.3022 24.8421 31.7205 24.8421H19.6463C19.3071 24.8421 19.001 24.6385 18.8698 24.3257L14.8086 14.6415Z" fill="#E9F9F1" stroke="#171718" stroke-width="1.68421"/>
<line x1="18.9474" y1="24" x2="18.9474" y2="39.1579" stroke="#171718" stroke-width="1.68421"/>
<line x1="12.1431" y1="8.51199" x2="18.0851" y2="22.4567" stroke="#171718" stroke-width="1.68421"/>
<path d="M14.7368 12.6316H18.5263V14.3158H14.7368V12.6316Z" fill="#171718"/>
<path d="M19.7895 25.6842H38.3158V35.7895C38.3158 37.1847 37.1847 38.3158 35.7895 38.3158H19.7895V25.6842Z" fill="#ACE2CB"/>
<rect x="23.1579" y="29.0526" width="8.42105" height="3.36842" rx="1.68421" fill="#02B675" stroke="#171718" stroke-width="1.68421"/>
<path d="M13.4737 9.6842H28.2105V12.6316H14.7368L13.4737 9.6842Z" fill="#ACE2CB"/>
<path d="M29.2337 11.3164C30.3284 15.4495 33.0263 22.6342 33.2609 23.5726C33.5216 24.6154 32.9584 25.221 32.4302 25.5066C32.1675 25.6487 31.9114 25.8217 31.7578 26.0778L31.2964 26.8469C31.0491 27.259 31.346 27.7832 31.8265 27.7832C31.9386 27.7832 32.0485 27.7528 32.1446 27.6951L33.0504 27.1517C33.7392 26.7384 34.5273 26.5201 35.3306 26.5201H37.0504C37.3309 26.5201 37.9756 26.3519 38.3127 25.6797C38.313 25.6791 38.314 25.6791 38.3142 25.6798C38.3145 25.6806 38.3158 25.6804 38.3158 25.6795L38.3137 24.4707C38.3136 24.4341 38.3039 24.3981 38.2856 24.3665L30.613 11.1159C29.6132 9.38946 28.7228 9.38791 29.2337 11.3164Z" fill="#ACE2CB"/>
<circle cx="29.0526" cy="10.5263" r="0.842105" fill="#ACE2CB"/>
<path d="M8.84211 12.2105C8.84211 10.3502 10.3502 8.84211 12.2105 8.84211H24H27.9703C29.1368 8.84211 30.2203 9.44567 30.8343 10.4375L35.0685 17.2773L38.6928 23.4387C38.9973 23.9564 39.1579 24.546 39.1579 25.1466V35.7895C39.1579 37.6498 37.6498 39.1579 35.7895 39.1579H12.2105C10.3502 39.1579 8.84211 37.6498 8.84211 35.7895V12.2105Z" stroke="#171718" stroke-width="1.68421"/>
</svg>
