<svg width="48" height="48" viewBox="0 0 48 48" fill="none" xmlns="http://www.w3.org/2000/svg">
<path d="M39.3514 23.5676C39.3514 21.5376 37.7057 19.8919 35.6757 19.8919H24.2162V35.027H35.6757C37.7057 35.027 39.3514 33.3814 39.3514 31.3514V23.5676Z" fill="#04B773" stroke="#171718" stroke-width="1.2973"/>
<line x1="19.2432" y1="38.2703" x2="19.2432" y2="8.86486" stroke="#61696B" stroke-width="3.45946"/>
<rect x="20.973" y="8.86487" width="2.59459" height="4.32432" fill="black"/>
<rect x="23.5676" y="8.86487" width="2.59459" height="4.32432" fill="white"/>
<rect x="20.973" y="13.1892" width="2.59459" height="4.32432" fill="white"/>
<rect x="23.5676" y="13.1892" width="2.59459" height="4.32432" fill="black"/>
<rect x="20.973" y="17.5135" width="2.59459" height="4.32432" fill="black"/>
<rect x="23.5676" y="17.5135" width="2.59459" height="4.32432" fill="white"/>
<rect x="20.973" y="21.8378" width="2.59459" height="4.32432" fill="white"/>
<rect x="23.5676" y="21.8378" width="2.59459" height="4.32432" fill="black"/>
<rect x="20.973" y="26.1622" width="2.59459" height="4.32432" fill="black"/>
<rect x="23.5676" y="26.1622" width="2.59459" height="4.32432" fill="white"/>
<rect x="20.973" y="30.4865" width="2.59459" height="4.32432" fill="white"/>
<rect x="23.5676" y="30.4865" width="2.59459" height="4.32432" fill="black"/>
<rect x="20.973" y="34.8108" width="2.59459" height="4.32432" fill="black"/>
<rect x="23.5676" y="34.8108" width="2.59459" height="4.32432" fill="white"/>
<line x1="21.473" y1="9.72974" x2="21.473" y2="38.2703" stroke="#171718"/>
<rect x="16.6486" y="8.86486" width="10.3784" height="30.2703" rx="1.72973" stroke="#171718" stroke-width="1.72973"/>
<mask id="path-19-inside-1_30_108" fill="white">
<path d="M8 17.5135C8 15.6029 9.54885 14.054 11.4595 14.054H20.973V25.2973H11.4595C9.54886 25.2973 8 23.7484 8 21.8378V17.5135Z"/>
</mask>
<path d="M8 17.5135C8 15.6029 9.54885 14.054 11.4595 14.054H20.973V25.2973H11.4595C9.54886 25.2973 8 23.7484 8 21.8378V17.5135Z" fill="#FF0E0C"/>
<path d="M6.7027 17.5135C6.7027 14.8864 8.83238 12.7567 11.4595 12.7567H20.973V15.3513H11.4595C10.2653 15.3513 9.2973 16.3194 9.2973 17.5135L6.7027 17.5135ZM20.973 26.5946H11.4595C8.83238 26.5946 6.7027 24.4649 6.7027 21.8378L9.2973 21.8378C9.2973 23.032 10.2653 24 11.4595 24H20.973V26.5946ZM11.4595 26.5946C8.83238 26.5946 6.7027 24.4649 6.7027 21.8378V17.5135C6.7027 14.8864 8.83238 12.7567 11.4595 12.7567L11.4595 15.3513C10.2653 15.3513 9.2973 16.3194 9.2973 17.5135V21.8378C9.2973 23.032 10.2653 24 11.4595 24L11.4595 26.5946ZM20.973 14.054V25.2973V14.054Z" fill="#171718" mask="url(#path-19-inside-1_30_108)"/>
</svg>
