<svg width="48" height="48" viewBox="0 0 48 48" fill="none" xmlns="http://www.w3.org/2000/svg">
<path d="M37.5 17L34.5563 9.36581C34.2389 8.54283 33.4478 8 32.5658 8H16.4148C15.5661 8 14.7981 8.50309 14.4591 9.28116L11.0667 17.0667" stroke="#1332DD" stroke-width="2.66667"/>
<path d="M10 16.5L38.8 16.5V19.2H10V16.5Z" fill="#1332DD"/>
<line x1="20.9967" y1="9.16045" x2="20.3966" y2="17.6727" stroke="#1332DD" stroke-width="2.66667"/>
<line y1="-1.33333" x2="8.53333" y2="-1.33333" transform="matrix(0.0703291 0.997524 0.997524 -0.0703291 29.2 9.06668)" stroke="#1332DD" stroke-width="2.66667"/>
<rect x="14.2667" y="23.4667" width="3.2" height="4.8" fill="#1332DD"/>
<rect x="31.8667" y="23.4667" width="3.2" height="4.8" fill="#1332DD"/>
<path d="M20.6667 19.2C20.6667 21.8509 18.5176 24 15.8667 24C13.2157 24 11.0667 21.8509 11.0667 19.2" stroke="#1332DD" stroke-width="2.13333"/>
<path d="M29.2 19.2C29.2 21.8509 27.051 24 24.4 24C21.749 24 19.6 21.8509 19.6 19.2" stroke="#1332DD" stroke-width="2.13333"/>
<path d="M37.7333 19.2C37.7333 21.8509 35.5843 24 32.9333 24C30.2824 24 28.1333 21.8509 28.1333 19.2" stroke="#1332DD" stroke-width="2.13333"/>
<rect x="12.6667" y="29.3333" width="23.4667" height="9.06667" rx="1.6" stroke="#1332DD" stroke-width="3.2"/>
</svg>
