<svg width="184" height="178" viewBox="0 0 184 178" fill="none" xmlns="http://www.w3.org/2000/svg">
<path d="M22.7275 96.8169C12.9375 107.777 5.83759 121.117 2.19759 135.347C1.17759 139.327 0.437587 143.547 1.56759 147.497C3.02759 152.557 7.45753 156.377 12.3875 158.227C17.3175 160.077 22.7275 160.227 27.9875 159.947C35.8275 159.527 43.7975 158.137 50.6475 154.307C57.4975 150.477 63.1375 143.897 64.3375 136.127" stroke="white" stroke-width="2" stroke-miterlimit="10"/>
<path d="M104.935 167.427C148.264 161.638 178.694 121.812 172.904 78.4725C167.113 35.1332 127.295 4.69268 83.9665 10.4816C40.6381 16.2705 10.2077 56.0968 15.9981 99.4361C21.7885 142.775 61.607 173.216 104.935 167.427Z" fill="#6516E9"/>
<path d="M42.0343 71.2428C46.6443 71.1213 50.3139 68.4628 50.2306 65.3048C50.1474 62.1468 46.3428 59.6853 41.7328 59.8068C37.1228 59.9283 33.4532 62.5869 33.5365 65.7449C33.6197 68.9028 37.4243 71.3644 42.0343 71.2428Z" fill="url(#paint0_linear_111_188)"/>
<path d="M74.6225 143.451C79.447 140.417 81.6703 135.273 79.5884 131.964C77.5065 128.654 71.9077 128.431 67.0832 131.465C62.2587 134.5 60.0354 139.643 62.1173 142.953C64.1992 146.263 69.7979 146.486 74.6225 143.451Z" fill="url(#paint1_linear_111_188)"/>
<defs>
<linearGradient id="paint0_linear_111_188" x1="54.0599" y1="65.2271" x2="37.4157" y2="65.6658" gradientUnits="userSpaceOnUse">
<stop stop-color="#5743E4"/>
<stop offset="1" stop-color="#242181"/>
</linearGradient>
<linearGradient id="paint1_linear_111_188" x1="75.1142" y1="134.379" x2="57.5923" y2="145.4" gradientUnits="userSpaceOnUse">
<stop stop-color="#5743E4"/>
<stop offset="1" stop-color="#242181"/>
</linearGradient>
</defs>
</svg>
