<svg width="591" height="592" viewBox="0 0 591 592" fill="none" xmlns="http://www.w3.org/2000/svg">
<mask id="mask0_111_4" style="mask-type:luminance" maskUnits="userSpaceOnUse" x="-1" y="0" width="593" height="593">
<path d="M591 0.900391H-0.269531V592.17H591V0.900391Z" fill="white"/>
</mask>
<g mask="url(#mask0_111_4)">
<g style="mix-blend-mode:multiply">
<path d="M447.88 447.261C442.09 447.261 436.3 447.01 430.53 447.32C421.25 447.81 411.96 447.93 402.67 448.19C389.02 448.57 375.6 450.83 362.37 454.24C354.74 456.21 346.95 457.17 339.06 457.47C334.02 457.66 329.01 458.41 323.97 458.86C320.17 459.19 316.34 459.361 312.58 458.791C310.17 458.421 307.86 458.101 305.49 458.811C304.96 458.971 304.37 459.041 303.82 459.021C296.76 458.701 289.8 460.171 282.74 460.061C278.55 459.991 274.37 460.961 270.12 460.791C261.7 460.451 253.31 459.87 244.97 458.48C241.94 457.97 238.81 458.06 235.76 457.48C234.2 457.19 232.83 457.831 231.37 458.531C221.4 463.311 210.08 458.48 207.44 448.19C205.95 442.38 207.06 437.08 211.12 432.45C215.43 427.54 220.81 425.291 227.22 424.171C233.95 422.991 240.38 424.44 246.91 424.95C250.11 425.2 253.37 425.601 256.54 425.811C263.93 426.311 271.3 427.771 278.82 426.281C283.32 425.391 288.07 425.77 292.69 425.49C298.72 425.12 304.73 424.25 310.8 424.37C313.37 424.42 315.81 425.371 318.34 425.151C322.82 424.751 327.38 424.79 331.78 424.12C336.39 423.42 341.02 423.68 345.62 422.86C351.15 421.88 356.68 420.97 362.11 419.57C372.21 416.96 382.4 415.391 392.86 414.921C400.74 414.561 408.65 414.73 416.48 414.08C432.4 412.75 448.33 413.85 464.24 413.35C466.21 413.29 468.15 413.09 470.11 412.84C477.25 411.94 483.82 412.94 488.94 418.85C496.24 427.28 493.13 438.851 485.34 443.881C482.72 445.571 479.83 446.331 476.59 446.551C471.82 446.881 467.06 447.26 462.27 447.24C457.47 447.22 452.68 447.24 447.88 447.24V447.271V447.261Z" fill="#CACAD6"/>
</g>
<g style="mix-blend-mode:multiply">
<path d="M-112.89 457.391C-109.63 458.321 -106.26 458.111 -102.91 458.301C-95.7799 458.711 -88.8699 457.651 -82.1599 455.371C-78.4099 454.101 -74.5799 453.101 -70.7199 452.551C-63.4799 451.531 -57.5899 447.981 -51.7099 444.001C-42.0199 437.451 -33.5899 429.27 -23.8399 422.82C-14.7299 416.79 -5.00993 411.801 5.85007 410.251C13.0301 409.231 20.4701 409.211 27.5801 411.791C32.4701 413.561 37.4701 415.051 42.3701 416.801C50.3001 419.631 54.1201 425.83 53.7101 434.95C53.4201 441.44 47.9601 447.581 40.8001 449.411C37.1101 450.351 33.5201 449.64 30.0301 448.45C26.1701 447.14 22.3601 445.72 18.4301 444.59C14.3401 443.41 10.3901 443.44 6.47007 445.09C0.750069 447.5 -4.67989 450.45 -9.54989 454.35C-11.6299 456.01 -11.7199 456.25 -10.1399 458.35C-2.65991 468.22 -7.28989 481.631 -18.9599 485.181C-26.7599 487.551 -34.7899 488.961 -42.7899 490.421C-47.8899 491.351 -53.1299 491.821 -58.0799 493.271C-62.2099 494.481 -65.1799 497.68 -66.7499 501.84C-67.3899 503.54 -67.7199 505.36 -68.2999 507.09C-68.9699 509.05 -70.3199 510.281 -72.4799 509.671C-76.8699 508.441 -81.4199 509.321 -85.8799 508.311C-94.0699 506.451 -101.92 504.22 -107.95 497.82C-109.72 495.95 -110.58 494.111 -110.61 491.501C-110.7 483.211 -111.98 475.011 -112.85 466.781C-113.16 463.871 -112.9 460.911 -112.9 457.391H-112.89Z" fill="#CACAD6"/>
</g>
<g style="mix-blend-mode:multiply">
<path d="M623.99 418.65C618.96 420.06 614.13 421.43 609.29 422.78C602.37 424.71 595.23 425.23 588.13 426.11C580.89 427.01 573.81 428.54 566.87 431.02C557.16 434.49 546.86 430.57 544.43 420.27C542.44 411.81 544.62 405.6 552.59 400.97C559.39 397.02 567.05 395.62 574.59 393.95C581.58 392.39 588.79 392.29 595.83 391.07C603.74 389.7 611.24 386.77 618.86 384.33C623.54 382.83 628.17 381.08 632.95 379.96C639.35 378.45 645.77 377.75 652.5 378.41C660.49 379.19 668.31 380.68 676.19 381.99C677.66 382.23 678.33 382.68 678.58 384.26C679.93 392.67 679.32 401.12 679.31 409.55C679.31 413.23 676.73 415.45 673.56 416.67C668.97 418.44 664.32 420.1 659.6 421.45C649.89 424.23 640.2 427.09 630.27 429.04C626.39 429.8 626.16 429.56 624.92 425.92C624.13 423.6 624.73 421.17 623.99 418.65Z" fill="#CACAD6"/>
</g>
<g style="mix-blend-mode:multiply">
<path d="M-82.4099 205.431C-78.8699 204.761 -75.4699 204.611 -72.2199 204.491C-66.5899 204.281 -60.98 203.781 -55.39 203.331C-47.57 202.691 -39.6999 202.351 -31.9399 201.091C-28.6099 200.551 -25.2099 200.571 -21.8699 200.301C-17.2599 199.921 -12.6199 199.481 -8.01993 199.051C-2.85992 198.571 2.36005 198.661 7.49005 197.661C10.9301 196.991 14.4901 197.281 17.9901 197.011C23.9601 196.561 29.9401 195.581 36.5201 195.851C35.2201 198.101 33.6701 199.481 31.9901 200.631C26.1801 204.601 20.39 208.601 14.42 212.321C8.87004 215.781 2.54007 217.331 -3.70993 219.031C-8.58993 220.361 -13.4299 221.851 -18.2699 223.321C-22.3199 224.551 -26.3999 225.371 -30.6799 225.511C-34.7399 225.641 -38.7699 226.341 -42.8799 226.261C-59.1799 225.931 -72.02 218.841 -82.2 206.421C-82.28 206.321 -82.2699 206.151 -82.4299 205.431H-82.4099Z" fill="#CACAD6"/>
</g>
<path d="M673.66 353.211C672.34 352.381 670.84 351.961 669.31 351.661C664.98 350.811 660.6 350.901 656.23 350.891C636.23 350.831 616.22 351.051 596.22 350.781C590.84 346.301 581.29 343.821 561.68 346.151C486.95 329.391 412.23 312.621 337.5 295.861C270.45 280.821 201.43 265.701 133.56 276.511C114.13 279.601 94.9698 284.811 75.3198 285.721C59.7798 286.441 43.4498 284.221 29.7298 276.491C21.0798 271.621 13.1698 265.121 5.3698 275.021C-1.3402 283.541 -3.3002 296.191 -5.3802 306.521C-7.0302 314.701 -23.6302 404.151 -21.3102 404.661C-20.7602 404.781 -20.2102 404.891 -19.6702 405.011C-19.9202 405.171 -20.1502 405.331 -20.4002 405.491C-33.7602 413.701 -47.8702 420.441 -62.0902 426.981C-66.3202 428.931 -70.5302 430.931 -74.4302 433.461C-78.4802 436.081 -82.8402 437.281 -87.6202 437.261C-91.4502 437.251 -95.2202 437.771 -98.8902 438.871C-105.74 440.931 -108.32 443.881 -108.65 450.891C-109.03 459.051 -109.91 467.211 -109.11 475.411C-108.63 480.321 -108.4 485.251 -108.12 490.181C-107.42 502.571 -106.95 514.981 -106.03 527.351C-104.46 548.301 -102.26 569.201 -101.77 590.231C-101.64 595.701 -101.41 601.231 -99.7202 606.551C-98.6602 609.881 -96.5802 611.751 -92.9702 611.881C-89.0102 612.031 -85.0802 611.921 -81.1702 611.241C-75.6102 610.281 -70.0302 609.341 -64.3902 609.171C-35.7702 608.341 -7.17023 606.781 21.4698 606.321C68.5898 605.571 115.7 604.211 162.83 604.641C189.51 604.881 216.15 603.731 242.79 602.171C248.43 602.171 254.08 602.351 259.71 602.141C284.38 601.191 309.04 600.071 333.71 599.131C348.37 598.571 363.05 598.391 377.7 597.741C400.96 596.711 424.21 595.441 447.49 595.641C487.85 595.981 545.73 597.461 585.99 594.161C598.49 593.141 593.45 590.051 605.87 588.221C617.16 586.561 628.44 584.781 639.8 583.571C645.53 582.961 651.24 582.031 656.61 579.631C660.76 577.771 663.48 574.871 664.53 570.391C665.52 566.131 666.53 561.861 666.77 557.491C667.32 547.211 667.77 536.921 668.22 526.641C668.72 515.231 669.27 503.821 669.54 492.391C670.06 471.101 670.99 449.811 671.48 428.521C671.81 413.991 671.7 399.461 671.74 384.921C671.75 380.681 671.91 376.431 672.77 372.291C673.77 367.501 673.36 362.461 675.61 357.871C676.51 356.041 675.38 354.291 673.65 353.211H673.66Z" fill="url(#paint0_linear_111_4)"/>
<g style="mix-blend-mode:multiply">
<path d="M371.729 613.19C373.669 610.31 376.449 609.39 378.789 608.14C387.359 603.56 396.31 599.78 405.39 596.33C419.46 590.99 433.82 586.51 448.18 582.05C459.17 578.63 470.41 576.26 481.76 574.27C490.04 572.82 498.37 571.77 506.64 570.28C514.01 568.95 521.509 569.43 528.959 569.3C543.389 569.05 557.099 572.12 570.339 577.72C574.989 579.69 579.629 581.77 584.729 582.39C588.339 582.83 591.939 583.38 595.569 583.69C608.349 584.78 621.169 584.57 633.979 584.57C642.299 584.57 650.49 585.73 658.56 587.59C668.86 589.96 679.16 591.68 689.81 591.42C699.22 591.19 708.619 592.36 718.069 592.37C721.649 592.37 725.319 592.94 728.969 593.04C731.379 593.11 733.33 592.3 735.05 590.64C741.13 584.77 747.21 578.91 753.39 573.15C755.47 571.21 756.88 568.74 758.9 566.76C763.85 561.92 769.379 557.82 775.229 554.17C780.859 550.66 786.879 547.88 792.819 544.96C795.989 543.4 796.59 543.71 796.5 547.15C796.35 553.19 796.75 559.21 795.88 565.27C795.25 569.68 794.84 574.15 794.24 578.59C793 587.79 786.719 591.27 778.839 592.93C772.539 594.26 766.119 594.88 759.719 595.64C751.249 596.65 742.83 598.15 734.4 599.49C731.63 599.93 728.82 600.25 726.06 600.47C719.21 601.02 712.4 601.94 705.55 602.45C698.28 602.99 691 603.5 683.76 604.2C677.98 604.76 672.19 604.25 666.51 604.99C660.04 605.83 653.55 605.15 647.13 605.81C632.49 607.31 617.839 606.27 603.209 606.52C591.499 606.73 579.789 606.71 568.089 606.52C555.409 606.31 542.779 607.5 530.099 607.64C523.959 607.71 517.699 607.64 511.589 608.39C504.829 609.21 498.05 608.44 491.37 609.23C481.09 610.44 470.79 609.19 460.57 610.09C452.68 610.78 444.81 610.32 436.96 610.88C424.48 611.77 411.97 611.97 399.5 612.71C391.33 613.19 383.189 613.04 375.039 613.33C374.109 613.36 373.18 613.24 371.76 613.17L371.729 613.19Z" fill="#DFDFE7"/>
</g>
<g style="mix-blend-mode:multiply">
<path d="M117.63 604.45C115.99 605.13 114.6 604.871 113.27 604.871C104.39 604.901 95.4701 604.401 86.6201 605.011C69.3001 606.211 51.9501 604.89 34.6801 605.94C22.4201 606.68 10.1501 605.711 -2.02992 606.771C-10.2899 607.481 -18.5599 607.131 -26.8299 608.061C-34.4899 608.921 -42.3499 607.901 -50.0699 608.421C-56.4899 608.851 -62.9299 609.101 -69.3599 609.741C-77.0199 610.491 -84.5899 612.401 -92.3999 611.741C-96.4299 611.401 -98.5599 610.14 -99.7499 606.19C-100.56 603.51 -101.03 600.76 -101.27 597.95C-101.92 590.38 -101.55 582.72 -102.33 575.22C-102.94 569.36 -102.17 563.421 -103.65 557.611C-104.42 554.561 -103.43 553.741 -100.27 553.251C-93.0499 552.131 -85.8099 551.491 -78.4799 551.521C-67.0799 551.571 -56.2299 553.98 -45.6999 558.19C-37.3099 561.55 -29.4199 565.94 -21.3599 569.97C-16.4699 572.42 -11.3599 573.361 -5.93993 573.651C6.43008 574.311 18.5801 576.041 30.0901 581.161C38.1701 584.761 46.0001 588.901 54.2601 592.131C60.0701 594.401 66.12 595.501 72.22 596.421C81.2101 597.781 90.2601 598.75 99.2001 600.45C104.56 601.47 109.96 602.32 115.34 603.22C116.04 603.34 116.74 603.37 117.62 604.46L117.63 604.45Z" fill="#DFDFE7"/>
</g>
<g style="mix-blend-mode:multiply">
<path d="M488.01 512.641C474.4 512.301 460.91 511.041 447.57 508.091C440.84 506.601 434.19 504.981 427.83 502.311C424.29 500.831 420.97 498.941 418.52 495.921C415.34 492.011 417.02 486.371 421.65 484.921C424.1 484.151 426.17 485.191 427.99 486.451C433.31 490.131 439.28 492.271 445.51 493.381C453.35 494.781 461.08 496.671 469.06 497.531C479.9 498.701 490.73 498.371 501.53 498.031C510.15 497.751 518.76 496.101 527.32 494.721C537.98 493.001 548.53 490.721 558.72 486.991C567.34 483.831 575.51 479.751 583.44 475.171C585.52 473.971 587.57 473.481 589.86 473.711C594.56 474.171 597.12 480.451 594.07 484.051C591.8 486.731 588.79 488.261 585.86 489.861C570.21 498.441 553.59 504.441 535.99 507.331C527.31 508.761 518.66 510.471 509.82 511.071C502.56 511.571 495.34 512.681 488.02 512.631L488.01 512.641Z" fill="#DFDFE7"/>
</g>
<g style="mix-blend-mode:multiply">
<path d="M312.544 526.249C304.924 526.458 298.264 525.449 291.554 524.799C286.804 524.339 282.084 523.938 277.394 522.948C271.114 521.618 265.354 519.118 259.974 515.708C257.064 513.858 256.184 509.728 257.804 506.738C259.434 503.718 262.594 502.519 266.154 503.759C267.744 504.309 269.244 505.138 270.714 505.968C275.334 508.578 280.314 509.709 285.564 510.279C292.544 511.039 299.554 511.339 306.514 512.049C318.594 513.279 330.244 511.168 341.914 508.868C351.344 507.008 360.294 503.798 368.464 498.488C373.224 495.398 378.074 497.319 379.464 502.409C380.234 505.199 379.144 507.939 376.144 509.929C371.214 513.199 365.954 515.848 360.414 517.968C350.374 521.798 339.924 524.018 329.344 525.238C323.524 525.908 317.634 527.029 312.544 526.259V526.249Z" fill="#DFDFE7"/>
</g>
<path d="M352.885 479.711C353.509 470.066 332.792 460.875 306.613 459.182C280.435 457.489 258.707 463.935 258.083 473.58C257.459 483.225 278.176 492.416 304.355 494.109C330.534 495.802 352.261 489.355 352.885 479.711Z" fill="#141419"/>
<path d="M171.015 386.75C171.378 381.139 158.215 375.72 141.615 374.647C125.015 373.573 111.264 377.252 110.901 382.862C110.538 388.473 123.701 393.891 140.301 394.965C156.901 396.038 170.652 392.36 171.015 386.75Z" fill="#141419"/>
<path d="M59.375 469.946C62.0928 462.284 49.7679 450.92 31.8468 444.563C13.9256 438.206 -2.80546 439.264 -5.5232 446.926C-8.24094 454.588 4.08381 465.952 22.005 472.309C39.9261 478.666 56.6573 477.608 59.375 469.946Z" fill="#141419"/>
<path d="M3.15627 387.002C22.1014 385.371 36.8439 376.898 36.0846 368.078C35.3253 359.257 19.3517 353.429 0.406648 355.06C-18.5385 356.691 -33.281 365.163 -32.5217 373.984C-31.7624 382.804 -15.7888 388.633 3.15627 387.002Z" fill="#141419"/>
<path d="M624.062 560.017C627.231 553.748 616.042 541.712 599.07 533.136C582.099 524.559 565.773 522.689 562.604 528.959C559.436 535.229 570.625 547.265 587.596 555.841C604.567 564.418 620.894 566.287 624.062 560.017Z" fill="#141419"/>
<path d="M278.15 496.13C270.76 493.67 263.43 490.96 256.48 487.42C250.25 484.24 243.67 480.4 238.98 475.12C236.84 472.71 235.17 468.98 237.61 466.15C238.75 464.82 240.5 464.2 242.21 463.81C252 461.62 261.7 458.7 271.41 456.12" stroke="#141419" stroke-miterlimit="10"/>
<path d="M333.87 496.66C342.66 495.58 352.67 494.6 359.9 488.95C362.67 486.78 367.06 482.56 365.43 478.65C363.48 473.97 359.55 471.07 355.33 468.58C354.29 467.97 353.28 467.33 352.36 466.55C351.49 465.82 350.68 464.97 349.58 464.58" stroke="#141419" stroke-miterlimit="10"/>
<path d="M305.269 374.58C297.179 378.76 283.789 385.68 262.839 396.52C252.869 401.67 242.809 406.86 231.969 409.77C221.129 412.68 209.309 413.16 198.899 408.97" stroke="#141419" stroke-miterlimit="10"/>
<path d="M483.75 441.28C499.8 439.46 516.32 441.9 531.17 448.28C554.51 458.31 560.32 460.66 547.54 455.71C553.13 457.88 559.16 459.31 565.1 458.56" stroke="#141419" stroke-miterlimit="10"/>
<path d="M308.75 344.28C324.8 342.46 341.32 344.9 356.17 351.28C379.51 361.31 385.32 363.66 372.54 358.71C378.13 360.88 384.16 362.31 390.1 361.56" stroke="#141419" stroke-miterlimit="10"/>
<path d="M93.0293 500.2C96.1793 504.7 99.4592 509.27 103.969 512.41C107.949 515.18 112.659 516.68 117.289 518.14C135.749 523.95 154.209 529.77 172.669 535.58C180.369 538 188.169 540.48 194.909 544.92C201.639 549.36 207.279 556.12 208.499 564.09" stroke="#141419" stroke-miterlimit="10"/>
<path d="M78.0093 472.2C80.7793 474.41 82.5193 477.86 82.6593 481.41C72.7193 482.64 62.5693 482.09 52.8193 479.8" stroke="#141419" stroke-miterlimit="10"/>
<path d="M27.2693 351.86C38.3193 352.89 48.9893 357.69 57.0793 365.29C59.1193 367.21 61.1493 369.9 60.2793 372.56C59.8093 373.98 58.5993 375.02 57.4193 375.94C53.6393 378.9 49.6093 381.55 45.3793 383.83C32.5393 390.76 18.1693 394.24 3.98926 397.66" stroke="#141419" stroke-miterlimit="10"/>
<path d="M174.749 407.7C158.689 406.69 142.729 404.12 127.159 400.04" stroke="#141419" stroke-miterlimit="10"/>
<path d="M591.41 449.62C575.92 445.25 560.86 439.38 546.5 432.12" stroke="#141419" stroke-miterlimit="10"/>
<path d="M174.821 370.274C168.436 367.527 161.397 366.588 154.454 366.626C147.502 366.665 140.603 367.655 133.723 368.643C126.596 369.666 119.471 370.699 112.344 371.721C109.333 372.145 106.163 372.651 103.796 374.56C101.037 376.776 99.9062 380.651 100.498 384.143C101.09 387.634 103.233 390.736 105.93 393.033" stroke="#141419" stroke-miterlimit="10"/>
<path d="M515.67 536.53C501.41 535.51 487.14 534.49 472.88 533.47C462.41 532.72 451.81 531.98 441.49 533.87C430.19 535.94 419.73 541.08 409.15 545.54C398.56 550 387.35 553.9 375.88 553.26" stroke="#141419" stroke-miterlimit="10"/>
<path d="M577.07 511.78C572.36 512.06 567.64 512.65 563.18 514.18C558.72 515.71 554.52 518.23 551.54 521.88C546.16 528.47 545.49 537.61 545.17 546.11" stroke="#141419" stroke-miterlimit="10"/>
<path d="M515.86 399.89C501.22 392.71 484.12 391.55 468.06 394.42C452 397.29 436.86 403.96 422.57 411.83C414.98 416.01 407.55 420.55 399.49 423.71C391.43 426.87 382.54 428.58 374.06 426.82" stroke="#141419" stroke-miterlimit="10"/>
</g>
<defs>
<linearGradient id="paint0_linear_111_4" x1="472.992" y1="112.812" x2="77.2676" y2="805.05" gradientUnits="userSpaceOnUse">
<stop offset="0.38" stop-color="#5743E4"/>
<stop offset="0.644" stop-color="#242181"/>
</linearGradient>
</defs>
</svg>
