<svg width="66" height="66" viewBox="0 0 66 66" fill="none" xmlns="http://www.w3.org/2000/svg">
<path d="M33 66C51.2254 66 66 51.2254 66 33C66 14.7746 51.2254 0 33 0C14.7746 0 0 14.7746 0 33C0 51.2254 14.7746 66 33 66Z" fill="#FF89A4"/>
<mask id="mask0_111_69" style="mask-type:luminance" maskUnits="userSpaceOnUse" x="0" y="0" width="66" height="66">
<path d="M33 66C51.2254 66 66 51.2254 66 33C66 14.7746 51.2254 0 33 0C14.7746 0 0 14.7746 0 33C0 51.2254 14.7746 66 33 66Z" fill="white"/>
</mask>
<g mask="url(#mask0_111_69)">
<path d="M16.2102 46.07C23.9202 55.65 36.0402 61.52 48.3402 61.64C49.4502 61.65 50.8802 61.86 51.1003 62.94C51.2603 63.71 50.6503 64.41 50.0603 64.92C44.0403 70.13 35.3503 70.48 27.3903 70.58C23.4803 70.63 19.4402 70.65 15.8202 69.16C11.7902 67.51 8.73027 64.17 5.87027 60.9C1.39027 55.79 -2.98969 50.54 -6.33969 44.64C-9.68969 38.74 -12.0098 32.1 -12.0398 25.31C-12.0698 18.52 -9.64968 11.57 -4.69968 6.91001C-2.21968 4.58001 1.57032 3.05002 4.17032 6.04002C5.83032 7.95002 7.19031 10.75 7.29031 13.28C7.44031 16.88 6.86027 20.4 7.24026 24.02C7.62026 27.64 8.51026 31.44 9.86026 34.95C11.3903 38.95 13.5302 42.72 16.2202 46.05L16.2102 46.07Z" fill="#FF6483"/>
</g>
<path d="M47.1906 9.07979C44.0706 6.86979 39.6206 6.30978 35.8906 6.41978" stroke="black" stroke-width="0.75" stroke-miterlimit="10"/>
<path d="M14.9104 13.8898C12.3304 17.5198 9.59031 20.9898 7.57031 24.9898" stroke="black" stroke-width="0.75" stroke-miterlimit="10"/>
<path d="M9.69979 27.6597C8.02979 30.0397 7.24988 33.0397 7.53988 35.9297" stroke="black" stroke-width="0.75" stroke-miterlimit="10"/>
<path d="M4.59032 35.7598C4.28032 33.5598 4.4903 31.2898 5.2003 29.1898" stroke="black" stroke-width="0.75" stroke-miterlimit="10"/>
<path d="M57.6809 40.21C57.1209 40.89 56.5908 41.59 56.0908 42.31C55.1408 43.66 54.2909 45.07 53.6309 46.58" stroke="black" stroke-width="0.75" stroke-miterlimit="10"/>
<path d="M59.1604 44.8798C57.8004 48.3598 55.9404 51.6398 53.6504 54.5898" stroke="black" stroke-width="0.75" stroke-miterlimit="10"/>
<path d="M31.2107 61.6596C28.1407 62.1496 24.9107 61.5096 22.2607 59.8896" stroke="black" stroke-width="0.75" stroke-miterlimit="10"/>
</svg>
