<svg width="86" height="89" viewBox="0 0 86 89" fill="none" xmlns="http://www.w3.org/2000/svg">
<path d="M42.6697 19.1104C28.9297 27.7604 16.2898 38.5804 7.44976 52.2004C4.78976 56.3004 2.44972 60.7104 1.40972 65.4904C0.369722 70.2704 0.719722 75.4904 3.15972 79.7304C6.43972 85.4304 13.1898 88.6304 19.7698 88.6004C26.3498 88.5704 32.6797 85.6704 37.7897 81.5404C42.8997 77.4104 46.9297 72.0904 50.5997 66.6404C55.7497 58.9804 60.2998 50.9404 64.8398 42.9004C69.2498 35.1004 73.6598 27.3004 78.0698 19.5004C80.0898 15.9304 86.2997 8.28039 85.4297 4.02038C84.2397 -1.77962 77.5597 1.0804 74.2997 2.5704C63.4697 7.5104 52.7597 12.7504 42.6797 19.1004L42.6697 19.1104Z" fill="white"/>
</svg>
