<svg width="111" height="125" viewBox="0 0 111 125" fill="none" xmlns="http://www.w3.org/2000/svg">
<path d="M88.8829 96.1076C88.8821 96.1029 88.8767 96.1005 88.8727 96.103L68.8101 108.67C66.551 110.085 63.566 108.936 62.8385 106.372L52.9793 71.6144C52.7928 70.9567 53.0646 70.2491 53.6419 69.894L75.5139 56.1976C76.3822 55.6493 77.527 56.0982 77.8116 57.0838L88.8829 96.1076Z" fill="#00B973" stroke="black" stroke-width="0.5" stroke-miterlimit="10"/>
<path d="M15.6437 34.2951C15.6435 34.2959 15.6431 34.2966 15.6427 34.2973L2.88112 54.245C1.44448 56.4906 2.56507 59.4867 5.12277 60.2383L39.7863 70.4252C40.4389 70.6165 41.1508 70.3562 41.5188 69.7763L55.4266 48.0301C55.9805 47.1713 55.5488 46.0131 54.5604 45.7234L15.6546 34.2891C15.6499 34.2878 15.6451 34.2904 15.6437 34.2951Z" fill="#00B973" stroke="black" stroke-width="0.5" stroke-miterlimit="10"/>
<path d="M50.0202 76.9201C52.1802 79.2101 54.2302 82.1501 53.6502 85.2401C53.3402 86.8801 52.3301 88.3001 51.2901 89.6001C47.6801 94.1101 43.3901 98.0801 38.6001 101.31C33.1101 105.02 27.0302 107.74 21.2702 111.02C18.4002 112.66 15.6101 114.44 13.0501 116.53C11.7601 117.58 10.5202 118.71 9.38016 119.93C8.81016 120.54 8.26015 121.17 7.74015 121.83C7.36015 122.31 6.94017 123.45 6.32017 123.59C6.10017 122.33 6.68017 121.11 7.26017 120.03C9.07017 116.67 12.1202 114.16 13.6902 110.63C15.3302 106.95 16.4001 103.13 17.5501 99.2901C19.5401 92.6701 22.4602 86.3301 26.1802 80.5101C28.7302 76.5201 34.3301 65.9601 40.0501 68.8501C43.7301 70.7101 47.1901 73.9501 49.9901 76.9201H50.0202Z" fill="#FF0718" stroke="#03161D" stroke-width="0.8" stroke-miterlimit="10"/>
<path d="M42.3702 83.7501C43.7302 85.1901 45.0302 87.0501 44.6602 89.0001C44.4702 90.0401 43.8302 90.9301 43.1702 91.7501C38.0002 98.2201 31.0302 101.39 24.0202 105.34C22.3202 106.3 20.7102 107.42 19.2102 108.68C17.7102 109.94 16.4102 111.79 14.8502 113.03C14.4302 111.81 15.8602 110.35 16.5302 109.45C19.0402 106.09 20.8502 102.22 21.8302 98.1501C22.8702 93.8201 24.9502 89.7601 27.3402 86.0101C28.9502 83.4901 32.4802 76.8201 36.1002 78.6501C38.4202 79.8201 40.6102 81.8701 42.3802 83.7401L42.3702 83.7501Z" fill="#F9BE2D" stroke="url(#paint0_linear_57_312)" stroke-width="0.5" stroke-miterlimit="10"/>
<path d="M40.8594 75.29C36.5794 71.54 32.5194 67.46 29.1694 62.91C28.8494 62.48 28.5694 62.04 28.2894 61.6C27.1994 63.1 26.1094 64.61 25.0194 66.12C27.8594 71.51 32.5394 76.02 37.0594 80.03C38.4294 81.25 39.8394 82.39 41.2794 83.5C41.3594 83.59 41.4494 83.67 41.5294 83.76C41.6094 83.84 41.6994 83.92 41.7894 84C41.8594 84.06 41.9194 84.12 41.9894 84.17C42.0494 84.22 42.0994 84.28 42.1594 84.33C42.2394 84.39 42.2894 84.48 42.3694 84.53C42.3894 84.54 42.3994 84.56 42.4194 84.58C42.6094 84.69 42.8094 84.8 42.9794 84.94C43.0494 84.97 43.1194 84.99 43.1694 85.03C43.5494 85.31 43.9394 85.59 44.3194 85.87C45.1794 86.5 46.2494 87.15 46.9494 87.97C50.6894 90.63 54.8194 93.16 59.4394 94.15C60.5194 92.94 61.6094 91.74 62.6894 90.53C55.0094 86.08 47.5694 81.16 40.8694 75.3L40.8594 75.29Z" fill="#EA4256"/>
<path d="M82.0898 22.1298C82.5598 22.1898 82.9197 21.7498 82.9497 21.3098C82.9697 21.0898 82.8897 20.8598 82.6997 20.7298C82.5197 20.6098 82.3197 20.5898 82.1197 20.5098C81.8997 20.5798 81.6997 20.7398 81.5697 20.9498C81.2697 21.4298 81.4798 22.0598 82.0898 22.1298Z" fill="#788F96"/>
<path d="M49.1994 55.76C46.3694 53.12 43.5894 50.13 41.2894 47.04C41.0194 46.67 40.7494 46.29 40.4794 45.9C36.2594 50.81 32.3794 55.97 28.5694 61.19C28.6894 61.38 28.8194 61.57 28.9494 61.75C32.4994 66.52 36.6694 70.88 41.2194 74.79C47.9694 80.6 55.3894 85.54 62.9994 90.15C67.4594 85.16 71.8494 80.13 75.9694 74.85C65.9494 70.34 57.3294 63.35 49.1994 55.76Z" fill="#B6D8FE"/>
<path d="M81.329 14.3598C84.019 17.6298 87.049 20.5898 90.499 23.0598C94.589 25.9998 98.9889 28.1698 103.579 29.8998C105.899 24.5198 107.739 18.9598 108.769 13.2098C103.969 11.0398 99.819 7.3298 97.139 2.7998C90.589 4.7098 84.629 7.69981 79.079 11.2598C79.779 12.3698 80.559 13.4198 81.329 14.3498V14.3598Z" fill="#00B973"/>
<path d="M77.329 17.4702C77.529 17.5502 77.839 17.6202 78.009 17.4302C78.279 17.1202 78.249 16.5402 78.029 16.2102C77.949 16.0902 77.839 15.9902 77.699 15.9502C77.289 16.0102 76.929 16.3402 76.889 16.7802C76.859 17.1002 77.029 17.3502 77.329 17.4602V17.4702Z" fill="#788F96"/>
<path d="M56.4897 35.1399C50.5797 42.3999 51.7897 53.1799 59.1897 59.2099C66.5997 65.2399 77.3897 64.2499 83.3097 56.9899C89.2297 49.7299 88.0096 38.9599 80.6096 32.9199C73.1996 26.8899 62.3997 27.8799 56.4897 35.1399ZM83.4997 50.4699C81.1397 58.0199 73.0396 62.1099 65.4096 59.6099C57.7796 57.1099 53.5097 48.9599 55.8697 41.4099C58.2297 33.8599 66.3297 29.7699 73.9597 32.2699C81.5897 34.7699 85.8597 42.9199 83.4997 50.4699Z" fill="#059E5F"/>
<path d="M87.1993 24.9902C86.7493 25.0402 86.2993 25.4702 86.3393 25.9302C86.3793 26.3302 86.8792 26.8802 87.2992 26.5902C87.6092 26.3802 87.8192 25.9503 87.8092 25.5703C87.7992 25.1303 87.5393 25.0602 87.1893 24.9902H87.1993Z" fill="#788F96"/>
<path d="M97.7391 32.02V32C97.4091 32.03 97.0991 32.24 96.9891 32.56C96.8291 33.04 97.2391 33.64 97.7591 33.63C98.1291 33.62 98.4691 33.33 98.4991 32.95C98.5191 32.75 98.4491 32.53 98.2891 32.4C98.1191 32.25 97.8691 32.21 97.7391 32.03V32.02Z" fill="#788F96"/>
<path d="M73.6094 33.08C66.3994 30.72 58.7494 34.58 56.5194 41.72C54.2894 48.85 58.3194 56.55 65.5294 58.91C72.7394 61.27 80.3894 57.41 82.6194 50.27C84.8494 43.14 80.8094 35.44 73.6094 33.08Z" fill="#16C1A0"/>
<mask id="mask0_57_312" style="mask-type:luminance" maskUnits="userSpaceOnUse" x="55" y="32" width="29" height="28">
<path d="M73.6094 33.08C66.3994 30.72 58.7494 34.58 56.5194 41.72C54.2894 48.85 58.3194 56.55 65.5294 58.91C72.7394 61.27 80.3894 57.41 82.6194 50.27C84.8494 43.14 80.8094 35.44 73.6094 33.08Z" fill="white"/>
</mask>
<g mask="url(#mask0_57_312)">
<path d="M79.2897 46.4798C79.5397 49.6098 79.6298 52.7998 78.8898 55.8498C78.1498 58.8998 76.4798 61.8298 73.8298 63.5298C81.6098 60.3298 87.2898 52.5498 87.9598 44.1698C88.4398 38.2598 86.2698 31.8798 81.3798 28.5198C80.5898 27.9798 79.7098 27.5098 78.7598 27.4298C74.7598 27.0898 76.1297 32.3998 76.7397 34.7198C77.2297 36.5498 78.0097 38.2698 78.4197 40.1398C78.8797 42.2198 79.1198 44.3498 79.2798 46.4698L79.2897 46.4798Z" fill="#78DDCA"/>
</g>
<path d="M108.879 1.02C106.369 1.07 103.859 1.23 101.489 1.72C100.209 1.99 98.9489 2.29999 97.7089 2.64999C100.359 6.82999 104.389 10.33 108.889 12.56C109.129 11.12 109.319 9.67001 109.449 8.20001C109.649 5.94001 109.539 3.64 109.329 1.38C109.329 1.28 109.309 1.14 109.299 1C109.139 1 108.999 1 108.879 1V1.02Z" fill="#00B973"/>
<path d="M88.7991 23.2303C85.3991 20.5903 82.1691 17.4903 79.7291 13.9203C79.2491 13.2103 78.7791 12.4902 78.3491 11.7402C72.0491 15.8602 66.2791 20.7003 60.7891 25.5103C53.8791 31.5603 47.3691 38.0103 41.3491 44.8903C41.1591 45.1103 40.9692 45.3302 40.7792 45.5602C41.5492 46.6402 42.4191 47.6403 43.1691 48.4803C45.8691 51.5503 48.6392 54.5702 51.7692 57.2402C59.5192 63.8302 67.2092 70.0203 76.1392 74.6403C76.3592 74.3503 76.5891 74.0702 76.8091 73.7802C81.7391 67.3502 86.9691 59.8202 92.2291 51.1202C96.1091 44.7002 99.9891 38.0002 103.099 30.9902C97.9391 29.1702 93.0391 26.5203 88.7991 23.2303ZM81.3491 20.6902C81.5291 20.4802 81.7491 20.3302 81.9691 20.2702C82.6891 19.8802 83.4692 20.7802 83.3192 21.4702C83.1792 22.1302 82.5591 22.7102 81.8491 22.4602C81.0891 22.2002 80.7992 21.3102 81.3392 20.6802L81.3491 20.6902ZM76.5892 16.6802C76.6392 16.5002 76.7192 16.3503 76.8192 16.2303C76.7892 16.2203 76.7692 16.2002 76.7792 16.1602C76.8492 15.7902 77.3492 15.5402 77.7092 15.5902C78.0292 15.6302 78.2691 15.8502 78.4091 16.1302C78.6691 16.6502 78.6891 17.5803 78.0491 17.8503C77.3391 18.1503 76.3891 17.4702 76.5991 16.6902L76.5892 16.6802ZM83.9391 57.6502C77.6791 65.3302 66.2491 66.3802 58.4091 60.0002C50.5691 53.6102 49.2891 42.2102 55.5491 34.5202C61.8091 26.8402 73.2392 25.7903 81.0792 32.1703C88.9192 38.5603 90.1992 49.9602 83.9391 57.6502ZM88.1691 25.6802C88.1291 26.2302 87.7892 26.9002 87.2092 27.0302C86.4892 27.1902 85.8491 26.2903 86.0491 25.6403C86.1991 25.1803 86.5992 24.8402 87.0192 24.8002C87.0192 24.8002 87.0391 24.7802 87.0491 24.7702C87.6891 24.4602 88.2091 25.0602 88.1691 25.6802ZM93.4891 30.4402C93.1891 30.8702 92.5591 31.1203 92.0991 30.7603C91.5791 30.3503 91.4292 29.4202 92.0292 29.0002C92.3992 28.7502 92.7791 28.7502 93.0891 28.9302C93.0991 28.9302 93.1091 28.9302 93.1292 28.9302C93.7592 29.1002 93.8191 29.9802 93.4891 30.4402ZM97.5292 33.9602C96.8192 33.7802 96.3691 32.9702 96.7391 32.3102C96.8891 32.0402 97.1691 31.8102 97.4791 31.7702C97.7291 31.7302 97.9091 31.7803 98.0791 31.8903C98.3091 31.9403 98.5392 32.1202 98.6692 32.2802C98.8492 32.5102 98.9191 32.8202 98.8491 33.1003C98.6991 33.6803 98.1492 34.1202 97.5292 33.9702V33.9602Z" fill="#B6D8FE"/>
<path d="M40.8594 75.29C36.5794 71.54 32.5194 67.46 29.1694 62.91C28.8494 62.48 28.5694 62.04 28.2894 61.6C27.1994 63.1 26.1094 64.61 25.0194 66.12C27.8594 71.51 32.5394 76.02 37.0594 80.03C38.4294 81.25 39.8394 82.39 41.2794 83.5C41.3594 83.59 41.4494 83.67 41.5294 83.76C41.6094 83.84 41.6994 83.92 41.7894 84C41.8594 84.06 41.9194 84.12 41.9894 84.17C42.0494 84.22 42.0994 84.28 42.1594 84.33C42.2394 84.39 42.2894 84.48 42.3694 84.53C42.3894 84.54 42.3994 84.56 42.4194 84.58C42.6094 84.69 42.8094 84.8 42.9794 84.94C43.0494 84.97 43.1194 84.99 43.1694 85.03C43.5494 85.31 43.9394 85.59 44.3194 85.87C45.1794 86.5 46.2494 87.15 46.9494 87.97C50.6894 90.63 54.8194 93.16 59.4394 94.15C60.5194 92.94 61.6094 91.74 62.6894 90.53C55.0094 86.08 47.5694 81.16 40.8694 75.3L40.8594 75.29Z" fill="#B6D8FE"/>
<path d="M66.2189 69.46C62.3189 73.02 56.7989 74.96 51.5389 74.59C47.6989 74.32 44.119 72.82 41.529 69.92C38.589 66.63 37.159 62.35 37.119 57.97C37.089 54.14 38.019 50.46 39.559 47C35.699 51.58 32.109 56.35 28.579 61.19C28.699 61.38 28.829 61.57 28.959 61.75C32.509 66.52 36.6789 70.88 41.2289 74.79C47.9789 80.6 55.399 85.54 63.009 90.15C67.469 85.16 71.8589 80.13 75.9789 74.85C72.5789 73.32 69.3389 71.49 66.2189 69.46Z" fill="#B6D8FE"/>
<path d="M105.91 11.6802C105.31 14.4502 104.48 17.1702 103.38 19.7902C102.18 22.6402 100.75 25.4002 99.1298 28.0302C100.59 28.7102 102.08 29.3302 103.59 29.9002C105.91 24.5202 107.75 18.9602 108.78 13.2102C107.79 12.7602 106.84 12.2502 105.92 11.6802H105.91Z" fill="#2AD38E"/>
<path d="M109.289 1.00999C109.129 1.00999 108.989 1.00999 108.869 1.00999C107.929 1.02999 106.989 1.06 106.059 1.12C106.219 1.43 106.339 1.76 106.439 2.09C106.939 3.84 106.849 5.72001 106.619 7.51001C106.469 8.66001 106.279 9.8 106.059 10.94C106.969 11.53 107.919 12.08 108.889 12.56C109.129 11.12 109.319 9.67001 109.449 8.20001C109.649 5.94001 109.539 3.64 109.329 1.38C109.329 1.28 109.309 1.14 109.299 1L109.289 1.00999Z" fill="#2AD38E"/>
<path d="M86.3994 39.2C86.3594 38.91 86.2894 38.65 86.1694 38.46C86.0394 38.27 85.9094 38.08 85.7694 37.89C85.9994 38.32 86.1994 38.75 86.3994 39.2Z" fill="white"/>
<path d="M95.8291 32.8798C94.0491 35.2498 92.4391 37.8998 90.3591 40.0198C89.6591 40.7298 88.7391 41.6798 87.6591 41.6598C87.4891 41.6598 87.3591 41.6198 87.2391 41.5798C88.7391 47.0098 87.7191 52.9998 83.9391 57.6398C77.6791 65.3198 66.2491 66.3698 58.4091 59.9898C57.9991 59.6598 57.6091 59.2998 57.2391 58.9398C58.1691 60.9198 59.2392 62.8198 60.5892 64.4398C62.3192 65.7898 64.0791 67.0898 65.8691 68.3398C66.1391 68.4398 66.4092 68.5398 66.6992 68.6298C66.8092 68.6598 66.9091 68.8098 66.7991 68.9098C66.7891 68.9198 66.7691 68.9398 66.7491 68.9498C69.7591 71.0098 72.8692 72.9198 76.1492 74.6198C76.3692 74.3298 76.5992 74.0498 76.8192 73.7598C81.7492 67.3298 86.9791 59.7998 92.2391 51.0998C96.1191 44.6798 99.9991 37.9798 103.109 30.9698C101.529 30.4098 99.9791 29.7798 98.4591 29.0698C97.6291 30.3598 96.7591 31.6298 95.8391 32.8598L95.8291 32.8798ZM98.8491 33.0998C98.6991 33.6798 98.1492 34.1198 97.5292 33.9698C96.8192 33.7898 96.3691 32.9798 96.7391 32.3198C96.8891 32.0498 97.1691 31.8198 97.4791 31.7798C97.7291 31.7398 97.9091 31.7898 98.0791 31.8998C98.3091 31.9498 98.5392 32.1298 98.6692 32.2898C98.8492 32.5198 98.9191 32.8298 98.8491 33.1098V33.0998Z" fill="#DDE9F2"/>
<path d="M92.1598 29.3199C91.8698 29.6499 91.9698 30.3399 92.4198 30.5099C92.7198 30.6299 93.0798 30.4199 93.2198 30.1499C93.3998 29.7899 93.2398 29.5299 93.1198 29.2099C92.8098 29.0399 92.4198 29.0299 92.1698 29.3199H92.1598Z" fill="#788F96"/>
<path d="M107.43 0.360091C107.43 0.360091 107.37 0.400083 107.35 0.430083C102.69 0.570083 98.3498 1.46009 94.1298 2.86009C86.5298 5.39009 79.7998 9.43009 73.5698 13.9101C67.0998 18.5601 61.0298 23.7101 55.2298 29.0601C49.3698 34.4601 43.8698 40.2101 38.7198 46.2501C33.5198 52.3401 28.5098 58.7201 24.4898 65.7001C24.3998 65.7401 24.3298 65.8201 24.3598 65.9501C24.3398 66.0501 24.3598 66.1501 24.4298 66.2301C24.8498 67.8201 25.7198 69.2001 26.7298 70.5001C27.4298 70.7101 28.0798 71.1701 28.5898 71.9901C29.0298 72.6901 29.4398 73.4201 29.8298 74.1501C31.6198 76.1501 33.5198 78.0601 35.4798 79.8901C37.5098 81.7801 39.6698 83.6801 41.9298 85.4601C42.0798 85.5801 42.2198 85.6901 42.3698 85.8001C42.6298 86.0001 42.8998 86.2001 43.1598 86.4101C43.5698 86.6201 43.9098 86.8801 44.1898 87.1701C44.7998 87.6101 45.3998 88.0501 46.0098 88.4601C48.2798 90.0301 50.6398 91.4801 53.1198 92.7301C53.4398 92.8901 53.7698 93.0601 54.0898 93.2201C54.0898 93.2201 54.0798 93.2201 54.0698 93.2301C54.1998 93.2901 54.3398 93.3601 54.4598 93.4301C54.4598 93.4301 54.4598 93.4201 54.4698 93.4101C55.9798 94.1501 57.5598 94.6801 59.3598 94.6201C59.4398 94.6501 59.5498 94.8401 59.5998 94.5101C59.7198 94.5001 59.7998 94.5101 59.8198 94.4201C65.6698 88.9301 70.8998 82.8201 75.8298 76.5201C80.0898 71.0801 84.7798 64.6601 89.5798 57.0801C93.7898 50.4301 97.7997 43.6001 101.32 36.5401C104.7 29.7401 107.65 22.6201 109.15 15.1201C109.97 11.0301 110.33 6.96009 110 2.81009C110 2.81009 110 2.81009 110 2.80009C110.06 2.65009 110.14 2.49009 110.2 2.33009C110.4 -0.939908 107.4 0.380095 107.4 0.380095L107.43 0.360091ZM109.45 8.2001C108.05 23.8001 100.13 38.0301 92.2298 51.1201C86.9798 59.8201 81.7498 67.3501 76.8098 73.7801C71.3598 80.8801 65.3998 87.4901 59.4198 94.1401C54.7998 93.1501 50.6798 90.6201 46.9298 87.9601C46.2398 87.1401 45.1598 86.4901 44.2998 85.8601C43.9198 85.5801 43.5398 85.3001 43.1498 85.0201C43.0998 84.9801 43.0198 84.9501 42.9598 84.9301C42.7898 84.7901 42.5998 84.6801 42.3998 84.5701C42.3898 84.5501 42.3698 84.5301 42.3498 84.5201C42.2698 84.4601 42.2198 84.3801 42.1398 84.3201C42.0798 84.2701 42.0298 84.2101 41.9698 84.1601C41.8998 84.1101 41.8398 84.0401 41.7698 83.9901C41.6798 83.9201 41.5998 83.8301 41.5098 83.7501C41.4198 83.6701 41.3398 83.5801 41.2598 83.4901C39.8198 82.3801 38.4098 81.2401 37.0398 80.0201C32.5298 76.0001 27.8398 71.5001 24.9998 66.1101C30.2298 58.8601 35.4398 51.6301 41.3298 44.8901C47.3498 38.0101 53.8598 31.5601 60.7698 25.5101C72.3198 15.4001 85.0997 5.13009 101.46 1.72009C103.83 1.23009 106.34 1.07009 108.85 1.02009C108.97 1.02009 109.11 1.02009 109.27 1.02009C109.28 1.16009 109.3 1.29008 109.3 1.40008C109.51 3.66008 109.62 5.96009 109.42 8.22009L109.45 8.2001Z" fill="black"/>
<path d="M63.3202 90.3401C55.6002 85.6801 48.0702 80.6801 41.2302 74.7901C36.6902 70.8801 32.5102 66.5201 28.9602 61.7501C28.7402 61.4501 28.5402 61.1401 28.3402 60.8101C28.2502 60.9501 28.1602 61.0901 28.0702 61.2401C28.4102 61.8101 28.7702 62.3601 29.1702 62.9001C32.5302 67.4501 36.5802 71.5301 40.8602 75.2801C47.6402 81.2201 55.2002 86.2001 62.9902 90.7001C63.1002 90.5801 63.2102 90.46 63.3202 90.33V90.3401Z" fill="black"/>
<path d="M76.7394 74.9503C67.5494 70.3003 59.6994 63.9802 51.7694 57.2402C48.6294 54.5702 45.8594 51.5603 43.1694 48.4803C42.3594 47.5603 41.3994 46.4503 40.5694 45.2603C40.4694 45.3703 40.3694 45.4802 40.2694 45.5902C40.5894 46.0902 40.9394 46.5703 41.2894 47.0403C43.5894 50.1303 46.3694 53.1203 49.1994 55.7603C57.5194 63.5203 66.3494 70.6702 76.6594 75.1602C76.8094 75.2202 76.8794 75.0203 76.7394 74.9503Z" fill="black"/>
<path d="M109.09 12.6601C104.41 10.3801 100.22 6.73012 97.5402 2.37012C97.3702 2.45012 97.2002 2.53013 97.0302 2.60013C99.7302 7.27013 104 11.0901 108.94 13.2901C108.98 13.0801 109.03 12.8701 109.1 12.6601H109.09Z" fill="black"/>
<path d="M103.979 30.0602C99.2395 28.3002 94.7095 26.0902 90.4995 23.0602C87.0595 20.5902 84.0195 17.6302 81.3295 14.3602C80.4495 13.2902 79.5395 12.0703 78.7695 10.7603C78.5395 10.9103 78.3095 11.0802 78.0995 11.2702C78.5895 12.1802 79.1495 13.0703 79.7395 13.9203C82.1795 17.4903 85.4095 20.5903 88.8095 23.2303C93.1295 26.5903 98.1395 29.2703 103.41 31.1003C103.61 30.7502 103.8 30.4102 103.99 30.0602H103.979Z" fill="black"/>
<path d="M58.41 59.9903C66.25 66.3803 77.6801 65.3303 83.9401 57.6403C90.2001 49.9603 88.9201 38.5503 81.0801 32.1603C73.2401 25.7703 61.8101 26.8203 55.5501 34.5103C49.2901 42.1903 50.57 53.6003 58.41 59.9903ZM80.6 32.9203C88.01 38.9503 89.2201 49.7303 83.3001 56.9903C77.3801 64.2503 66.5901 65.2403 59.1801 59.2103C51.7701 53.1803 50.5601 42.4003 56.4801 35.1403C62.3901 27.8803 73.19 26.8903 80.6 32.9203Z" fill="black"/>
<path d="M73.9604 32.2704C66.3304 29.7704 58.2304 33.8604 55.8704 41.4104C53.5104 48.9604 57.7804 57.1104 65.4104 59.6104C73.0404 62.1104 81.1404 58.0204 83.5004 50.4704C85.8604 42.9204 81.5904 34.7704 73.9604 32.2704ZM65.5304 58.9104C58.3204 56.5504 54.2904 48.8504 56.5204 41.7204C58.7504 34.5904 66.4004 30.7204 73.6104 33.0804C80.8204 35.4404 84.8504 43.1404 82.6204 50.2704C80.3904 57.4004 72.7404 61.2704 65.5304 58.9104Z" fill="black"/>
<path d="M78.4001 16.1301C78.2601 15.8501 78.0201 15.6301 77.7001 15.5901C77.3401 15.5501 76.8501 15.8001 76.7701 16.1601C76.7701 16.1901 76.79 16.2102 76.81 16.2302C76.71 16.3602 76.6301 16.5101 76.5801 16.6801C76.3701 17.4701 77.3301 18.1401 78.0301 17.8401C78.6701 17.5701 78.6501 16.6401 78.3901 16.1201L78.4001 16.1301ZM77.3301 17.4701C77.0301 17.3601 76.8501 17.1101 76.8901 16.7901C76.9401 16.3401 77.3001 16.0201 77.7001 15.9601C77.8401 15.9901 77.9501 16.1001 78.0301 16.2201C78.2501 16.5501 78.2801 17.1301 78.0101 17.4401C77.8401 17.6301 77.5301 17.5602 77.3301 17.4802V17.4701Z" fill="black"/>
<path d="M83.3294 21.4802C83.4794 20.7802 82.6993 19.8902 81.9793 20.2802C81.7593 20.3402 81.5393 20.4802 81.3593 20.7002C80.8193 21.3302 81.1093 22.2102 81.8693 22.4802C82.5693 22.7202 83.1894 22.1402 83.3394 21.4902L83.3294 21.4802ZM82.0894 22.1302C81.4794 22.0502 81.2793 21.4202 81.5693 20.9502C81.6993 20.7402 81.8993 20.5802 82.1193 20.5102C82.3093 20.5802 82.5194 20.6102 82.6994 20.7302C82.8894 20.8602 82.9694 21.0902 82.9494 21.3102C82.9194 21.7502 82.5594 22.1902 82.0894 22.1302Z" fill="black"/>
<path d="M88.1697 25.6801C88.2197 25.0601 87.6897 24.4601 87.0497 24.7701C87.0397 24.7701 87.0298 24.7901 87.0198 24.8001C86.5998 24.8501 86.1897 25.1801 86.0497 25.6401C85.8497 26.2901 86.4898 27.1901 87.2098 27.0301C87.7898 26.9001 88.1297 26.2301 88.1697 25.6801ZM87.2997 26.5901C86.8797 26.8801 86.3798 26.3301 86.3398 25.9301C86.2998 25.4601 86.7498 25.0301 87.1998 24.9901C87.5498 25.0601 87.8098 25.1301 87.8198 25.5701C87.8198 25.9501 87.6098 26.3701 87.3098 26.5901H87.2997Z" fill="black"/>
<path d="M93.1295 28.9203C93.1295 28.9203 93.0995 28.9203 93.0895 28.9203C92.7795 28.7403 92.3895 28.7403 92.0295 28.9903C91.4295 29.4103 91.5795 30.3303 92.0995 30.7503C92.5495 31.1103 93.1895 30.8603 93.4895 30.4303C93.8195 29.9603 93.7595 29.0803 93.1295 28.9203ZM92.4195 30.5203C91.9695 30.3503 91.8695 29.6603 92.1595 29.3303C92.4095 29.0403 92.7995 29.0603 93.1095 29.2203C93.2295 29.5303 93.3895 29.7903 93.2095 30.1603C93.0695 30.4403 92.7195 30.6403 92.4095 30.5203H92.4195Z" fill="black"/>
<path d="M98.8492 33.1C98.9192 32.82 98.8493 32.51 98.6693 32.28C98.5393 32.12 98.3092 31.9401 98.0792 31.8901C97.9092 31.7801 97.7192 31.73 97.4792 31.77C97.1692 31.82 96.8893 32.05 96.7393 32.31C96.3693 32.97 96.8093 33.79 97.5293 33.96C98.1493 34.11 98.6992 33.68 98.8492 33.09V33.1ZM97.7593 33.62C97.2293 33.64 96.8193 33.03 96.9893 32.55C97.0993 32.23 97.4093 32.02 97.7393 31.99V32.01C97.8793 32.19 98.1193 32.24 98.2893 32.38C98.4493 32.51 98.5193 32.73 98.4993 32.93C98.4593 33.31 98.1293 33.6 97.7593 33.61V33.62Z" fill="black"/>
<defs>
<linearGradient id="paint0_linear_57_312" x1="13.1198" y1="96.7922" x2="45.4931" y2="93.9258" gradientUnits="userSpaceOnUse">
<stop offset="0.38" stop-color="#03161D"/>
<stop offset="1" stop-color="#010101"/>
</linearGradient>
</defs>
</svg>
