<svg width="38" height="44" viewBox="0 0 38 44" fill="none" xmlns="http://www.w3.org/2000/svg">
<path d="M18 38.34C27.9411 38.34 36 30.2812 36 20.34C36 10.3989 27.9411 2.34003 18 2.34003C8.05887 2.34003 0 10.3989 0 20.34C0 30.2812 8.05887 38.34 18 38.34Z" fill="#FAEB6E"/>
<mask id="mask0_135_7" style="mask-type:luminance" maskUnits="userSpaceOnUse" x="0" y="2" width="36" height="37">
<path d="M18 38.34C27.9411 38.34 36 30.2812 36 20.34C36 10.3989 27.9411 2.34003 18 2.34003C8.05887 2.34003 0 10.3989 0 20.34C0 30.2812 8.05887 38.34 18 38.34Z" fill="white"/>
</mask>
<g mask="url(#mask0_135_7)">
<path d="M21.08 7.17005C25.37 9.95005 29.0401 14.47 29.7001 19.67C30.4501 25.57 26.55 30.1301 23.01 34.3601C21.7001 35.93 20.39 37.5 19.26 39.21C18.46 40.43 17.42 43.66 19.96 43.48C20.59 43.44 21.12 42.98 21.48 42.4701C21.84 41.9601 22.06 41.3501 22.38 40.8101C23.96 38.1101 27.39 37.28 30.0301 35.6C32.2901 34.16 34.0501 32.01 35.2201 29.59C37.84 24.18 37.7601 17.91 36.1501 12.21C35.3601 9.43005 34.1701 6.66005 32.0401 4.71005C29.5801 2.47005 26.1901 1.61005 22.9501 0.87005C20.4501 0.31005 17.9 -0.23995 15.37 0.11005C14.32 0.26005 13.3301 0.61005 12.3901 1.10005C11.9701 1.32005 11.57 1.69005 11.55 2.17005C11.51 2.98005 12.46 3.40005 13.24 3.63005C15.96 4.43005 18.66 5.60005 21.08 7.17005Z" fill="#98914D"/>
</g>
<path d="M12.0499 11.23C13.0499 12.25 14.6899 12.57 15.9999 12.01C17.3099 11.45 18.2099 10.04 18.1599 8.62" stroke="#49421A" stroke-miterlimit="10"/>
<path d="M24.96 13.3C24.85 14.3 24.75 15.35 25.15 16.27C25.58 17.24 26.53 17.9 27.55 18.23C28.57 18.56 29.64 18.6 30.7 18.63" stroke="#49421A" stroke-miterlimit="10"/>
<path d="M27.31 27.28C26.6 27 25.74 27.16 25.18 27.67C24.62 28.18 24.4 29.04 24.63 29.76" stroke="#49421A" stroke-width="0.5" stroke-miterlimit="10"/>
<path d="M15.94 32.02C16.17 32.47 16.17 33.04 15.94 33.49C15.71 33.94 15.27 34.28 14.77 34.38C14.85 34.04 14.92 33.7 15 33.37" stroke="#49421A" stroke-width="0.5" stroke-miterlimit="10"/>
<path d="M9.21998 18.53C9.81998 19.55 9.49998 20.95 8.64998 21.76C7.79998 22.57 6.50998 22.84 5.34998 22.63" stroke="#49421A" stroke-miterlimit="10"/>
<path d="M18.0699 22.21C17.6499 23.3 17.0999 24.34 16.4299 25.3" stroke="#49421A" stroke-width="0.5" stroke-miterlimit="10"/>
</svg>
