<svg width="17" height="25" viewBox="0 0 17 25" fill="none" xmlns="http://www.w3.org/2000/svg">
<path d="M0.470032 11.2703L5.91003 8.45035L7.89008 0.700348C7.94008 0.520348 8.02007 0.370345 8.13007 0.260345C8.24007 0.150345 8.37006 0.090332 8.50006 0.090332C8.63006 0.090332 8.76006 0.150345 8.87006 0.260345C8.98006 0.370345 9.06005 0.520348 9.11005 0.700348L11.0901 8.45035L16.5301 11.2703C16.6501 11.3303 16.7601 11.4503 16.8401 11.6103C16.9201 11.7603 16.9601 11.9504 16.9601 12.1404C16.9601 12.3303 16.9201 12.5103 16.8401 12.6703C16.7601 12.8203 16.6601 12.9403 16.5301 13.0103L11.0901 15.8303L9.11005 23.5803C9.06005 23.7603 8.98006 23.9103 8.87006 24.0203C8.76006 24.1303 8.63006 24.1903 8.50006 24.1903C8.37006 24.1903 8.24007 24.1303 8.13007 24.0203C8.02007 23.9103 7.94008 23.7603 7.89008 23.5803L5.91003 15.8303L0.470032 13.0103C0.350032 12.9503 0.240034 12.8303 0.160034 12.6703C0.0800342 12.5203 0.0400391 12.3303 0.0400391 12.1404C0.0400391 11.9504 0.0800342 11.7703 0.160034 11.6103C0.240034 11.4603 0.340032 11.3403 0.470032 11.2703Z" fill="#6E777A"/>
</svg>
