<svg width="15" height="22" viewBox="0 0 15 22" fill="none" xmlns="http://www.w3.org/2000/svg">
<path d="M0.409275 12.3004L4.39933 8.59045L4.2493 1.4804C4.2493 1.3204 4.27928 1.17041 4.34928 1.05041C4.41928 0.930407 4.50931 0.850426 4.62931 0.820426C4.74931 0.790426 4.86929 0.810414 4.98929 0.870414C5.10929 0.940414 5.21929 1.05042 5.29929 1.19042L8.83933 7.3604L14.1693 8.4804C14.2893 8.5104 14.4093 8.58043 14.5093 8.70043C14.6093 8.81043 14.6893 8.96041 14.7393 9.12041C14.7893 9.28041 14.7893 9.45039 14.7693 9.60039C14.7393 9.75039 14.6793 9.88044 14.5893 9.96044L10.5993 13.6704L10.7493 20.7804C10.7493 20.9404 10.7193 21.0904 10.6493 21.2104C10.5793 21.3304 10.4893 21.4104 10.3693 21.4404C10.2493 21.4704 10.1293 21.4504 10.0093 21.3904C9.88931 21.3204 9.77931 21.2104 9.69931 21.0704L6.15928 14.9004L0.829319 13.7804C0.709319 13.7504 0.589292 13.6804 0.489292 13.5604C0.389292 13.4504 0.309311 13.3004 0.259311 13.1404C0.209311 12.9804 0.209282 12.8104 0.229282 12.6604C0.259282 12.5104 0.319275 12.3804 0.409275 12.3004Z" fill="#6E777A"/>
</svg>
