<svg width="19" height="25" viewBox="0 0 19 25" fill="none" xmlns="http://www.w3.org/2000/svg">
<path d="M1.92991 6.8701L8.9199 7.0301L15.1499 0.360088C15.2899 0.210088 15.4599 0.10009 15.6299 0.0500901C15.7999 9.00775e-05 15.9599 0.0100986 16.0899 0.0900986C16.2199 0.170099 16.3199 0.290094 16.3699 0.460094C16.4199 0.630094 16.4199 0.830101 16.3699 1.0301L14.0999 9.8701L17.9999 15.6701C18.0899 15.8001 18.1299 15.9801 18.1199 16.1801C18.1199 16.3801 18.0499 16.5801 17.9499 16.7701C17.8499 16.9601 17.6999 17.1201 17.5399 17.2301C17.3799 17.3401 17.2099 17.4001 17.0499 17.4001L10.0599 17.2401L3.82993 23.9101C3.68993 24.0601 3.51989 24.1701 3.34989 24.2201C3.17989 24.2701 3.01993 24.2601 2.88993 24.1801C2.75993 24.1001 2.6599 23.9801 2.6099 23.8101C2.5599 23.6401 2.5599 23.4401 2.6099 23.2401L4.87992 14.4001L0.979894 8.60011C0.889894 8.47011 0.849899 8.2901 0.859899 8.0901C0.859899 7.8901 0.929943 7.6901 1.02994 7.5001C1.12994 7.3101 1.27992 7.15011 1.43992 7.04011C1.59992 6.93011 1.76991 6.8701 1.92991 6.8701Z" fill="#6E777A"/>
</svg>
