<svg width="48" height="48" viewBox="0 0 48 48" fill="none" xmlns="http://www.w3.org/2000/svg">
<path d="M24.9696 15.2815L24.9269 15.2496C24.6072 15.079 23.9891 15.2282 23.5841 15.2815C23.1472 15.3668 22.6783 15.4307 22.5077 15.8677C22.2946 16.6456 22.3372 17.8073 22.3053 18.5533C22.3053 18.7131 22.3372 18.873 22.4012 18.9902C22.7742 19.4165 23.5415 19.1181 24.1809 19.0329C24.426 18.9689 24.6712 18.8837 24.8204 18.6812C25.1721 17.9991 25.0122 17.0506 25.1081 16.2833C25.1294 15.7718 25.1294 15.4201 24.9482 15.2709L24.9696 15.2815Z" fill="#FDEDD3"/>
<path d="M21.3462 20.9726L14.9519 20.4397L13.8862 25.2355L14.9519 26.834L19.5018 28.4326H25.6091L26.142 30.5641L28.2734 33.2284L33.9999 29.5L38.4999 25.5L38.9306 23.6369L36.7992 20.4397L33.602 17.7754L30.4048 15.1111L27.7405 14.0454L26.142 15.1111V18.3083L24.5434 20.4397L21.3462 20.9726Z" fill="#171718" stroke="#171718" stroke-width="1.06572"/>
<path d="M31.8222 18.1058C31.3213 17.6795 30.7777 17.2212 30.2555 16.8056C29.4563 16.1875 28.0708 14.7701 27.2715 16.0809C26.9838 16.699 27.0797 17.5516 27.0903 18.1377C27.1223 19.2887 26.7387 20.461 25.6516 20.9193C22.9873 21.9104 19.9394 20.8873 17.1898 21.0258C16.6463 21.0791 16.0814 20.9939 15.8363 21.3562C15.7617 23.0081 15.6765 24.6813 15.6445 26.3438C15.6658 27.3882 20.2164 26.6955 21.069 26.7807C22.8275 26.7807 25.2467 26.3758 26.5681 27.8038C27.4314 28.9228 26.5362 31.5871 28.3159 31.9921C28.9021 31.9175 29.2964 31.3101 29.7653 31.001C32.4722 28.7523 35.2005 26.493 37.9287 24.223C38.0673 24.0525 37.9287 23.8926 37.8115 23.7008C37.5344 23.3171 37.0655 22.9441 36.7458 22.6244C35.1365 21.1111 33.5273 19.5765 31.8648 18.1271L31.8222 18.0951V18.1058Z" fill="#FEB803"/>
<path d="M25.0764 29.4449L25.0337 29.413C24.746 29.1892 24 29.2638 23.5524 29.2531C23.1474 29.2744 22.6678 29.1892 22.3907 29.5089C22.3055 29.6261 22.2842 29.786 22.2735 29.9352C22.2948 30.5639 22.2948 31.3952 22.7211 31.7789C22.849 31.8854 22.9982 31.9494 23.1581 31.992C23.8082 32.1092 24.7566 32.2371 25.2789 31.9387C25.5986 31.6723 25.4813 31.214 25.4494 30.8197C25.3748 30.3934 25.3428 29.69 25.0764 29.4449Z" fill="#FDEDD3"/>
<path d="M13.4387 21.2177C13.1403 21.2283 12.032 21.239 11.6803 21.2603C11.1687 21.2496 10.7638 21.3349 10.4654 21.7505C9.55951 23.4877 10.167 28.1342 12.3517 27.2923C13.492 26.834 13.4174 25.6511 13.4068 24.5747C13.4068 23.7967 13.4387 21.7612 13.4387 21.2283V21.2177Z" fill="#FDEDD3"/>
<path d="M39.4528 22.3367C38.0567 20.7807 36.4794 19.4379 35.0087 17.9779C33.5273 16.6138 32.1419 15.1537 30.4368 14.1093C28.1135 12.6493 25.1721 12.937 22.6357 13.2674H22.5611C20.8879 13.5871 20.2804 15.4841 20.3337 16.9868C20.3337 17.5409 20.3337 18.1697 20.0779 18.6706C19.8222 19.2248 19.1827 19.3314 18.6392 19.2994C16.1348 19.2568 13.4705 18.7665 10.966 19.2887C9.03707 19.6404 8.17383 21.6013 8.03529 23.4024C7.4598 30.9797 14.0673 29.0188 19.0335 29.3491C19.5557 29.3918 20.1099 29.5516 20.2804 30.1165C20.5575 30.969 20.3017 31.9815 20.8239 32.7275C22.2414 34.6351 25.0655 34.2941 27.165 34.1982C30.9057 33.8465 33.6766 30.8518 36.4581 28.6351C38.3018 27.2497 41.2325 24.8305 39.4421 22.3367H39.4528ZM12.3515 27.2923C10.1667 28.1342 9.55927 23.4877 10.4651 21.7505C10.7635 21.3349 11.1792 21.2497 11.6801 21.2603C12.0424 21.2497 13.1401 21.2283 13.4385 21.2177C13.4385 21.7612 13.4172 23.7967 13.4065 24.5747C13.4172 25.6511 13.4811 26.834 12.3515 27.2923ZM25.2893 31.9388C24.7671 32.2266 23.8186 32.1094 23.1685 31.9921C23.0087 31.9495 22.8488 31.8855 22.7316 31.779C22.3053 31.3953 22.3053 30.5641 22.284 29.9353C22.284 29.7861 22.316 29.6262 22.4012 29.509C22.6783 29.1893 23.1579 29.2852 23.5629 29.2532C24.0105 29.2639 24.7565 29.1999 25.0442 29.4131L25.0868 29.445C25.3533 29.6902 25.3852 30.3935 25.4598 30.8198C25.4918 31.2141 25.609 31.6724 25.2893 31.9388ZM38.387 25.7896L35.7867 27.5161L34.0602 29.6795L30.1597 31.406L27.9963 32.7062L26.6961 31.406L25.7689 27.9424H22.3692L16.7422 27.5054L14.5788 25.779L15.6445 20.5782L22.7529 19.9282C21.879 19.8216 21.0797 19.7257 21.0797 19.7257L21.5167 14.5249L26.4083 14.088L25.8861 18.5107L26.2804 17.9885L26.3018 15.5374L27.1543 14.5249L28.4545 14.088L31.4812 15.8145L35.3817 18.8411L39.2822 23.7541L38.419 25.7683L38.387 25.7896Z" fill="#171718"/>
<path d="M25.8758 18.5215L26.5 13.5001L21.5 14.5001L21.0694 19.7364C21.0694 19.7364 21.8687 19.8323 22.7426 19.9389L24.9593 19.7364L25.8651 18.5321L25.8758 18.5215ZM24.1919 19.033C23.5525 19.1183 22.7852 19.4167 22.4122 18.9904C22.3376 18.8731 22.3163 18.7133 22.3163 18.5534C22.3482 17.8074 22.3056 16.6458 22.5188 15.8678C22.6893 15.4309 23.1582 15.3669 23.5951 15.2817C24.0001 15.2284 24.6182 15.0792 24.9379 15.2497L24.9806 15.2817C25.1617 15.4309 25.1617 15.7826 25.1404 16.2941C25.0445 17.0508 25.2044 18.0099 24.8527 18.692C24.7035 18.8945 24.4584 18.9797 24.2133 19.0437L24.1919 19.033Z" fill="#171718"/>
<path d="M25.8327 18.8624L25.8753 18.5214L24.9695 19.7256L14.419 20.4397C15.4847 20.9726 24.3196 20.9726 24.5434 20.9726C24.9803 20.9726 25.8327 18.8624 25.8327 18.8624Z" fill="#171718"/>
</svg>
