<svg width="32" height="33" viewBox="0 0 32 33" fill="none" xmlns="http://www.w3.org/2000/svg">
<path d="M7.01012 7.79035C7.05012 3.70035 7.07011 1.65036 8.38011 0.940357C9.69011 0.230357 11.4201 1.32035 14.8801 3.51035L15.7801 4.08036C16.7601 4.70036 17.2601 5.01036 17.8001 5.10036C18.3401 5.19036 18.8901 5.03036 19.9801 4.72036L20.9701 4.44036C24.7901 3.36036 26.7001 2.82035 27.8101 3.90035C28.9201 4.98035 28.5001 6.97036 27.6601 10.9404L27.4401 11.9704C27.2001 13.1004 27.0801 13.6604 27.1901 14.2204C27.3001 14.7804 27.6301 15.2603 28.2901 16.2403L28.8901 17.1304C31.2101 20.5604 32.3701 22.2703 31.7501 23.6503C31.1301 25.0303 29.1401 25.1603 25.1601 25.4303L24.1301 25.5004C23.0001 25.5704 22.4301 25.6103 21.9501 25.8703C21.4701 26.1304 21.1301 26.5803 20.4501 27.4903L19.8301 28.3204C17.4401 31.5204 16.2501 33.1204 14.7601 32.8904C13.2601 32.6604 12.4501 30.7604 10.8301 26.9504L10.4101 25.9704C9.95008 24.8904 9.72011 24.3504 9.31011 23.9504C8.90011 23.5504 8.36009 23.3504 7.29009 22.9404L6.3101 22.5604C2.5201 21.1104 0.620115 20.3904 0.320115 18.8703C0.0201148 17.3503 1.5101 16.0404 4.4901 13.4204L5.26012 12.7403C6.11012 12.0003 6.53012 11.6203 6.76012 11.1203C6.99012 10.6103 6.99011 10.0303 7.00011 8.87035V7.81035L7.01012 7.79035Z" fill="#FDE200"/>
</svg>
