<svg width="204" height="125" viewBox="0 0 204 125" fill="none" xmlns="http://www.w3.org/2000/svg">
<path d="M94.54 125C129.058 125 157.04 97.0178 157.04 62.5C157.04 27.9822 129.058 0 94.54 0C60.0222 0 32.04 27.9822 32.04 62.5C32.04 97.0178 60.0222 125 94.54 125Z" fill="#FFDF00"/>
<mask id="mask0_111_168" style="mask-type:luminance" maskUnits="userSpaceOnUse" x="32" y="0" width="126" height="125">
<path d="M94.54 125C129.058 125 157.04 97.0178 157.04 62.5C157.04 27.9822 129.058 0 94.54 0C60.0222 0 32.04 27.9822 32.04 62.5C32.04 97.0178 60.0222 125 94.54 125Z" fill="white"/>
</mask>
<g mask="url(#mask0_111_168)">
<path d="M127.37 62.1C128.31 84.81 124.25 108.33 111.84 127.36C117.69 123.96 123.53 120.56 129.38 117.15C141.4 110.15 153.7 102.93 162.55 92.19C169.17 84.17 173.58 74.43 175.79 64.26C180.82 41.12 174.42 16.75 163.49 -4.26C160.92 -9.19 158.04 -14.09 153.89 -17.8C141.15 -29.2 127.48 -19.61 119.92 -7.48C116.44 -1.9 117.52 3.80999 118.95 9.91999C120.86 18.07 122.75 26.22 124.21 34.46C125.83 43.59 126.99 52.81 127.38 62.08L127.37 62.1Z" fill="#FFBF02"/>
<path d="M56.71 102.53C57.91 104.35 59.11 106.17 60.56 107.79C62.26 109.69 64.29 111.29 66.53 112.5" stroke="black" stroke-width="0.5" stroke-miterlimit="10"/>
<path d="M60.4004 26.7C63.4504 21.91 67.8904 18.01 73.0504 15.62" stroke="black" stroke-width="0.5" stroke-miterlimit="10"/>
<path d="M61.7402 21.1998C64.8102 16.2898 70.0802 12.8198 75.8102 11.9398" stroke="black" stroke-width="0.5" stroke-miterlimit="10"/>
<path d="M103.72 118.63C113.06 116.37 122.04 112.57 130.17 107.45" stroke="black" stroke-width="0.5" stroke-miterlimit="10"/>
<path d="M120.01 107.28C124.66 106.36 128.94 103.71 131.82 99.95" stroke="black" stroke-width="0.5" stroke-miterlimit="10"/>
<path d="M132.56 105.74C134.36 103.87 136.09 101.93 137.73 99.9198" stroke="black" stroke-width="0.5" stroke-miterlimit="10"/>
<path d="M135.44 22.6898C138.74 26.0098 141.14 30.2098 142.34 34.7298" stroke="black" stroke-width="0.5" stroke-miterlimit="10"/>
</g>
<path d="M32.0405 60.14C70.6605 71.4 111.45 74.97 151.4 70.6C154.95 70.21 157.47 66.96 156.96 63.43L156.47 60.04C156.39 59.49 156.76 58.98 157.31 58.88C170.53 56.6 184.37 58.05 196.84 63.05C199.58 64.15 202.56 65.75 203.33 68.64C204.55 73.22 199.55 76.87 195.2 78.61C173.11 87.45 148.63 87.1 124.89 86.46C104.89 85.92 84.8305 85.26 65.0705 82.07C45.3105 78.88 25.7605 73.1 8.46045 62.9C5.65045 61.24 2.80044 59.38 1.51044 56.18C0.87044 54.58 0.79044 52.76 1.51044 51.21C3.12044 47.76 7.29048 47.53 10.8005 47.61C16.6405 47.61 22.4904 47.88 28.3304 48.02C31.6304 48.1 33.1905 47.22 33.0305 50.82C32.8905 53.92 32.3705 57.06 32.0505 60.14H32.0405Z" fill="#FF8302" stroke="black" stroke-width="0.5" stroke-miterlimit="10"/>
<path d="M9.99034 61.53C9.97034 56.94 12.7803 52.45 16.9203 50.47" stroke="black" stroke-width="0.5" stroke-miterlimit="10"/>
<path d="M14.71 57.2202C15.56 55.4502 16.59 53.7702 17.78 52.2202" stroke="black" stroke-width="0.5" stroke-miterlimit="10"/>
<path d="M181.751 66.0698C185.661 67.8798 188.801 71.2798 190.291 75.3198" stroke="black" stroke-width="0.5" stroke-miterlimit="10"/>
<path d="M188.64 78.08C191.2 77.73 193.63 76.49 195.43 74.64" stroke="black" stroke-width="0.5" stroke-miterlimit="10"/>
</svg>
